<svg width="1320" height="524" viewBox="0 0 1320 524" fill="none" xmlns="http://www.w3.org/2000/svg">
<rect width="1320" height="524" rx="12" fill="#030E24"/>
<g clip-path="url(#clip0_90_464)">
<path d="M589.965 211.61C589.818 212.594 589.583 213.194 589.288 213.738C588.834 214.56 587.748 216.375 585.556 215.201L581.223 212.876C579.103 211.742 579.939 209.791 580.387 208.969C580.703 208.394 581.156 207.865 581.763 207.215C581.789 207.21 581.809 207.175 581.825 207.139C581.896 207.019 581.825 206.932 581.763 206.877C581.595 206.721 581.545 206.695 581.422 206.625C581.33 206.58 581.213 206.585 581.06 206.66C580.422 207.154 579.597 208.364 579.418 208.697C578.7 210.013 578.047 212.332 580.821 213.819L585.031 216.073C587.825 217.57 589.328 215.705 590.047 214.393C590.257 214.011 590.812 212.745 590.939 211.973C590.914 211.803 590.868 211.686 590.776 211.641C590.612 211.546 590.435 211.474 590.252 211.424C590.175 211.404 590.067 211.394 589.997 211.515C589.981 211.55 589.96 211.584 589.965 211.61Z" fill="#E9E9E9"/>
<path d="M587.327 196.73C585.921 198.545 586.395 200.385 587.756 201.413L592.446 204.973C593.771 205.976 595.515 205.82 596.921 204.005C598.329 202.19 598.033 200.481 596.708 199.477L592.012 195.918C590.656 194.89 588.735 194.915 587.327 196.73ZM596.141 203.41C595.397 204.373 594.219 205.038 592.945 204.07L588.556 200.743C587.119 199.653 587.364 198.288 588.113 197.325C588.857 196.362 590.126 195.772 591.564 196.861L595.953 200.188C597.233 201.156 596.886 202.447 596.141 203.41Z" fill="#E9E9E9"/>
<path d="M595.575 188.144L603.166 196.024C603.32 196.18 603.533 196.226 603.722 196.049L603.91 195.873C604.099 195.691 604.064 195.48 603.91 195.323L600.414 191.693L603.442 188.84C603.569 188.714 603.59 188.588 603.462 188.457L603.13 188.114C603.018 187.998 602.891 188.008 602.758 188.134L599.73 190.987L596.718 187.862L600.591 184.212C600.724 184.086 600.74 183.959 600.618 183.833L600.311 183.516C600.259 183.464 600.189 183.433 600.115 183.431C600.041 183.429 599.969 183.456 599.914 183.506L595.575 187.594C595.382 187.776 595.423 187.988 595.575 188.144Z" fill="#E9E9E9"/>
<path d="M606.469 178.762L612.775 187.68C612.902 187.856 613.101 187.937 613.316 187.786L613.529 187.64C613.748 187.493 613.743 187.277 613.616 187.095L610.71 182.986L614.136 180.616C614.289 180.516 614.325 180.395 614.218 180.244L613.943 179.856C613.851 179.724 613.723 179.714 613.576 179.82L610.145 182.19L607.641 178.65L612.031 175.62C612.178 175.515 612.215 175.394 612.107 175.248L611.858 174.89C611.814 174.83 611.749 174.79 611.676 174.777C611.603 174.764 611.527 174.779 611.465 174.82L606.551 178.217C606.337 178.368 606.342 178.58 606.469 178.762Z" fill="#E9E9E9"/>
<path d="M624.214 167.956L618.841 170.577C618.606 170.688 618.576 170.905 618.672 171.102L623.535 180.862C623.637 181.054 623.825 181.164 624.06 181.049L629.433 178.427C629.597 178.351 629.653 178.235 629.571 178.074L629.368 177.666C629.286 177.504 629.163 177.474 629.001 177.555L624.199 179.894L622.215 175.916L625.972 174.086C626.13 174.006 626.187 173.89 626.105 173.728L625.895 173.3C625.825 173.158 625.697 173.133 625.533 173.209L621.782 175.039L619.85 171.167L624.652 168.827C624.815 168.752 624.866 168.637 624.789 168.475L624.591 168.082C624.557 168.016 624.499 167.967 624.428 167.943C624.358 167.92 624.281 167.924 624.214 167.956Z" fill="#E9E9E9"/>
<path d="M638.07 163.009L632.35 164.789C632.101 164.864 632.04 165.07 632.106 165.282L635.404 175.662C635.47 175.869 635.639 176.006 635.888 175.93L641.608 174.15C641.781 174.095 641.852 173.989 641.802 173.823L641.659 173.384C641.608 173.213 641.486 173.167 641.312 173.223L636.21 174.806L634.864 170.576L638.855 169.336C639.028 169.28 639.1 169.174 639.044 169.003L638.901 168.549C638.855 168.398 638.733 168.352 638.56 168.403L634.568 169.643L633.262 165.524L638.366 163.941C638.539 163.886 638.61 163.78 638.555 163.608L638.422 163.195C638.399 163.125 638.35 163.067 638.284 163.032C638.219 162.997 638.142 162.989 638.07 163.009Z" fill="#E9E9E9"/>
<path d="M663.656 170.785L662.82 168.869C662.525 168.189 661.429 166.349 660.69 166.046L660.603 165.93C662.657 165.511 663.219 164.15 663.147 162.683C663.065 161.014 662.173 159.603 659.339 159.733L656.168 159.885C655.903 159.895 655.791 160.082 655.801 160.298L656.327 171.168C656.337 171.385 656.464 171.561 656.724 171.546L656.989 171.536C657.249 171.521 657.361 171.339 657.351 171.117L657.111 166.152L659.201 166.056C660.282 166.762 661.551 168.416 662.051 169.585L662.663 171.012C662.729 171.188 662.872 171.259 663.076 171.249L663.254 171.239C663.539 171.229 663.672 171.082 663.656 170.785ZM657.066 165.178L656.857 160.828L659.104 160.722C660.333 160.662 662.02 160.586 662.123 162.728C662.225 164.896 660.542 165.018 659.314 165.073L657.066 165.178Z" fill="#E9E9E9"/>
<path d="M674.444 160.078C672.146 159.821 670.795 161.172 670.606 162.856L669.939 168.664C669.755 170.308 670.79 171.704 673.088 171.961C675.388 172.218 676.708 171.084 676.896 169.441L677.56 163.633C677.753 161.949 676.744 160.335 674.444 160.078ZM673.195 170.993C671.977 170.857 670.8 170.202 670.978 168.623L671.6 163.183C671.804 161.404 673.115 160.91 674.332 161.046C675.55 161.182 676.718 161.954 676.514 163.733L675.897 169.168C675.714 170.751 674.419 171.129 673.195 170.993Z" fill="#E9E9E9"/>
<path d="M691.066 175.356L691.081 164.274C691.088 163.881 690.878 163.534 690.47 163.417L689.481 163.14C689.078 163.024 688.711 163.21 688.507 163.548L682.609 172.971C682.543 173.203 682.666 173.359 682.803 173.399L683.15 173.495C683.288 173.535 683.45 173.541 683.629 173.279L685.383 170.465L690.047 171.781L690.032 175.083C690.047 175.401 690.19 175.482 690.327 175.522L690.674 175.618C690.811 175.658 691.001 175.588 691.066 175.356ZM690.047 170.768L685.923 169.603L689.348 164.113L690.047 164.31V170.768Z" fill="#E9E9E9"/>
<path d="M697.959 177.04C697.797 176.965 697.684 176.975 697.604 177.05C697.484 177.188 697.386 177.342 697.312 177.509C697.262 177.615 697.267 177.751 697.348 177.902C697.792 178.462 699.077 179.172 699.637 179.44C702.783 180.917 703.864 179.309 704.419 178.16C705.937 174.998 700.601 172.115 701.524 170.194C702.232 168.717 703.205 168.959 704.806 169.71C705.492 170.031 706.12 170.46 706.666 170.98C706.81 171.046 706.947 171.091 707.023 170.975C707.105 170.855 707.177 170.758 707.233 170.632C707.261 170.569 707.273 170.5 707.268 170.432C707.263 170.363 707.24 170.297 707.202 170.239C706.628 169.663 705.962 169.186 705.23 168.827C702.049 167.335 701.105 168.697 700.56 169.826C699.25 172.558 704.72 175.175 703.475 177.761C702.548 179.681 701.427 179.198 699.897 178.482C699.01 178.064 698.393 177.489 697.959 177.04Z" fill="#E9E9E9"/>
<path d="M720.602 178.08L715.244 174.45C715.096 174.349 714.954 174.374 714.851 174.52L714.612 174.863C714.51 175.014 714.535 175.151 714.689 175.251L716.941 176.784L711.054 185.284C710.926 185.461 710.926 185.677 711.141 185.824L711.354 185.97C711.573 186.116 711.773 186.035 711.9 185.854L717.788 177.354L720.046 178.886C720.193 178.987 720.337 178.962 720.438 178.811L720.678 178.468C720.78 178.322 720.749 178.18 720.602 178.08Z" fill="#E9E9E9"/>
<path d="M731.83 187.66L727.462 183.602C727.272 183.421 727.058 183.471 726.91 183.632L719.376 191.562C719.223 191.719 719.187 191.931 719.376 192.107L723.745 196.171C723.877 196.291 724.004 196.301 724.127 196.171L724.448 195.838C724.571 195.707 724.55 195.581 724.418 195.46L720.523 191.835L723.592 188.603L726.64 191.437C726.773 191.557 726.9 191.567 727.028 191.437L727.354 191.089C727.467 190.973 727.451 190.847 727.318 190.726L724.27 187.892L727.257 184.746L731.157 188.371C731.29 188.492 731.417 188.502 731.539 188.371L731.845 188.054C731.894 187.999 731.92 187.927 731.918 187.854C731.915 187.781 731.883 187.711 731.83 187.66Z" fill="#E9E9E9"/>
<path d="M732.993 206.424L734.094 204.649C734.492 204.014 735.384 202.073 735.211 201.297L735.256 201.16C736.781 202.587 738.229 202.26 739.406 201.357C740.742 200.329 741.394 198.796 739.656 196.577L737.708 194.097C737.55 193.891 737.331 193.906 737.158 194.042L728.461 200.712C728.288 200.842 728.222 201.049 728.379 201.252L728.538 201.458C728.701 201.66 728.915 201.644 729.093 201.513L733.064 198.463L734.349 200.097C734.385 201.377 733.748 203.353 733.064 204.432L732.234 205.748C732.132 205.905 732.152 206.061 732.274 206.222L732.387 206.363C732.559 206.58 732.759 206.606 732.993 206.424ZM733.845 197.868L737.326 195.196L738.707 196.956C739.458 197.919 740.492 199.235 738.779 200.556C737.046 201.881 735.975 200.586 735.226 199.628L733.845 197.868Z" fill="#E9E9E9"/>
<path d="M737.478 211.77C737.391 211.613 737.289 211.552 737.183 211.568C736.938 211.628 736.871 211.668 736.677 211.769C736.571 211.829 736.494 211.936 736.474 212.107C736.499 212.817 737.111 214.144 737.411 214.683C739.074 217.703 740.904 217.033 742.035 216.428C745.144 214.748 742.535 209.314 744.426 208.296C745.873 207.514 746.522 208.276 747.373 209.808C747.765 210.529 748 211.24 748.122 211.92C748.198 212.062 748.285 212.172 748.417 212.122C748.546 212.082 748.67 212.031 748.79 211.971C748.848 211.935 748.898 211.885 748.933 211.827C748.969 211.768 748.99 211.701 748.994 211.633C748.875 210.833 748.618 210.058 748.234 209.344C746.552 206.289 744.977 206.844 743.865 207.444C741.179 208.891 744.054 214.184 741.51 215.555C739.619 216.574 738.997 215.525 738.187 214.058C737.718 213.201 737.56 212.38 737.478 211.77Z" fill="#E9E9E9"/>
<path d="M479.505 239.216V240.769L479.75 243.703V288.532L479.505 291.466V293.014H483.705V291.466L483.461 288.532V268.315H492.773C506.206 268.315 515.107 262.447 515.107 253.725C515.107 245.003 507.032 239.215 494.834 239.215H479.504L479.505 239.216ZM483.461 241.419C486.84 241.419 493.845 241.419 493.926 241.499C504.23 241.499 511.151 246.556 511.151 254.053C511.151 261.308 504.147 266.117 493.599 266.117C493.599 266.117 489.476 266.037 483.461 266.037V241.419Z" fill="#E9E9E9"/>
<path d="M530.621 239.136V240.684L530.866 243.623V288.452L530.621 291.386V292.934H534.822V291.386L534.577 288.452V267.177H541.913L563.915 292.934H568.778L546.363 266.93C553.943 265.71 562.518 260.411 562.518 252.995C562.518 244.682 555.264 239.135 544.467 239.135L530.621 239.136ZM534.496 241.339C537.544 241.339 543.396 241.339 543.478 241.419C552.46 241.419 558.475 246.149 558.475 253.318C558.475 260.25 548.835 264.893 541.826 264.893H534.495L534.496 241.339Z" fill="#E9E9E9"/>
<path d="M606.216 293.831C622.366 293.831 633.163 282.826 633.163 266.279C633.163 249.572 622.366 238.405 606.216 238.405C589.981 238.405 579.184 249.405 579.184 265.871C579.184 282.664 589.981 293.831 606.216 293.831ZM583.139 264.485C583.139 249.98 592.04 240.361 605.472 240.361C619.731 240.361 629.208 251.281 629.208 267.666C629.208 282.175 620.307 291.79 607.038 291.79C592.698 291.79 583.139 280.87 583.139 264.485Z" fill="#E9E9E9"/>
<path d="M649.002 267.257C649.002 283.072 659.799 293.664 676.036 293.664C683.453 293.664 690.788 291.955 694.499 289.429L694.662 286.737L693.51 286.899C693.098 287.146 688.566 289.51 688.566 289.51C684.855 290.897 680.323 291.708 676.117 291.708C662.19 291.708 652.877 281.439 652.877 266.117C652.877 250.63 662.603 240.36 677.274 240.36C680.898 240.36 684.61 241.01 687.658 242.15L688.152 242.397C689.555 243.214 691.283 244.192 692.684 245.003C693.098 245.003 693.51 244.923 694.005 244.923L693.923 242.236C691.038 239.871 684.36 238.238 677.193 238.238C660.293 238.238 649.002 249.813 649.002 267.257Z" fill="#E9E9E9"/>
<path d="M711.905 293.014H748.002V290.322H746.599L741.823 290.73H715.861V266.44C719.404 266.44 723.028 266.359 726.576 266.359C730.119 266.359 733.662 266.44 736.96 266.687H738.856V263.914C736.96 263.914 735.308 263.995 733.58 264.161H715.861V241.419C720.642 241.419 725.505 241.339 730.363 241.339C735.227 241.339 740.09 241.419 744.541 241.747H745.942V239.216H711.905V240.769L712.15 243.703V288.532L711.905 291.466V293.014Z" fill="#E9E9E9"/>
<path d="M763.841 284.374L764.091 289.919C768.954 292.279 775.301 293.912 779.833 293.912C789.146 293.912 795.324 287.716 795.324 278.425C795.324 271.089 790.548 266.607 781.234 263.592C773.154 260.981 768.954 257.316 768.954 251.447C768.954 244.843 773.236 240.442 779.751 240.442C781.561 240.442 786.674 241.42 787.907 243.134C788.814 244.112 789.885 245.493 790.792 246.471C791.369 246.471 791.95 246.391 792.525 246.391L792.276 242.236C789.309 239.953 784.446 238.486 780.164 238.486C771.345 238.486 765.411 244.193 765.411 252.829C765.411 259.514 769.862 263.592 778.43 266.36C787.249 269.214 791.781 273.126 791.781 279.403C791.781 286.899 786.999 291.956 779.914 291.956C777.691 291.956 773.567 290.812 769.117 288.941C768.943 288.847 768.799 288.706 768.704 288.533C767.715 287.227 766.563 285.599 765.574 284.293H764.666C764.422 284.293 764.091 284.374 763.841 284.374Z" fill="#E9E9E9"/>
<path d="M810.012 284.374L810.262 289.919C815.126 292.279 821.473 293.912 826.004 293.912C835.318 293.912 841.496 287.716 841.496 278.425C841.496 271.089 836.719 266.607 827.406 263.592C819.326 260.981 815.126 257.316 815.126 251.447C815.126 244.843 819.408 240.442 825.923 240.442C827.732 240.442 832.845 241.42 834.078 243.134C834.986 244.112 836.057 245.493 836.964 246.471C837.541 246.471 838.121 246.391 838.697 246.391L838.448 242.236C835.481 239.953 830.617 238.486 826.335 238.486C817.516 238.486 811.583 244.193 811.583 252.829C811.583 259.514 816.033 263.592 824.602 266.36C833.421 269.214 837.953 273.126 837.953 279.403C837.953 286.899 833.171 291.956 826.085 291.956C823.863 291.956 819.739 290.812 815.288 288.941C815.114 288.847 814.971 288.705 814.876 288.533C813.887 287.227 812.734 285.599 811.745 284.293H810.838C810.594 284.293 810.262 284.374 810.012 284.374Z" fill="#E9E9E9"/>
<path d="M627.864 338.325L622.73 335.27C622.507 335.134 622.308 335.225 622.196 335.411L616.522 344.738C616.405 344.925 616.415 345.136 616.639 345.272L621.773 348.328C621.931 348.423 622.058 348.403 622.15 348.252L622.39 347.859C622.481 347.707 622.44 347.586 622.283 347.496L617.699 344.763L620.014 340.962L623.597 343.099C623.751 343.19 623.878 343.175 623.975 343.019L624.225 342.61C624.306 342.474 624.26 342.358 624.108 342.263L620.523 340.13L622.772 336.43L627.354 339.162C627.512 339.253 627.64 339.238 627.732 339.081L627.961 338.708C627.998 338.644 628.008 338.569 627.99 338.497C627.972 338.426 627.927 338.364 627.864 338.325Z" fill="#E9E9E9"/>
<path d="M629.741 350.674C629.573 350.608 629.455 350.623 629.384 350.704C629.271 350.847 629.184 351.01 629.129 351.183C629.083 351.294 629.093 351.425 629.191 351.571C629.67 352.095 630.999 352.721 631.581 352.947C634.819 354.203 635.786 352.529 636.26 351.344C637.551 348.087 632.025 345.572 632.809 343.59C633.411 342.073 634.405 342.244 636.052 342.885C636.759 343.158 637.417 343.543 638 344.024C638.147 344.084 638.285 344.115 638.356 343.994C638.427 343.873 638.488 343.767 638.54 343.641C638.562 343.576 638.569 343.507 638.558 343.439C638.547 343.372 638.52 343.308 638.478 343.253C637.868 342.715 637.17 342.284 636.414 341.977C633.136 340.707 632.29 342.128 631.826 343.298C630.709 346.111 636.347 348.345 635.287 351.011C634.502 352.993 633.345 352.584 631.775 351.974C630.857 351.616 630.205 351.087 629.741 350.674Z" fill="#E9E9E9"/>
<path d="M651.031 346.155L644.669 344.839C644.491 344.799 644.374 344.879 644.338 345.051L644.252 345.459C644.21 345.635 644.292 345.756 644.465 345.792L647.146 346.346L645.011 356.429C644.965 356.646 645.046 356.848 645.301 356.898L645.556 356.954C645.811 357.004 645.97 356.853 646.015 356.641L648.151 346.553L650.827 347.108C651.006 347.143 651.123 347.067 651.159 346.891L651.246 346.482C651.286 346.311 651.204 346.19 651.031 346.155Z" fill="#E9E9E9"/>
<path d="M656.313 357.828L656.292 358.065C656.277 358.282 656.384 358.469 656.649 358.489L656.91 358.509C657.17 358.524 657.302 358.358 657.317 358.136L657.338 357.899C657.353 357.682 657.246 357.496 656.986 357.475L656.721 357.455C656.461 357.44 656.329 357.607 656.313 357.828Z" fill="#E9E9E9"/>
<path d="M664.922 347.302C664.785 347.373 664.693 347.514 664.703 347.655C664.703 347.676 664.688 347.696 664.852 348.064C664.882 348.2 664.964 348.255 665.106 348.25C666.07 347.928 666.687 347.766 667.39 347.726C669.092 347.615 670.081 347.61 670.209 349.536C670.362 351.9 664.662 353.221 664.907 356.932L665.009 358.5C665.019 358.661 665.162 358.752 665.326 358.737L671.325 358.359C671.529 358.343 671.621 358.258 671.611 358.081L671.58 357.622C671.57 357.446 671.463 357.37 671.264 357.386L665.983 357.718L665.943 357.103C665.713 353.589 671.437 352.606 671.229 349.41C671.147 348.139 670.979 346.516 667.507 346.738C666.783 346.783 665.687 346.955 664.922 347.302Z" fill="#E9E9E9"/>
<path d="M679.908 344.907C677.66 345.436 676.855 347.16 677.252 348.809L678.618 354.496C679.006 356.104 680.459 357.067 682.706 356.538C684.96 356.008 685.817 354.501 685.429 352.893L684.057 347.206C683.665 345.557 682.161 344.377 679.908 344.907ZM682.483 355.59C681.285 355.872 679.954 355.655 679.582 354.108L678.297 348.784C677.879 347.044 678.945 346.137 680.137 345.855C681.33 345.577 682.696 345.91 683.115 347.649L684.394 352.973C684.766 354.521 683.675 355.313 682.483 355.59Z" fill="#E9E9E9"/>
<path d="M689.309 342.507C689.208 342.618 689.166 342.784 689.223 342.91C689.233 342.931 689.218 342.956 689.498 343.248C689.575 343.369 689.671 343.394 689.798 343.339C690.604 342.719 691.129 342.366 691.777 342.094C693.352 341.433 694.28 341.105 695.044 342.88C695.988 345.058 691.053 348.174 692.526 351.597L693.148 353.039C693.214 353.19 693.383 353.225 693.531 353.16L699.061 350.831C699.251 350.755 699.311 350.639 699.239 350.478L699.056 350.054C698.985 349.888 698.862 349.858 698.679 349.933L693.811 351.985L693.566 351.415C692.17 348.179 697.236 345.371 695.967 342.426C695.463 341.257 694.759 339.78 691.558 341.126C690.894 341.408 689.916 341.927 689.309 342.507Z" fill="#E9E9E9"/>
<path d="M702.008 336.156L700.84 338.934C700.728 339.211 700.57 339.448 700.728 339.7L700.952 340.058C701.06 340.224 701.177 340.27 701.299 340.194C701.461 340.086 701.578 339.922 701.626 339.735L702.798 336.887L703.124 336.69L708.476 345.226C708.594 345.412 708.793 345.498 709.017 345.362L709.237 345.226C709.46 345.089 709.465 344.878 709.348 344.691L703.547 335.445C703.43 335.258 703.237 335.168 703.012 335.304L702.313 335.732C702.176 335.818 702.089 335.984 702.008 336.156Z" fill="#E9E9E9"/>
<path fill-rule="evenodd" clip-rule="evenodd" d="M769.466 308C751.504 348.786 710.384 377.3 662.53 377.3C614.676 377.3 573.556 348.786 555.594 308H553.72C571.789 349.749 613.705 379 662.53 379C711.354 379 753.271 349.749 771.34 308H769.466ZM556.967 213C575.592 173.823 615.858 146.7 662.53 146.7C709.202 146.7 749.468 173.823 768.093 213H769.99C751.244 172.856 710.176 145 662.53 145C614.884 145 573.815 172.857 555.07 213H556.967Z" fill="#E9E9E9"/>
</g>
<defs>
<clipPath id="clip0_90_464">
<rect width="363" height="234" fill="white" transform="translate(479 145)"/>
</clipPath>
</defs>
</svg>
