<svg width="1320" height="524" viewBox="0 0 1320 524" fill="none" xmlns="http://www.w3.org/2000/svg">
<rect width="1320" height="524" rx="12" fill="#030E24"/>
<path d="M606.84 244.625C593.623 244.625 582.816 255.432 582.816 268.649C582.816 281.867 593.623 292.673 606.84 292.673C620.058 292.673 630.865 281.867 630.865 268.649C630.865 255.432 620.058 244.625 606.84 244.625ZM618.562 268.358C618.562 274.967 613.449 280.37 607.131 280.37C600.814 280.37 595.701 274.967 595.701 268.358C595.701 261.749 600.814 256.346 607.131 256.346C613.449 256.346 618.562 261.749 618.562 268.358ZM690.967 245.498C690.676 245.207 690.385 245.207 690.052 245.207H680.451C679.869 245.207 679.246 245.789 679.246 246.412V289.972C679.246 290.263 679.246 290.554 679.537 290.886C679.828 291.177 680.119 291.177 680.451 291.177H690.052C690.634 291.177 691.258 290.595 691.258 289.972V246.412C691.299 246.121 691.299 245.83 690.967 245.498ZM685.272 239.512C688.889 239.512 691.881 236.52 691.881 232.904C692.172 229.288 688.889 226.295 685.272 226.295C681.656 226.295 678.664 229.288 678.664 232.904C678.664 236.811 681.656 239.512 685.272 239.512ZM672.346 227.168H637.224C636.642 227.168 636.019 227.75 636.019 228.373V289.972C636.019 290.263 636.019 290.554 636.31 290.886C636.601 291.177 636.892 291.177 637.224 291.177H646.825C647.407 291.177 648.031 290.595 648.031 289.972V265.033H669.644C669.935 265.033 670.226 265.033 670.559 264.742C670.85 264.451 670.85 264.16 670.85 263.828V254.85C670.85 254.268 670.268 253.644 669.644 253.644H648.031V238.64H672.388C672.678 238.64 672.969 238.64 673.302 238.349C673.634 238.058 673.593 237.767 673.593 237.434V228.415C673.551 227.791 672.969 227.168 672.346 227.168ZM560.288 253.935C550.687 249.737 547.653 247.908 547.653 244.334C547.653 239.512 552.142 238.016 556.381 238.016C560.87 238.016 565.692 240.427 565.692 247.036C565.692 247.617 565.983 247.95 566.606 247.95H577.122C577.413 247.659 577.704 247.368 577.704 247.036C577.704 235.023 568.975 226.295 556.381 226.295C543.746 226.295 535.641 233.486 535.641 244.334C535.641 257.26 545.242 261.167 554.552 264.784L555.134 265.075C563.863 268.4 566.855 269.896 566.855 274.094C566.855 279.788 560.829 280.703 557.545 280.703C551.227 280.703 546.447 276.214 546.447 270.187V269.605C546.447 269.023 546.156 268.691 545.533 268.691H535.059C534.768 268.691 534.144 268.982 534.144 269.605V270.519C534.144 283.737 543.746 292.756 557.296 292.756C570.222 292.756 578.909 285.233 578.909 274.427C579.2 263.246 573.506 259.339 560.288 253.935ZM783.531 289.39C783.531 291.177 782.325 292.382 780.538 292.382C778.751 292.382 777.545 291.177 777.545 289.39C777.545 287.602 778.751 286.397 780.538 286.397C782.325 286.397 783.531 287.561 783.531 289.39ZM778.127 289.39C778.127 290.886 779.042 291.8 780.538 291.8C782.034 291.8 782.949 290.886 782.949 289.39C782.949 287.893 782.034 286.979 780.538 286.979C779.042 286.979 778.127 287.893 778.127 289.39ZM781.743 288.766C781.743 289.057 781.453 289.348 781.162 289.681L781.743 290.886H780.829L780.247 289.681H779.956V290.886H779.374V287.893H780.58C781.12 287.893 781.743 288.184 781.743 288.766ZM780.206 288.475V289.39H780.497C780.788 289.39 781.078 289.099 781.078 289.099C781.078 288.808 780.788 288.808 780.497 288.808H780.206V288.475ZM767.903 228.997C772.101 228.997 775.426 232.322 775.426 236.52C775.426 240.718 772.101 244.043 767.903 244.043C763.705 244.043 760.379 240.718 760.379 236.52C760.379 232.28 763.705 228.997 767.903 228.997ZM767.903 226.295C762.208 226.295 757.387 231.116 757.387 236.811C757.387 242.505 762.208 247.327 767.903 247.327C773.597 247.327 778.418 242.505 778.418 236.811C778.418 231.075 773.597 226.295 767.903 226.295Z" fill="#E9E9E9"/>
<path d="M745.374 251.816C747.494 251.816 749.282 252.73 750.778 253.935C752.274 255.432 752.898 257.26 752.898 259.339C752.898 263.537 749.572 266.862 745.374 266.862C743.255 266.862 741.467 265.947 739.971 264.742C738.475 263.246 737.851 261.417 737.851 259.339C737.56 255.141 741.176 251.816 745.374 251.816ZM745.374 248.823C739.68 248.823 734.859 253.644 734.859 259.339C734.859 265.033 739.68 269.854 745.374 269.854C751.069 269.854 755.89 265.033 755.89 259.339C755.89 253.644 751.069 248.823 745.374 248.823Z" fill="#E9E9E9"/>
<path d="M762.873 250.07C767.986 247.285 774.345 249.197 777.13 254.268C779.915 259.339 778.003 265.74 772.932 268.524C767.819 271.309 761.46 269.397 758.675 264.326C755.89 259.255 757.761 252.855 762.873 250.07ZM762.832 272.598C767.944 269.813 774.303 271.725 777.088 276.796C779.873 281.908 777.961 288.267 772.89 291.052C767.819 293.837 761.418 291.925 758.634 286.854C755.849 281.783 757.761 275.382 762.832 272.598ZM713.162 254.974C715.531 249.654 721.724 247.285 727.045 249.613C732.365 251.982 734.734 258.175 732.407 263.495C730.079 268.815 723.844 271.184 718.524 268.857C713.204 266.529 710.793 260.295 713.162 254.974ZM735.732 232.488C738.101 227.168 744.294 224.799 749.614 227.126C754.934 229.495 757.304 235.688 754.976 241.009C752.607 246.329 746.414 248.698 741.094 246.371C735.773 244.043 733.363 237.767 735.732 232.488ZM713.162 232.446C715.531 227.126 721.724 224.757 727.045 227.085C732.365 229.454 734.734 235.647 732.407 240.967C730.079 246.287 723.844 248.657 718.524 246.329C713.245 243.96 710.835 237.767 713.162 232.446ZM735.69 277.585C738.059 272.265 744.252 269.896 749.573 272.224C754.893 274.593 757.262 280.786 754.934 286.106C752.565 291.426 746.372 293.796 741.052 291.468C735.732 289.099 733.321 282.906 735.69 277.585Z" fill="#E9E9E9"/>
<path d="M722.847 274.343C724.966 274.343 726.754 275.258 728.25 276.463C729.746 277.959 730.37 279.788 730.37 281.866C730.37 286.065 727.045 289.39 722.847 289.39C718.649 289.39 715.323 286.065 715.323 281.866C715.032 277.668 718.649 274.343 722.847 274.343ZM722.847 271.351C717.152 271.351 712.331 276.172 712.331 281.866C712.331 287.561 717.152 292.382 722.847 292.382C728.541 292.382 733.362 287.561 733.362 281.866C733.362 276.172 728.541 271.351 722.847 271.351Z" fill="#E9E9E9"/>
</svg>
