<svg width="1320" height="524" viewBox="0 0 1320 524" fill="none" xmlns="http://www.w3.org/2000/svg">
<rect width="1320" height="524" rx="12" fill="#030E24"/>
<path d="M797.1 292.244L797.067 230.688H814.197L814.23 276.507H833.434V292.244H797.1Z" fill="#E9E9E9"/>
<path d="M741.364 292.276L741.298 230.72H758.427L758.46 252.318L775.689 252.286V230.72L792.785 230.688L792.818 292.244H775.722V269.351L758.46 269.383V292.244L741.364 292.276Z" fill="#E9E9E9"/>
<path d="M683.157 230.752L658.451 260.09L686.714 292.309H664.051L644.846 270.387H644.813V292.309H627.717L627.684 230.785L644.813 230.752V249.21H644.681L660.987 230.752H683.157Z" fill="#E9E9E9"/>
<path d="M673.9 260.996C673.965 254.724 675.918 248.61 679.513 243.427C683.107 238.244 688.183 234.223 694.099 231.871C700.015 229.52 706.506 228.942 712.756 230.212C719.005 231.482 724.732 234.542 729.215 239.007C733.697 243.472 736.734 249.141 737.944 255.301C739.153 261.46 738.48 267.833 736.01 273.617C733.539 279.401 729.382 284.336 724.062 287.801C718.742 291.266 712.498 293.105 706.117 293.086C701.85 293.069 697.629 292.225 693.694 290.602C689.76 288.98 686.19 286.61 683.188 283.629C680.187 280.649 677.813 277.115 676.202 273.232C674.591 269.348 673.775 265.19 673.801 260.996M706.117 276.766C710.172 276.556 713.978 274.776 716.7 271.814C719.423 268.852 720.841 264.951 720.644 260.964C720.861 258.959 720.647 256.931 720.015 255.012C719.383 253.094 718.348 251.327 716.976 249.828C715.605 248.328 713.928 247.129 712.054 246.308C710.18 245.487 708.152 245.063 706.1 245.063C704.049 245.063 702.02 245.487 700.147 246.308C698.273 247.129 696.596 248.328 695.224 249.828C693.852 251.327 692.817 253.094 692.185 255.012C691.553 256.931 691.339 258.959 691.557 260.964C691.368 264.954 692.794 268.855 695.522 271.816C698.25 274.777 702.059 276.556 706.117 276.766Z" fill="#E9E9E9"/>
<path d="M854.089 230.688L871.679 230.655V244.838L854.517 244.871L854.418 254.585H870.329V268.347L854.484 268.379V277.77H871.844V292.211H854.253L836.959 292.244L836.926 230.688H854.089Z" fill="#E9E9E9"/>
<path d="M907.289 267.569L925.11 292.211H906.399L892.432 273.333V292.179H875.698V230.623H897.176C916.051 230.623 928.042 253.872 907.355 267.569H907.289ZM897.176 256.754C898.775 256.754 900.308 256.13 901.439 255.019C902.569 253.907 903.204 252.4 903.204 250.829C903.204 249.257 902.569 247.75 901.439 246.638C900.308 245.527 898.775 244.903 897.176 244.903H892.334V256.754H897.176Z" fill="#E9E9E9"/>
<path d="M927.218 289.07C927.205 287.838 927.565 286.63 928.252 285.599C928.939 284.568 929.922 283.761 931.076 283.281C932.231 282.8 933.505 282.668 934.736 282.9C935.967 283.133 937.1 283.72 937.991 284.587C938.882 285.453 939.491 286.561 939.741 287.769C939.99 288.977 939.869 290.23 939.392 291.37C938.915 292.51 938.105 293.484 937.063 294.17C936.022 294.856 934.797 295.223 933.543 295.223C932.714 295.236 931.891 295.086 931.122 294.782C930.353 294.478 929.654 294.027 929.065 293.454C928.476 292.881 928.009 292.198 927.692 291.445C927.375 290.692 927.214 289.885 927.218 289.07ZM938.846 289.07C938.853 288.029 938.544 287.009 937.958 286.141C937.373 285.272 936.538 284.595 935.56 284.195C934.581 283.795 933.504 283.69 932.465 283.894C931.426 284.098 930.472 284.602 929.725 285.341C928.978 286.08 928.472 287.02 928.27 288.043C928.069 289.066 928.183 290.124 928.596 291.083C929.009 292.043 929.703 292.859 930.59 293.429C931.477 293.999 932.516 294.297 933.576 294.284C934.971 294.259 936.302 293.7 937.286 292.727C938.27 291.754 938.829 290.442 938.846 289.07ZM936.508 292.309H935.355L933.312 289.07H932.159V292.309H931.204V285.67H934.235C935.453 285.67 936.672 285.994 936.672 287.451C936.672 288.909 935.684 289.265 934.498 289.297L936.508 292.309ZM933.213 288.261C934.07 288.261 935.552 288.423 935.552 287.322C935.552 286.221 934.63 286.512 933.872 286.512H932.06V288.229L933.411 288.358L933.213 288.261Z" fill="#E9E9E9"/>
<path d="M386.588 272.071C386.588 284.764 395.68 288.65 407.176 288.65C413.765 288.65 423.647 285.088 423.647 276.118C423.647 269.156 416.63 266.404 410.767 264.979L396.8 261.741C389.52 259.798 382.767 256.463 382.767 246.781C382.767 240.758 386.588 229.425 404.376 229.425C416.828 229.425 427.435 235.901 427.435 248.594H421.572C421.143 239.269 413.402 234.476 404.442 234.476C396.273 234.476 388.729 237.714 388.729 246.684C388.729 252.48 393.012 254.973 398.216 256.107L413.468 259.798C422.362 262.13 429.741 266.015 429.741 275.989C429.741 280.231 427.995 293.604 405.76 293.604C390.936 293.604 380.033 287.128 380.725 272.006H386.588V272.071Z" fill="#E9E9E9"/>
<path d="M446.771 247.817H455.995V252.383H446.771V282.432C446.771 285.962 447.298 288.034 451.251 288.293C452.836 288.288 454.419 288.201 455.995 288.034V292.762C454.315 292.762 452.7 292.924 451.053 292.924C443.675 292.924 441.171 290.527 441.171 282.918V252.383H433.265V247.817H441.171V234.476H446.705V247.817H446.771Z" fill="#E9E9E9"/>
<path d="M498.587 292.373H493.613V284.343H493.449C492.03 287.212 489.799 289.619 487.023 291.273C484.248 292.927 481.046 293.759 477.801 293.669C466.305 293.669 461.924 287.192 461.924 276.733V247.817H467.458V276.96C467.721 284.958 470.752 289.2 479.58 289.2C489.067 289.2 493.185 280.392 493.185 271.326V247.817H498.587V292.373Z" fill="#E9E9E9"/>
<path d="M545.331 292.373H540.225V283.922C538.735 286.875 536.425 289.354 533.564 291.073C530.702 292.792 527.404 293.68 524.051 293.636C510.281 293.636 503.693 282.756 503.693 270.063C503.693 257.369 510.281 246.522 524.051 246.522C527.373 246.353 530.668 247.195 533.485 248.933C536.303 250.671 538.507 253.222 539.797 256.236V230.752H545.331V292.373ZM523.919 289.135C535.58 289.135 539.797 279.421 539.797 270.16C539.797 260.899 535.58 251.185 523.919 251.185C513.378 251.185 509.095 260.899 509.095 270.16C509.095 279.421 513.378 289.07 523.919 289.07V289.135Z" fill="#E9E9E9"/>
<path d="M554.027 230.752H559.561V239.463H554.027V230.752ZM554.027 247.817H559.561V292.373H554.027V247.817Z" fill="#E9E9E9"/>
<path d="M608.809 270.095C608.809 282.853 601.167 293.636 587.364 293.636C573.562 293.636 565.952 283.048 565.952 270.095C565.952 257.143 573.595 246.522 587.529 246.522C601.463 246.522 608.809 257.305 608.809 270.095ZM571.487 270.095C571.487 279.486 576.856 289.071 587.364 289.071C597.872 289.071 603.275 279.356 603.275 270.095C603.275 260.834 597.905 251.12 587.529 251.12C577.152 251.12 571.487 260.672 571.487 270.095Z" fill="#E9E9E9"/>
</svg>
