<svg width="1320" height="524" viewBox="0 0 1320 524" fill="none" xmlns="http://www.w3.org/2000/svg">
<rect width="1320" height="524" rx="12" fill="#030E24"/>
<path d="M660.5 397C653.301 393.782 595.689 368.981 577.091 353.513C567.122 345.238 559.177 334.792 553.866 322.974C548.554 311.157 546.017 298.28 546.447 285.331V151.292C578.082 134.481 616.365 126 660.5 126C704.635 126 742.719 134.528 774.553 151.292V285.183C775.442 311.436 764.149 336.622 743.955 353.416C725.663 368.291 667.389 393.981 660.695 396.903L660.5 397Z" fill="#E9E9E9"/>
<path d="M704.385 238.863C704.506 231.92 707.369 225.307 712.349 220.467C717.329 215.627 724.02 212.953 730.964 213.029C738.729 212.621 746.397 214.897 752.682 219.474V236.682C747.995 231.821 741.631 228.933 734.881 228.595C729.279 228.595 723.427 231.025 723.228 238.067C723.029 245.109 728.881 247.984 736.27 252.447C752.826 262.364 756.104 270.892 755.663 282.447C755.6 289.845 752.479 296.844 747.042 301.904C741.605 306.965 734.33 309.463 726.954 308.933C719.269 308.87 711.74 306.765 705.134 302.836V284.687C710.369 289.423 717.038 292.269 724.079 292.771C727.187 293.177 730.316 292.178 732.607 290.031C734.898 287.884 736.122 284.84 735.927 281.711C735.927 275.512 732.256 272.09 723.579 266.835C707.264 257.266 704.288 249.381 704.288 238.816L704.385 238.863ZM656.384 230.437C658.588 229.472 660.97 228.981 663.375 228.997C674.88 228.997 679.635 238.173 679.635 260.386C679.635 282.6 674.181 292.525 662.774 292.525C660.572 292.508 658.391 292.102 656.329 291.34V230.449L656.384 230.437ZM656.384 349.202H636.55V220.215C644.562 215.303 653.839 212.847 663.227 213.173C686.88 213.173 699.871 231.127 699.871 259.984C699.871 288.841 687.227 308.734 665.158 308.734C662.143 308.79 659.136 308.404 656.232 307.591V349.152L656.384 349.202ZM567.123 277.345V215.261H586.957V278.239C586.957 283.841 588.295 292.17 597.416 292.17C600.672 292.252 603.88 291.373 606.639 289.642V215.261H626.472V300.998C617.568 306.545 607.206 309.315 596.718 308.933C576.884 308.933 566.963 298.322 566.963 277.294L567.123 277.345ZM557.207 285.327C556.326 308.447 566.217 330.66 583.985 345.476C599.457 358.12 647.162 379.69 660.597 385.593C673.838 379.741 721.445 358.416 737.163 345.476C754.948 330.698 764.843 308.48 763.941 285.373V154.108C697.635 147.968 619.24 151.737 557.156 208.663V285.327H557.207Z" fill="#030E24"/>
</svg>
