<svg width="1440" height="104" viewBox="0 0 1440 104" fill="none" xmlns="http://www.w3.org/2000/svg">
<path d="M341 0L341 103.5L365.75 103.5L365.75 39.75L385.25 103.5L403.25 103.5L422.75 39L422.75 103.5L447.5 103.5L447.5 4.65526e-06L415.25 3.24557e-06L394.25 66L373.25 1.40969e-06L341 0Z" fill="#E9E9E9"/>
<path d="M366 103.5L366 0L341.25 -1.08186e-06L341.25 63.75L321.75 -1.93423e-06L303.75 -2.72103e-06L284.25 64.5L284.25 -3.57341e-06L259.5 -4.65526e-06L259.5 103.5L291.75 103.5L312.75 37.5L333.75 103.5L366 103.5Z" fill="#E9E9E9"/>
<path d="M178 0L178 103.5L202.75 103.5L202.75 39.75L222.25 103.5L240.25 103.5L259.75 39L259.75 103.5L284.5 103.5L284.5 4.65526e-06L252.25 3.24557e-06L231.25 66L210.25 1.40969e-06L178 0Z" fill="#E9E9E9"/>
<path d="M203 103.5L203 0L178.25 -1.08186e-06L178.25 63.75L158.75 -1.93423e-06L140.75 -2.72103e-06L121.25 64.5L121.25 -3.57341e-06L96.5 -4.65526e-06L96.5 103.5L128.75 103.5L149.75 37.5L170.75 103.5L203 103.5Z" fill="#E9E9E9"/>
<path d="M15 0L15 103.5L39.75 103.5L39.75 39.75L59.25 103.5L77.25 103.5L96.75 39L96.75 103.5L121.5 103.5L121.5 4.65526e-06L89.25 3.24557e-06L68.25 66L47.25 1.40969e-06L15 0Z" fill="#E9E9E9"/>
<path d="M40 103.5L40 0L15.25 -1.08186e-06L15.25 63.75L-4.25 -1.93423e-06L-22.25 -2.72103e-06L-41.75 64.5L-41.75 -3.57341e-06L-66.5 -4.65526e-06L-66.5 103.5L-34.25 103.5L-13.25 37.5L7.75 103.5L40 103.5Z" fill="#E9E9E9"/>
<path d="M911.5 0L911.5 103.5L936.25 103.5L936.25 39.75L955.75 103.5L973.75 103.5L993.25 39L993.25 103.5L1018 103.5L1018 4.65526e-06L985.75 3.24557e-06L964.75 66L943.75 1.40969e-06L911.5 0Z" fill="#E9E9E9"/>
<path d="M936.5 103.5L936.5 0L911.75 -1.08186e-06L911.75 63.75L892.25 -1.93423e-06L874.25 -2.72103e-06L854.75 64.5L854.75 -3.57341e-06L830 -4.65526e-06L830 103.5L862.25 103.5L883.25 37.5L904.25 103.5L936.5 103.5Z" fill="#E9E9E9"/>
<path d="M748.5 0L748.5 103.5L773.25 103.5L773.25 39.75L792.75 103.5L810.75 103.5L830.25 39L830.25 103.5L855 103.5L855 4.65526e-06L822.75 3.24557e-06L801.75 66L780.75 1.40969e-06L748.5 0Z" fill="#E9E9E9"/>
<path d="M773.5 103.5L773.5 0L748.75 -1.08186e-06L748.75 63.75L729.25 -1.93423e-06L711.25 -2.72103e-06L691.75 64.5L691.75 -3.57341e-06L667 -4.65526e-06L667 103.5L699.25 103.5L720.25 37.5L741.25 103.5L773.5 103.5Z" fill="#E9E9E9"/>
<path d="M585.5 0L585.5 103.5L610.25 103.5L610.25 39.75L629.75 103.5L647.75 103.5L667.25 39L667.25 103.5L692 103.5L692 4.65526e-06L659.75 3.24557e-06L638.75 66L617.75 1.40969e-06L585.5 0Z" fill="#E9E9E9"/>
<path d="M610.5 103.5L610.5 0L585.75 -1.08186e-06L585.75 63.75L566.25 -1.93423e-06L548.25 -2.72103e-06L528.75 64.5L528.75 -3.57341e-06L504 -4.65526e-06L504 103.5L536.25 103.5L557.25 37.5L578.25 103.5L610.5 103.5Z" fill="#E9E9E9"/>
<path d="M422.5 0L422.5 103.5L447.25 103.5L447.25 39.75L466.75 103.5L484.75 103.5L504.25 39L504.25 103.5L529 103.5L529 4.65526e-06L496.75 3.24557e-06L475.75 66L454.75 1.40969e-06L422.5 0Z" fill="#E9E9E9"/>
<path d="M1507 103.5L1507 0L1482.25 -1.08186e-06L1482.25 63.75L1462.75 -1.93423e-06L1444.75 -2.72103e-06L1425.25 64.5L1425.25 -3.57341e-06L1400.5 -4.65526e-06L1400.5 103.5L1432.75 103.5L1453.75 37.5L1474.75 103.5L1507 103.5Z" fill="#E9E9E9"/>
<path d="M1319 0L1319 103.5L1343.75 103.5L1343.75 39.75L1363.25 103.5L1381.25 103.5L1400.75 39L1400.75 103.5L1425.5 103.5L1425.5 4.65526e-06L1393.25 3.24557e-06L1372.25 66L1351.25 1.40969e-06L1319 0Z" fill="#E9E9E9"/>
<path d="M1344 103.5L1344 0L1319.25 -1.08186e-06L1319.25 63.75L1299.75 -1.93423e-06L1281.75 -2.72103e-06L1262.25 64.5L1262.25 -3.57341e-06L1237.5 -4.65526e-06L1237.5 103.5L1269.75 103.5L1290.75 37.5L1311.75 103.5L1344 103.5Z" fill="#E9E9E9"/>
<path d="M1156 0L1156 103.5L1180.75 103.5L1180.75 39.75L1200.25 103.5L1218.25 103.5L1237.75 39L1237.75 103.5L1262.5 103.5L1262.5 4.65526e-06L1230.25 3.24557e-06L1209.25 66L1188.25 1.40969e-06L1156 0Z" fill="#E9E9E9"/>
<path d="M1181 103.5L1181 0L1156.25 -1.08186e-06L1156.25 63.75L1136.75 -1.93423e-06L1118.75 -2.72103e-06L1099.25 64.5L1099.25 -3.57341e-06L1074.5 -4.65526e-06L1074.5 103.5L1106.75 103.5L1127.75 37.5L1148.75 103.5L1181 103.5Z" fill="#E9E9E9"/>
<path d="M993 0L993 103.5L1017.75 103.5L1017.75 39.75L1037.25 103.5L1055.25 103.5L1074.75 39L1074.75 103.5L1099.5 103.5L1099.5 4.65526e-06L1067.25 3.24557e-06L1046.25 66L1025.25 1.40969e-06L993 0Z" fill="#E9E9E9"/>
</svg>
