<svg width="1320" height="1232" viewBox="0 0 1320 1232" fill="none" xmlns="http://www.w3.org/2000/svg">
<mask id="path-1-outside-1_42_1717" maskUnits="userSpaceOnUse" x="248" y="28" width="819" height="96" fill="black">
<rect fill="white" x="248" y="28" width="819" height="96"/>
<path d="M290.396 122.638C263.936 122.638 249.698 102.856 249.698 76.018C249.698 49.306 265.952 29.272 291.53 29.272C313.076 29.272 325.424 40.612 328.574 57.622H319.124C316.478 44.518 306.02 37.336 291.53 37.336C268.976 37.336 259.274 57.244 259.274 76.018C259.274 94.918 267.086 114.574 290.396 114.574C307.91 114.574 320.888 101.848 320.888 82.948H291.026V74.758H330.086V121H323.786L321.014 104.998H320.762C315.092 115.582 305.768 122.638 290.396 122.638ZM408.397 121H345.901V30.91H407.011V38.974H355.099V69.97H401.467V78.034H355.099V112.936H408.397V121ZM451.979 121H442.907V38.974H412.289V30.91H482.723V38.974H451.979V121ZM527.119 121H517.921V30.91H527.119V121ZM555.42 121H546.222V30.91H557.436L606.198 108.022H606.45V30.91H615.648V121H604.434L555.672 43.888H555.42V121ZM690.69 121H681.618V38.974H651V30.91H721.434V38.974H690.69V121ZM765.17 122.638C739.088 122.638 721.826 102.982 721.826 75.892C721.826 48.802 739.088 29.272 765.17 29.272C791.126 29.272 808.388 48.802 808.388 75.892C808.388 102.982 791.126 122.638 765.17 122.638ZM765.17 114.574C787.346 114.574 798.812 97.186 798.812 75.892C798.812 54.598 787.346 37.336 765.17 37.336C742.868 37.336 731.402 54.598 731.402 75.892C731.402 97.186 742.868 114.574 765.17 114.574ZM856.218 122.638C832.656 122.638 822.324 109.786 822.324 90.634V30.91H831.522V90.634C831.522 106.762 839.586 114.574 856.218 114.574C872.85 114.574 880.914 106.762 880.914 90.634V30.91H890.112V90.634C890.112 109.786 879.78 122.638 856.218 122.638ZM945.387 122.638C920.943 122.638 904.059 103.36 904.059 76.018C904.059 48.802 920.817 29.272 945.513 29.272C966.555 29.272 980.289 42.754 982.557 59.638H972.981C971.217 49.558 963.783 37.336 945.387 37.336C923.589 37.336 913.635 55.858 913.635 76.018C913.635 96.178 923.715 114.574 945.387 114.574C964.413 114.574 972.351 101.47 973.359 88.996H982.935C980.793 108.652 966.807 122.638 945.387 122.638ZM1005.65 121H996.45V30.91H1005.65V69.844H1056.68V30.91H1065.75V121H1056.68V77.908H1005.65V121Z"/>
</mask>
<path d="M328.574 57.622V58.622H329.776L329.558 57.4399L328.574 57.622ZM319.124 57.622L318.144 57.8199L318.306 58.622H319.124V57.622ZM320.888 82.948H321.888V81.948H320.888V82.948ZM291.026 82.948H290.026V83.948H291.026V82.948ZM291.026 74.758V73.758H290.026V74.758H291.026ZM330.086 74.758H331.086V73.758H330.086V74.758ZM330.086 121V122H331.086V121H330.086ZM323.786 121L322.801 121.171L322.945 122H323.786V121ZM321.014 104.998L322 104.827L321.856 103.998H321.014V104.998ZM320.762 104.998V103.998H320.163L319.881 104.526L320.762 104.998ZM290.396 121.638C277.439 121.638 267.556 116.806 260.895 108.755C254.214 100.679 250.698 89.2711 250.698 76.018H248.698C248.698 89.6029 252.301 101.505 259.354 110.03C266.427 118.579 276.894 123.638 290.396 123.638V121.638ZM250.698 76.018C250.698 62.8604 254.701 51.4199 261.777 43.2843C268.842 35.1617 279.022 30.272 291.53 30.272V28.272C278.461 28.272 267.724 33.3992 260.268 41.9717C252.823 50.5311 248.698 62.4636 248.698 76.018H250.698ZM291.53 30.272C302.127 30.272 310.364 33.0583 316.324 37.8478C322.282 42.6354 326.052 49.4947 327.591 57.8041L329.558 57.4399C327.946 48.7393 323.967 41.4236 317.577 36.2887C311.189 31.1557 302.48 28.272 291.53 28.272V30.272ZM328.574 56.622H319.124V58.622H328.574V56.622ZM320.104 57.4241C318.735 50.6424 315.328 45.3449 310.354 41.7542C305.391 38.1719 298.937 36.336 291.53 36.336V38.336C298.614 38.336 304.633 40.0911 309.183 43.3758C313.722 46.6521 316.867 51.4976 318.144 57.8199L320.104 57.4241ZM291.53 36.336C279.913 36.336 271.553 41.4834 266.131 49.0545C260.736 56.5884 258.274 66.478 258.274 76.018H260.274C260.274 66.784 262.663 57.3325 267.758 50.219C272.825 43.1426 280.594 38.336 291.53 38.336V36.336ZM258.274 76.018C258.274 85.5812 260.247 95.4398 265.263 102.939C270.316 110.494 278.409 115.574 290.396 115.574V113.574C279.074 113.574 271.606 108.826 266.925 101.828C262.208 94.7742 260.274 85.3548 260.274 76.018H258.274ZM290.396 115.574C299.402 115.574 307.289 112.298 312.924 106.548C318.559 100.799 321.888 92.6326 321.888 82.948H319.888C319.888 92.1634 316.728 99.81 311.496 105.149C306.263 110.487 298.904 113.574 290.396 113.574V115.574ZM320.888 81.948H291.026V83.948H320.888V81.948ZM292.026 82.948V74.758H290.026V82.948H292.026ZM291.026 75.758H330.086V73.758H291.026V75.758ZM329.086 74.758V121H331.086V74.758H329.086ZM330.086 120H323.786V122H330.086V120ZM324.772 120.829L322 104.827L320.029 105.169L322.801 121.171L324.772 120.829ZM321.014 103.998H320.762V105.998H321.014V103.998ZM319.881 104.526C317.111 109.697 313.473 113.962 308.689 116.938C303.909 119.912 297.924 121.638 290.396 121.638V123.638C298.241 123.638 304.604 121.836 309.746 118.636C314.885 115.438 318.744 110.883 321.644 105.47L319.881 104.526ZM408.397 121V122H409.397V121H408.397ZM345.901 121H344.901V122H345.901V121ZM345.901 30.91V29.91H344.901V30.91H345.901ZM407.011 30.91H408.011V29.91H407.011V30.91ZM407.011 38.974V39.974H408.011V38.974H407.011ZM355.099 38.974V37.974H354.099V38.974H355.099ZM355.099 69.97H354.099V70.97H355.099V69.97ZM401.467 69.97H402.467V68.97H401.467V69.97ZM401.467 78.034V79.034H402.467V78.034H401.467ZM355.099 78.034V77.034H354.099V78.034H355.099ZM355.099 112.936H354.099V113.936H355.099V112.936ZM408.397 112.936H409.397V111.936H408.397V112.936ZM408.397 120H345.901V122H408.397V120ZM346.901 121V30.91H344.901V121H346.901ZM345.901 31.91H407.011V29.91H345.901V31.91ZM406.011 30.91V38.974H408.011V30.91H406.011ZM407.011 37.974H355.099V39.974H407.011V37.974ZM354.099 38.974V69.97H356.099V38.974H354.099ZM355.099 70.97H401.467V68.97H355.099V70.97ZM400.467 69.97V78.034H402.467V69.97H400.467ZM401.467 77.034H355.099V79.034H401.467V77.034ZM354.099 78.034V112.936H356.099V78.034H354.099ZM355.099 113.936H408.397V111.936H355.099V113.936ZM407.397 112.936V121H409.397V112.936H407.397ZM451.979 121V122H452.979V121H451.979ZM442.907 121H441.907V122H442.907V121ZM442.907 38.974H443.907V37.974H442.907V38.974ZM412.289 38.974H411.289V39.974H412.289V38.974ZM412.289 30.91V29.91H411.289V30.91H412.289ZM482.723 30.91H483.723V29.91H482.723V30.91ZM482.723 38.974V39.974H483.723V38.974H482.723ZM451.979 38.974V37.974H450.979V38.974H451.979ZM451.979 120H442.907V122H451.979V120ZM443.907 121V38.974H441.907V121H443.907ZM442.907 37.974H412.289V39.974H442.907V37.974ZM413.289 38.974V30.91H411.289V38.974H413.289ZM412.289 31.91H482.723V29.91H412.289V31.91ZM481.723 30.91V38.974H483.723V30.91H481.723ZM482.723 37.974H451.979V39.974H482.723V37.974ZM450.979 38.974V121H452.979V38.974H450.979ZM527.119 121V122H528.119V121H527.119ZM517.921 121H516.921V122H517.921V121ZM517.921 30.91V29.91H516.921V30.91H517.921ZM527.119 30.91H528.119V29.91H527.119V30.91ZM527.119 120H517.921V122H527.119V120ZM518.921 121V30.91H516.921V121H518.921ZM517.921 31.91H527.119V29.91H517.921V31.91ZM526.119 30.91V121H528.119V30.91H526.119ZM555.419 121V122H556.419V121H555.419ZM546.221 121H545.221V122H546.221V121ZM546.221 30.91V29.91H545.221V30.91H546.221ZM557.435 30.91L558.281 30.3755L557.986 29.91H557.435V30.91ZM606.198 108.022L605.352 108.556L605.647 109.022H606.198V108.022ZM606.45 108.022V109.022H607.45V108.022H606.45ZM606.45 30.91V29.91H605.45V30.91H606.45ZM615.648 30.91H616.648V29.91H615.648V30.91ZM615.648 121V122H616.648V121H615.648ZM604.434 121L603.588 121.534L603.883 122H604.434V121ZM555.672 43.888L556.517 43.3535L556.222 42.888H555.672V43.888ZM555.419 43.888V42.888H554.419V43.888H555.419ZM555.419 120H546.221V122H555.419V120ZM547.221 121V30.91H545.221V121H547.221ZM546.221 31.91H557.435V29.91H546.221V31.91ZM556.59 31.4445L605.352 108.556L607.043 107.488L558.281 30.3755L556.59 31.4445ZM606.198 109.022H606.45V107.022H606.198V109.022ZM607.45 108.022V30.91H605.45V108.022H607.45ZM606.45 31.91H615.648V29.91H606.45V31.91ZM614.648 30.91V121H616.648V30.91H614.648ZM615.648 120H604.434V122H615.648V120ZM605.279 120.466L556.517 43.3535L554.826 44.4225L603.588 121.534L605.279 120.466ZM555.672 42.888H555.419V44.888H555.672V42.888ZM554.419 43.888V121H556.419V43.888H554.419ZM690.69 121V122H691.69V121H690.69ZM681.618 121H680.618V122H681.618V121ZM681.618 38.974H682.618V37.974H681.618V38.974ZM651 38.974H650V39.974H651V38.974ZM651 30.91V29.91H650V30.91H651ZM721.434 30.91H722.434V29.91H721.434V30.91ZM721.434 38.974V39.974H722.434V38.974H721.434ZM690.69 38.974V37.974H689.69V38.974H690.69ZM690.69 120H681.618V122H690.69V120ZM682.618 121V38.974H680.618V121H682.618ZM681.618 37.974H651V39.974H681.618V37.974ZM652 38.974V30.91H650V38.974H652ZM651 31.91H721.434V29.91H651V31.91ZM720.434 30.91V38.974H722.434V30.91H720.434ZM721.434 37.974H690.69V39.974H721.434V37.974ZM689.69 38.974V121H691.69V38.974H689.69ZM765.17 121.638C752.395 121.638 741.832 116.831 734.456 108.75C727.072 100.66 722.826 89.2256 722.826 75.892H720.826C720.826 89.6484 725.211 101.587 732.979 110.098C740.754 118.617 751.864 123.638 765.17 123.638V121.638ZM722.826 75.892C722.826 62.5586 727.072 51.1566 734.455 43.0988C741.83 35.0489 752.393 30.272 765.17 30.272V28.272C751.866 28.272 740.756 33.2601 732.98 41.7477C725.211 50.2274 720.826 62.1354 720.826 75.892H722.826ZM765.17 30.272C777.883 30.272 788.414 35.0479 795.775 43.098C803.142 51.1561 807.388 62.5586 807.388 75.892H809.388C809.388 62.1354 805.003 50.2279 797.251 41.7485C789.491 33.2611 778.413 28.272 765.17 28.272V30.272ZM807.388 75.892C807.388 89.2256 803.142 100.66 795.773 108.75C788.412 116.832 777.881 121.638 765.17 121.638V123.638C778.415 123.638 789.493 118.616 797.252 110.097C805.003 101.587 809.388 89.6484 809.388 75.892H807.388ZM765.17 115.574C776.548 115.574 785.25 111.1 791.086 103.845C796.902 96.6166 799.812 86.7064 799.812 75.892H797.812C797.812 86.3716 794.99 95.8024 789.528 102.591C784.087 109.354 775.969 113.574 765.17 113.574V115.574ZM799.812 75.892C799.812 65.0774 796.901 55.1978 791.085 48.0002C785.247 40.7766 776.545 36.336 765.17 36.336V38.336C775.971 38.336 784.09 42.5264 789.529 49.2573C794.99 56.0142 797.812 65.4126 797.812 75.892H799.812ZM765.17 36.336C753.734 36.336 745 40.7751 739.146 47.9991C733.313 55.1971 730.402 65.0774 730.402 75.892H732.402C732.402 65.4126 735.224 56.0149 740.7 49.2584C746.154 42.5279 754.304 38.336 765.17 38.336V36.336ZM730.402 75.892C730.402 86.7064 733.313 96.6172 739.145 103.846C744.998 111.101 753.731 115.574 765.17 115.574V113.574C754.307 113.574 746.157 109.353 740.701 102.59C735.225 95.8018 732.402 86.3716 732.402 75.892H730.402ZM822.324 30.91V29.91H821.324V30.91H822.324ZM831.522 30.91H832.522V29.91H831.522V30.91ZM880.914 30.91V29.91H879.914V30.91H880.914ZM890.112 30.91H891.112V29.91H890.112V30.91ZM856.218 121.638C844.614 121.638 836.432 118.476 831.147 113.116C825.859 107.752 823.324 100.038 823.324 90.634H821.324C821.324 100.382 823.955 108.67 829.723 114.52C835.494 120.374 844.26 123.638 856.218 123.638V121.638ZM823.324 90.634V30.91H821.324V90.634H823.324ZM822.324 31.91H831.522V29.91H822.324V31.91ZM830.522 30.91V90.634H832.522V30.91H830.522ZM830.522 90.634C830.522 98.8521 832.577 105.145 836.937 109.37C841.29 113.59 847.763 115.574 856.218 115.574V113.574C848.041 113.574 842.165 111.652 838.329 107.934C834.498 104.221 832.522 98.5438 832.522 90.634H830.522ZM856.218 115.574C864.673 115.574 871.146 113.59 875.499 109.37C879.858 105.145 881.914 98.8521 881.914 90.634H879.914C879.914 98.5438 877.937 104.221 874.107 107.934C870.27 111.652 864.395 113.574 856.218 113.574V115.574ZM881.914 90.634V30.91H879.914V90.634H881.914ZM880.914 31.91H890.112V29.91H880.914V31.91ZM889.112 30.91V90.634H891.112V30.91H889.112ZM889.112 90.634C889.112 100.038 886.577 107.752 881.289 113.116C876.003 118.476 867.822 121.638 856.218 121.638V123.638C868.176 123.638 876.941 120.374 882.713 114.52C888.481 108.67 891.112 100.382 891.112 90.634H889.112ZM982.557 59.638V60.638H983.7L983.548 59.5049L982.557 59.638ZM972.981 59.638L971.996 59.8104L972.14 60.638H972.981V59.638ZM973.359 88.996V87.996H972.436L972.362 88.9155L973.359 88.996ZM982.935 88.996L983.929 89.1043L984.049 87.996H982.935V88.996ZM945.387 121.638C933.444 121.638 923.388 116.936 916.306 108.919C909.215 100.893 905.059 89.4854 905.059 76.018H903.059C903.059 89.8926 907.344 101.795 914.807 110.243C922.278 118.701 932.885 123.638 945.387 123.638V121.638ZM905.059 76.018C905.059 62.6125 909.184 51.1727 916.276 43.0989C923.358 35.0354 933.446 30.272 945.513 30.272V28.272C932.883 28.272 922.244 33.2736 914.773 41.7791C907.312 50.2743 903.059 62.2075 903.059 76.018H905.059ZM945.513 30.272C966.065 30.272 979.366 43.3946 981.565 59.7711L983.548 59.5049C981.211 42.1134 967.044 28.272 945.513 28.272V30.272ZM982.557 58.638H972.981V60.638H982.557V58.638ZM973.966 59.4656C973.057 54.2712 970.682 48.4887 966.122 43.9948C961.543 39.4808 954.827 36.336 945.387 36.336V38.336C954.343 38.336 960.541 41.3022 964.719 45.4192C968.916 49.5563 971.141 54.9248 971.996 59.8104L973.966 59.4656ZM945.387 36.336C934.163 36.336 925.927 41.1236 920.528 48.5279C915.157 55.8952 912.635 65.7909 912.635 76.018H914.635C914.635 66.0851 917.089 56.6398 922.144 49.7061C927.173 42.8094 934.812 38.336 945.387 38.336V36.336ZM912.635 76.018C912.635 86.2477 915.19 96.1126 920.578 103.448C925.992 110.819 934.227 115.574 945.387 115.574V113.574C934.874 113.574 927.233 109.131 922.19 102.264C917.119 95.3614 914.635 85.9483 914.635 76.018H912.635ZM945.387 115.574C955.15 115.574 962.166 112.201 966.862 107.143C971.537 102.107 973.838 95.483 974.355 89.0765L972.362 88.9155C971.872 94.983 969.699 101.148 965.396 105.782C961.115 110.395 954.649 113.574 945.387 113.574V115.574ZM973.359 89.996H982.935V87.996H973.359V89.996ZM981.94 88.8877C980.892 98.5062 976.954 106.684 970.711 112.454C964.472 118.22 955.87 121.638 945.387 121.638V123.638C956.323 123.638 965.424 120.063 972.069 113.922C978.709 107.785 982.835 99.1418 983.929 89.1043L981.94 88.8877ZM1005.65 121V122H1006.65V121H1005.65ZM996.45 121H995.45V122H996.45V121ZM996.45 30.91V29.91H995.45V30.91H996.45ZM1005.65 30.91H1006.65V29.91H1005.65V30.91ZM1005.65 69.844H1004.65V70.844H1005.65V69.844ZM1056.68 69.844V70.844H1057.68V69.844H1056.68ZM1056.68 30.91V29.91H1055.68V30.91H1056.68ZM1065.75 30.91H1066.75V29.91H1065.75V30.91ZM1065.75 121V122H1066.75V121H1065.75ZM1056.68 121H1055.68V122H1056.68V121ZM1056.68 77.908H1057.68V76.908H1056.68V77.908ZM1005.65 77.908V76.908H1004.65V77.908H1005.65ZM1005.65 120H996.45V122H1005.65V120ZM997.45 121V30.91H995.45V121H997.45ZM996.45 31.91H1005.65V29.91H996.45V31.91ZM1004.65 30.91V69.844H1006.65V30.91H1004.65ZM1005.65 70.844H1056.68V68.844H1005.65V70.844ZM1057.68 69.844V30.91H1055.68V69.844H1057.68ZM1056.68 31.91H1065.75V29.91H1056.68V31.91ZM1064.75 30.91V121H1066.75V30.91H1064.75ZM1065.75 120H1056.68V122H1065.75V120ZM1057.68 121V77.908H1055.68V121H1057.68ZM1056.68 76.908H1005.65V78.908H1056.68V76.908ZM1004.65 77.908V121H1006.65V77.908H1004.65Z" fill="#E9E9E9" mask="url(#path-1-outside-1_42_1717)"/>
<mask id="path-3-outside-2_42_1717" maskUnits="userSpaceOnUse" x="248" y="156" width="819" height="96" fill="black">
<rect fill="white" x="248" y="156" width="819" height="96"/>
<path d="M290.396 250.638C263.936 250.638 249.698 230.856 249.698 204.018C249.698 177.306 265.952 157.272 291.53 157.272C313.076 157.272 325.424 168.612 328.574 185.622H319.124C316.478 172.518 306.02 165.336 291.53 165.336C268.976 165.336 259.274 185.244 259.274 204.018C259.274 222.918 267.086 242.574 290.396 242.574C307.91 242.574 320.888 229.848 320.888 210.948H291.026V202.758H330.086V249H323.786L321.014 232.998H320.762C315.092 243.582 305.768 250.638 290.396 250.638ZM408.397 249H345.901V158.91H407.011V166.974H355.099V197.97H401.467V206.034H355.099V240.936H408.397V249ZM451.979 249H442.907V166.974H412.289V158.91H482.723V166.974H451.979V249ZM527.119 249H517.921V158.91H527.119V249ZM555.42 249H546.222V158.91H557.436L606.198 236.022H606.45V158.91H615.648V249H604.434L555.672 171.888H555.42V249ZM690.69 249H681.618V166.974H651V158.91H721.434V166.974H690.69V249ZM765.17 250.638C739.088 250.638 721.826 230.982 721.826 203.892C721.826 176.802 739.088 157.272 765.17 157.272C791.126 157.272 808.388 176.802 808.388 203.892C808.388 230.982 791.126 250.638 765.17 250.638ZM765.17 242.574C787.346 242.574 798.812 225.186 798.812 203.892C798.812 182.598 787.346 165.336 765.17 165.336C742.868 165.336 731.402 182.598 731.402 203.892C731.402 225.186 742.868 242.574 765.17 242.574ZM856.218 250.638C832.656 250.638 822.324 237.786 822.324 218.634V158.91H831.522V218.634C831.522 234.762 839.586 242.574 856.218 242.574C872.85 242.574 880.914 234.762 880.914 218.634V158.91H890.112V218.634C890.112 237.786 879.78 250.638 856.218 250.638ZM945.387 250.638C920.943 250.638 904.059 231.36 904.059 204.018C904.059 176.802 920.817 157.272 945.513 157.272C966.555 157.272 980.289 170.754 982.557 187.638H972.981C971.217 177.558 963.783 165.336 945.387 165.336C923.589 165.336 913.635 183.858 913.635 204.018C913.635 224.178 923.715 242.574 945.387 242.574C964.413 242.574 972.351 229.47 973.359 216.996H982.935C980.793 236.652 966.807 250.638 945.387 250.638ZM1005.65 249H996.45V158.91H1005.65V197.844H1056.68V158.91H1065.75V249H1056.68V205.908H1005.65V249Z"/>
</mask>
<path d="M328.574 185.622V186.622H329.776L329.558 185.44L328.574 185.622ZM319.124 185.622L318.144 185.82L318.306 186.622H319.124V185.622ZM320.888 210.948H321.888V209.948H320.888V210.948ZM291.026 210.948H290.026V211.948H291.026V210.948ZM291.026 202.758V201.758H290.026V202.758H291.026ZM330.086 202.758H331.086V201.758H330.086V202.758ZM330.086 249V250H331.086V249H330.086ZM323.786 249L322.801 249.171L322.945 250H323.786V249ZM321.014 232.998L322 232.827L321.856 231.998H321.014V232.998ZM320.762 232.998V231.998H320.163L319.881 232.526L320.762 232.998ZM290.396 249.638C277.439 249.638 267.556 244.806 260.895 236.755C254.214 228.679 250.698 217.271 250.698 204.018H248.698C248.698 217.603 252.301 229.505 259.354 238.03C266.427 246.579 276.894 251.638 290.396 251.638V249.638ZM250.698 204.018C250.698 190.86 254.701 179.42 261.777 171.284C268.842 163.162 279.022 158.272 291.53 158.272V156.272C278.461 156.272 267.724 161.399 260.268 169.972C252.823 178.531 248.698 190.464 248.698 204.018H250.698ZM291.53 158.272C302.127 158.272 310.364 161.058 316.324 165.848C322.282 170.635 326.052 177.495 327.591 185.804L329.558 185.44C327.946 176.739 323.967 169.424 317.577 164.289C311.189 159.156 302.48 156.272 291.53 156.272V158.272ZM328.574 184.622H319.124V186.622H328.574V184.622ZM320.104 185.424C318.735 178.642 315.328 173.345 310.354 169.754C305.391 166.172 298.937 164.336 291.53 164.336V166.336C298.614 166.336 304.633 168.091 309.183 171.376C313.722 174.652 316.867 179.498 318.144 185.82L320.104 185.424ZM291.53 164.336C279.913 164.336 271.553 169.483 266.131 177.055C260.736 184.588 258.274 194.478 258.274 204.018H260.274C260.274 194.784 262.663 185.333 267.758 178.219C272.825 171.143 280.594 166.336 291.53 166.336V164.336ZM258.274 204.018C258.274 213.581 260.247 223.44 265.263 230.939C270.316 238.494 278.409 243.574 290.396 243.574V241.574C279.074 241.574 271.606 236.826 266.925 229.828C262.208 222.774 260.274 213.355 260.274 204.018H258.274ZM290.396 243.574C299.402 243.574 307.289 240.298 312.924 234.548C318.559 228.799 321.888 220.633 321.888 210.948H319.888C319.888 220.163 316.728 227.81 311.496 233.149C306.263 238.487 298.904 241.574 290.396 241.574V243.574ZM320.888 209.948H291.026V211.948H320.888V209.948ZM292.026 210.948V202.758H290.026V210.948H292.026ZM291.026 203.758H330.086V201.758H291.026V203.758ZM329.086 202.758V249H331.086V202.758H329.086ZM330.086 248H323.786V250H330.086V248ZM324.772 248.829L322 232.827L320.029 233.169L322.801 249.171L324.772 248.829ZM321.014 231.998H320.762V233.998H321.014V231.998ZM319.881 232.526C317.111 237.697 313.473 241.962 308.689 244.938C303.909 247.912 297.924 249.638 290.396 249.638V251.638C298.241 251.638 304.604 249.836 309.746 246.636C314.885 243.438 318.744 238.883 321.644 233.47L319.881 232.526ZM408.397 249V250H409.397V249H408.397ZM345.901 249H344.901V250H345.901V249ZM345.901 158.91V157.91H344.901V158.91H345.901ZM407.011 158.91H408.011V157.91H407.011V158.91ZM407.011 166.974V167.974H408.011V166.974H407.011ZM355.099 166.974V165.974H354.099V166.974H355.099ZM355.099 197.97H354.099V198.97H355.099V197.97ZM401.467 197.97H402.467V196.97H401.467V197.97ZM401.467 206.034V207.034H402.467V206.034H401.467ZM355.099 206.034V205.034H354.099V206.034H355.099ZM355.099 240.936H354.099V241.936H355.099V240.936ZM408.397 240.936H409.397V239.936H408.397V240.936ZM408.397 248H345.901V250H408.397V248ZM346.901 249V158.91H344.901V249H346.901ZM345.901 159.91H407.011V157.91H345.901V159.91ZM406.011 158.91V166.974H408.011V158.91H406.011ZM407.011 165.974H355.099V167.974H407.011V165.974ZM354.099 166.974V197.97H356.099V166.974H354.099ZM355.099 198.97H401.467V196.97H355.099V198.97ZM400.467 197.97V206.034H402.467V197.97H400.467ZM401.467 205.034H355.099V207.034H401.467V205.034ZM354.099 206.034V240.936H356.099V206.034H354.099ZM355.099 241.936H408.397V239.936H355.099V241.936ZM407.397 240.936V249H409.397V240.936H407.397ZM451.979 249V250H452.979V249H451.979ZM442.907 249H441.907V250H442.907V249ZM442.907 166.974H443.907V165.974H442.907V166.974ZM412.289 166.974H411.289V167.974H412.289V166.974ZM412.289 158.91V157.91H411.289V158.91H412.289ZM482.723 158.91H483.723V157.91H482.723V158.91ZM482.723 166.974V167.974H483.723V166.974H482.723ZM451.979 166.974V165.974H450.979V166.974H451.979ZM451.979 248H442.907V250H451.979V248ZM443.907 249V166.974H441.907V249H443.907ZM442.907 165.974H412.289V167.974H442.907V165.974ZM413.289 166.974V158.91H411.289V166.974H413.289ZM412.289 159.91H482.723V157.91H412.289V159.91ZM481.723 158.91V166.974H483.723V158.91H481.723ZM482.723 165.974H451.979V167.974H482.723V165.974ZM450.979 166.974V249H452.979V166.974H450.979ZM527.119 249V250H528.119V249H527.119ZM517.921 249H516.921V250H517.921V249ZM517.921 158.91V157.91H516.921V158.91H517.921ZM527.119 158.91H528.119V157.91H527.119V158.91ZM527.119 248H517.921V250H527.119V248ZM518.921 249V158.91H516.921V249H518.921ZM517.921 159.91H527.119V157.91H517.921V159.91ZM526.119 158.91V249H528.119V158.91H526.119ZM555.419 249V250H556.419V249H555.419ZM546.221 249H545.221V250H546.221V249ZM546.221 158.91V157.91H545.221V158.91H546.221ZM557.435 158.91L558.281 158.376L557.986 157.91H557.435V158.91ZM606.198 236.022L605.352 236.556L605.647 237.022H606.198V236.022ZM606.45 236.022V237.022H607.45V236.022H606.45ZM606.45 158.91V157.91H605.45V158.91H606.45ZM615.648 158.91H616.648V157.91H615.648V158.91ZM615.648 249V250H616.648V249H615.648ZM604.434 249L603.588 249.534L603.883 250H604.434V249ZM555.672 171.888L556.517 171.354L556.222 170.888H555.672V171.888ZM555.419 171.888V170.888H554.419V171.888H555.419ZM555.419 248H546.221V250H555.419V248ZM547.221 249V158.91H545.221V249H547.221ZM546.221 159.91H557.435V157.91H546.221V159.91ZM556.59 159.444L605.352 236.556L607.043 235.488L558.281 158.376L556.59 159.444ZM606.198 237.022H606.45V235.022H606.198V237.022ZM607.45 236.022V158.91H605.45V236.022H607.45ZM606.45 159.91H615.648V157.91H606.45V159.91ZM614.648 158.91V249H616.648V158.91H614.648ZM615.648 248H604.434V250H615.648V248ZM605.279 248.466L556.517 171.354L554.826 172.422L603.588 249.534L605.279 248.466ZM555.672 170.888H555.419V172.888H555.672V170.888ZM554.419 171.888V249H556.419V171.888H554.419ZM690.69 249V250H691.69V249H690.69ZM681.618 249H680.618V250H681.618V249ZM681.618 166.974H682.618V165.974H681.618V166.974ZM651 166.974H650V167.974H651V166.974ZM651 158.91V157.91H650V158.91H651ZM721.434 158.91H722.434V157.91H721.434V158.91ZM721.434 166.974V167.974H722.434V166.974H721.434ZM690.69 166.974V165.974H689.69V166.974H690.69ZM690.69 248H681.618V250H690.69V248ZM682.618 249V166.974H680.618V249H682.618ZM681.618 165.974H651V167.974H681.618V165.974ZM652 166.974V158.91H650V166.974H652ZM651 159.91H721.434V157.91H651V159.91ZM720.434 158.91V166.974H722.434V158.91H720.434ZM721.434 165.974H690.69V167.974H721.434V165.974ZM689.69 166.974V249H691.69V166.974H689.69ZM765.17 249.638C752.395 249.638 741.832 244.831 734.456 236.75C727.072 228.66 722.826 217.226 722.826 203.892H720.826C720.826 217.648 725.211 229.587 732.979 238.098C740.754 246.617 751.864 251.638 765.17 251.638V249.638ZM722.826 203.892C722.826 190.559 727.072 179.157 734.455 171.099C741.83 163.049 752.393 158.272 765.17 158.272V156.272C751.866 156.272 740.756 161.26 732.98 169.748C725.211 178.227 720.826 190.135 720.826 203.892H722.826ZM765.17 158.272C777.883 158.272 788.414 163.048 795.775 171.098C803.142 179.156 807.388 190.559 807.388 203.892H809.388C809.388 190.135 805.003 178.228 797.251 169.748C789.491 161.261 778.413 156.272 765.17 156.272V158.272ZM807.388 203.892C807.388 217.226 803.142 228.66 795.773 236.75C788.412 244.832 777.881 249.638 765.17 249.638V251.638C778.415 251.638 789.493 246.616 797.252 238.097C805.003 229.587 809.388 217.648 809.388 203.892H807.388ZM765.17 243.574C776.548 243.574 785.25 239.1 791.086 231.845C796.902 224.617 799.812 214.706 799.812 203.892H797.812C797.812 214.372 794.99 223.802 789.528 230.591C784.087 237.354 775.969 241.574 765.17 241.574V243.574ZM799.812 203.892C799.812 193.077 796.901 183.198 791.085 176C785.247 168.777 776.545 164.336 765.17 164.336V166.336C775.971 166.336 784.09 170.526 789.529 177.257C794.99 184.014 797.812 193.413 797.812 203.892H799.812ZM765.17 164.336C753.734 164.336 745 168.775 739.146 175.999C733.313 183.197 730.402 193.077 730.402 203.892H732.402C732.402 193.413 735.224 184.015 740.7 177.258C746.154 170.528 754.304 166.336 765.17 166.336V164.336ZM730.402 203.892C730.402 214.706 733.313 224.617 739.145 231.846C744.998 239.101 753.731 243.574 765.17 243.574V241.574C754.307 241.574 746.157 237.353 740.701 230.59C735.225 223.802 732.402 214.372 732.402 203.892H730.402ZM822.324 158.91V157.91H821.324V158.91H822.324ZM831.522 158.91H832.522V157.91H831.522V158.91ZM880.914 158.91V157.91H879.914V158.91H880.914ZM890.112 158.91H891.112V157.91H890.112V158.91ZM856.218 249.638C844.614 249.638 836.432 246.476 831.147 241.116C825.859 235.752 823.324 228.038 823.324 218.634H821.324C821.324 228.382 823.955 236.67 829.723 242.52C835.494 248.374 844.26 251.638 856.218 251.638V249.638ZM823.324 218.634V158.91H821.324V218.634H823.324ZM822.324 159.91H831.522V157.91H822.324V159.91ZM830.522 158.91V218.634H832.522V158.91H830.522ZM830.522 218.634C830.522 226.852 832.577 233.145 836.937 237.37C841.29 241.59 847.763 243.574 856.218 243.574V241.574C848.041 241.574 842.165 239.652 838.329 235.934C834.498 232.221 832.522 226.544 832.522 218.634H830.522ZM856.218 243.574C864.673 243.574 871.146 241.59 875.499 237.37C879.858 233.145 881.914 226.852 881.914 218.634H879.914C879.914 226.544 877.937 232.221 874.107 235.934C870.27 239.652 864.395 241.574 856.218 241.574V243.574ZM881.914 218.634V158.91H879.914V218.634H881.914ZM880.914 159.91H890.112V157.91H880.914V159.91ZM889.112 158.91V218.634H891.112V158.91H889.112ZM889.112 218.634C889.112 228.038 886.577 235.752 881.289 241.116C876.003 246.476 867.822 249.638 856.218 249.638V251.638C868.176 251.638 876.941 248.374 882.713 242.52C888.481 236.67 891.112 228.382 891.112 218.634H889.112ZM982.557 187.638V188.638H983.7L983.548 187.505L982.557 187.638ZM972.981 187.638L971.996 187.81L972.14 188.638H972.981V187.638ZM973.359 216.996V215.996H972.436L972.362 216.915L973.359 216.996ZM982.935 216.996L983.929 217.104L984.049 215.996H982.935V216.996ZM945.387 249.638C933.444 249.638 923.388 244.936 916.306 236.919C909.215 228.893 905.059 217.485 905.059 204.018H903.059C903.059 217.893 907.344 229.795 914.807 238.243C922.278 246.701 932.885 251.638 945.387 251.638V249.638ZM905.059 204.018C905.059 190.612 909.184 179.173 916.276 171.099C923.358 163.035 933.446 158.272 945.513 158.272V156.272C932.883 156.272 922.244 161.274 914.773 169.779C907.312 178.274 903.059 190.208 903.059 204.018H905.059ZM945.513 158.272C966.065 158.272 979.366 171.395 981.565 187.771L983.548 187.505C981.211 170.113 967.044 156.272 945.513 156.272V158.272ZM982.557 186.638H972.981V188.638H982.557V186.638ZM973.966 187.466C973.057 182.271 970.682 176.489 966.122 171.995C961.543 167.481 954.827 164.336 945.387 164.336V166.336C954.343 166.336 960.541 169.302 964.719 173.419C968.916 177.556 971.141 182.925 971.996 187.81L973.966 187.466ZM945.387 164.336C934.163 164.336 925.927 169.124 920.528 176.528C915.157 183.895 912.635 193.791 912.635 204.018H914.635C914.635 194.085 917.089 184.64 922.144 177.706C927.173 170.809 934.812 166.336 945.387 166.336V164.336ZM912.635 204.018C912.635 214.248 915.19 224.113 920.578 231.448C925.992 238.819 934.227 243.574 945.387 243.574V241.574C934.874 241.574 927.233 237.131 922.19 230.264C917.119 223.361 914.635 213.948 914.635 204.018H912.635ZM945.387 243.574C955.15 243.574 962.166 240.201 966.862 235.143C971.537 230.107 973.838 223.483 974.355 217.077L972.362 216.915C971.872 222.983 969.699 229.148 965.396 233.782C961.115 238.395 954.649 241.574 945.387 241.574V243.574ZM973.359 217.996H982.935V215.996H973.359V217.996ZM981.94 216.888C980.892 226.506 976.954 234.684 970.711 240.454C964.472 246.22 955.87 249.638 945.387 249.638V251.638C956.323 251.638 965.424 248.063 972.069 241.922C978.709 235.785 982.835 227.142 983.929 217.104L981.94 216.888ZM1005.65 249V250H1006.65V249H1005.65ZM996.45 249H995.45V250H996.45V249ZM996.45 158.91V157.91H995.45V158.91H996.45ZM1005.65 158.91H1006.65V157.91H1005.65V158.91ZM1005.65 197.844H1004.65V198.844H1005.65V197.844ZM1056.68 197.844V198.844H1057.68V197.844H1056.68ZM1056.68 158.91V157.91H1055.68V158.91H1056.68ZM1065.75 158.91H1066.75V157.91H1065.75V158.91ZM1065.75 249V250H1066.75V249H1065.75ZM1056.68 249H1055.68V250H1056.68V249ZM1056.68 205.908H1057.68V204.908H1056.68V205.908ZM1005.65 205.908V204.908H1004.65V205.908H1005.65ZM1005.65 248H996.45V250H1005.65V248ZM997.45 249V158.91H995.45V249H997.45ZM996.45 159.91H1005.65V157.91H996.45V159.91ZM1004.65 158.91V197.844H1006.65V158.91H1004.65ZM1005.65 198.844H1056.68V196.844H1005.65V198.844ZM1057.68 197.844V158.91H1055.68V197.844H1057.68ZM1056.68 159.91H1065.75V157.91H1056.68V159.91ZM1064.75 158.91V249H1066.75V158.91H1064.75ZM1065.75 248H1056.68V250H1065.75V248ZM1057.68 249V205.908H1055.68V249H1057.68ZM1056.68 204.908H1005.65V206.908H1056.68V204.908ZM1004.65 205.908V249H1006.65V205.908H1004.65Z" fill="#E9E9E9" mask="url(#path-3-outside-2_42_1717)"/>
<mask id="path-5-outside-3_42_1717" maskUnits="userSpaceOnUse" x="248" y="284" width="819" height="96" fill="black">
<rect fill="white" x="248" y="284" width="819" height="96"/>
<path d="M290.396 378.638C263.936 378.638 249.698 358.856 249.698 332.018C249.698 305.306 265.952 285.272 291.53 285.272C313.076 285.272 325.424 296.612 328.574 313.622H319.124C316.478 300.518 306.02 293.336 291.53 293.336C268.976 293.336 259.274 313.244 259.274 332.018C259.274 350.918 267.086 370.574 290.396 370.574C307.91 370.574 320.888 357.848 320.888 338.948H291.026V330.758H330.086V377H323.786L321.014 360.998H320.762C315.092 371.582 305.768 378.638 290.396 378.638ZM408.397 377H345.901V286.91H407.011V294.974H355.099V325.97H401.467V334.034H355.099V368.936H408.397V377ZM451.979 377H442.907V294.974H412.289V286.91H482.723V294.974H451.979V377ZM527.119 377H517.921V286.91H527.119V377ZM555.42 377H546.222V286.91H557.436L606.198 364.022H606.45V286.91H615.648V377H604.434L555.672 299.888H555.42V377ZM690.69 377H681.618V294.974H651V286.91H721.434V294.974H690.69V377ZM765.17 378.638C739.088 378.638 721.826 358.982 721.826 331.892C721.826 304.802 739.088 285.272 765.17 285.272C791.126 285.272 808.388 304.802 808.388 331.892C808.388 358.982 791.126 378.638 765.17 378.638ZM765.17 370.574C787.346 370.574 798.812 353.186 798.812 331.892C798.812 310.598 787.346 293.336 765.17 293.336C742.868 293.336 731.402 310.598 731.402 331.892C731.402 353.186 742.868 370.574 765.17 370.574ZM856.218 378.638C832.656 378.638 822.324 365.786 822.324 346.634V286.91H831.522V346.634C831.522 362.762 839.586 370.574 856.218 370.574C872.85 370.574 880.914 362.762 880.914 346.634V286.91H890.112V346.634C890.112 365.786 879.78 378.638 856.218 378.638ZM945.387 378.638C920.943 378.638 904.059 359.36 904.059 332.018C904.059 304.802 920.817 285.272 945.513 285.272C966.555 285.272 980.289 298.754 982.557 315.638H972.981C971.217 305.558 963.783 293.336 945.387 293.336C923.589 293.336 913.635 311.858 913.635 332.018C913.635 352.178 923.715 370.574 945.387 370.574C964.413 370.574 972.351 357.47 973.359 344.996H982.935C980.793 364.652 966.807 378.638 945.387 378.638ZM1005.65 377H996.45V286.91H1005.65V325.844H1056.68V286.91H1065.75V377H1056.68V333.908H1005.65V377Z"/>
</mask>
<path d="M328.574 313.622V314.622H329.776L329.558 313.44L328.574 313.622ZM319.124 313.622L318.144 313.82L318.306 314.622H319.124V313.622ZM320.888 338.948H321.888V337.948H320.888V338.948ZM291.026 338.948H290.026V339.948H291.026V338.948ZM291.026 330.758V329.758H290.026V330.758H291.026ZM330.086 330.758H331.086V329.758H330.086V330.758ZM330.086 377V378H331.086V377H330.086ZM323.786 377L322.801 377.171L322.945 378H323.786V377ZM321.014 360.998L322 360.827L321.856 359.998H321.014V360.998ZM320.762 360.998V359.998H320.163L319.881 360.526L320.762 360.998ZM290.396 377.638C277.439 377.638 267.556 372.806 260.895 364.755C254.214 356.679 250.698 345.271 250.698 332.018H248.698C248.698 345.603 252.301 357.505 259.354 366.03C266.427 374.579 276.894 379.638 290.396 379.638V377.638ZM250.698 332.018C250.698 318.86 254.701 307.42 261.777 299.284C268.842 291.162 279.022 286.272 291.53 286.272V284.272C278.461 284.272 267.724 289.399 260.268 297.972C252.823 306.531 248.698 318.464 248.698 332.018H250.698ZM291.53 286.272C302.127 286.272 310.364 289.058 316.324 293.848C322.282 298.635 326.052 305.495 327.591 313.804L329.558 313.44C327.946 304.739 323.967 297.424 317.577 292.289C311.189 287.156 302.48 284.272 291.53 284.272V286.272ZM328.574 312.622H319.124V314.622H328.574V312.622ZM320.104 313.424C318.735 306.642 315.328 301.345 310.354 297.754C305.391 294.172 298.937 292.336 291.53 292.336V294.336C298.614 294.336 304.633 296.091 309.183 299.376C313.722 302.652 316.867 307.498 318.144 313.82L320.104 313.424ZM291.53 292.336C279.913 292.336 271.553 297.483 266.131 305.055C260.736 312.588 258.274 322.478 258.274 332.018H260.274C260.274 322.784 262.663 313.333 267.758 306.219C272.825 299.143 280.594 294.336 291.53 294.336V292.336ZM258.274 332.018C258.274 341.581 260.247 351.44 265.263 358.939C270.316 366.494 278.409 371.574 290.396 371.574V369.574C279.074 369.574 271.606 364.826 266.925 357.828C262.208 350.774 260.274 341.355 260.274 332.018H258.274ZM290.396 371.574C299.402 371.574 307.289 368.298 312.924 362.548C318.559 356.799 321.888 348.633 321.888 338.948H319.888C319.888 348.163 316.728 355.81 311.496 361.149C306.263 366.487 298.904 369.574 290.396 369.574V371.574ZM320.888 337.948H291.026V339.948H320.888V337.948ZM292.026 338.948V330.758H290.026V338.948H292.026ZM291.026 331.758H330.086V329.758H291.026V331.758ZM329.086 330.758V377H331.086V330.758H329.086ZM330.086 376H323.786V378H330.086V376ZM324.772 376.829L322 360.827L320.029 361.169L322.801 377.171L324.772 376.829ZM321.014 359.998H320.762V361.998H321.014V359.998ZM319.881 360.526C317.111 365.697 313.473 369.962 308.689 372.938C303.909 375.912 297.924 377.638 290.396 377.638V379.638C298.241 379.638 304.604 377.836 309.746 374.636C314.885 371.438 318.744 366.883 321.644 361.47L319.881 360.526ZM408.397 377V378H409.397V377H408.397ZM345.901 377H344.901V378H345.901V377ZM345.901 286.91V285.91H344.901V286.91H345.901ZM407.011 286.91H408.011V285.91H407.011V286.91ZM407.011 294.974V295.974H408.011V294.974H407.011ZM355.099 294.974V293.974H354.099V294.974H355.099ZM355.099 325.97H354.099V326.97H355.099V325.97ZM401.467 325.97H402.467V324.97H401.467V325.97ZM401.467 334.034V335.034H402.467V334.034H401.467ZM355.099 334.034V333.034H354.099V334.034H355.099ZM355.099 368.936H354.099V369.936H355.099V368.936ZM408.397 368.936H409.397V367.936H408.397V368.936ZM408.397 376H345.901V378H408.397V376ZM346.901 377V286.91H344.901V377H346.901ZM345.901 287.91H407.011V285.91H345.901V287.91ZM406.011 286.91V294.974H408.011V286.91H406.011ZM407.011 293.974H355.099V295.974H407.011V293.974ZM354.099 294.974V325.97H356.099V294.974H354.099ZM355.099 326.97H401.467V324.97H355.099V326.97ZM400.467 325.97V334.034H402.467V325.97H400.467ZM401.467 333.034H355.099V335.034H401.467V333.034ZM354.099 334.034V368.936H356.099V334.034H354.099ZM355.099 369.936H408.397V367.936H355.099V369.936ZM407.397 368.936V377H409.397V368.936H407.397ZM451.979 377V378H452.979V377H451.979ZM442.907 377H441.907V378H442.907V377ZM442.907 294.974H443.907V293.974H442.907V294.974ZM412.289 294.974H411.289V295.974H412.289V294.974ZM412.289 286.91V285.91H411.289V286.91H412.289ZM482.723 286.91H483.723V285.91H482.723V286.91ZM482.723 294.974V295.974H483.723V294.974H482.723ZM451.979 294.974V293.974H450.979V294.974H451.979ZM451.979 376H442.907V378H451.979V376ZM443.907 377V294.974H441.907V377H443.907ZM442.907 293.974H412.289V295.974H442.907V293.974ZM413.289 294.974V286.91H411.289V294.974H413.289ZM412.289 287.91H482.723V285.91H412.289V287.91ZM481.723 286.91V294.974H483.723V286.91H481.723ZM482.723 293.974H451.979V295.974H482.723V293.974ZM450.979 294.974V377H452.979V294.974H450.979ZM527.119 377V378H528.119V377H527.119ZM517.921 377H516.921V378H517.921V377ZM517.921 286.91V285.91H516.921V286.91H517.921ZM527.119 286.91H528.119V285.91H527.119V286.91ZM527.119 376H517.921V378H527.119V376ZM518.921 377V286.91H516.921V377H518.921ZM517.921 287.91H527.119V285.91H517.921V287.91ZM526.119 286.91V377H528.119V286.91H526.119ZM555.419 377V378H556.419V377H555.419ZM546.221 377H545.221V378H546.221V377ZM546.221 286.91V285.91H545.221V286.91H546.221ZM557.435 286.91L558.281 286.376L557.986 285.91H557.435V286.91ZM606.198 364.022L605.352 364.556L605.647 365.022H606.198V364.022ZM606.45 364.022V365.022H607.45V364.022H606.45ZM606.45 286.91V285.91H605.45V286.91H606.45ZM615.648 286.91H616.648V285.91H615.648V286.91ZM615.648 377V378H616.648V377H615.648ZM604.434 377L603.588 377.534L603.883 378H604.434V377ZM555.672 299.888L556.517 299.354L556.222 298.888H555.672V299.888ZM555.419 299.888V298.888H554.419V299.888H555.419ZM555.419 376H546.221V378H555.419V376ZM547.221 377V286.91H545.221V377H547.221ZM546.221 287.91H557.435V285.91H546.221V287.91ZM556.59 287.444L605.352 364.556L607.043 363.488L558.281 286.376L556.59 287.444ZM606.198 365.022H606.45V363.022H606.198V365.022ZM607.45 364.022V286.91H605.45V364.022H607.45ZM606.45 287.91H615.648V285.91H606.45V287.91ZM614.648 286.91V377H616.648V286.91H614.648ZM615.648 376H604.434V378H615.648V376ZM605.279 376.466L556.517 299.354L554.826 300.422L603.588 377.534L605.279 376.466ZM555.672 298.888H555.419V300.888H555.672V298.888ZM554.419 299.888V377H556.419V299.888H554.419ZM690.69 377V378H691.69V377H690.69ZM681.618 377H680.618V378H681.618V377ZM681.618 294.974H682.618V293.974H681.618V294.974ZM651 294.974H650V295.974H651V294.974ZM651 286.91V285.91H650V286.91H651ZM721.434 286.91H722.434V285.91H721.434V286.91ZM721.434 294.974V295.974H722.434V294.974H721.434ZM690.69 294.974V293.974H689.69V294.974H690.69ZM690.69 376H681.618V378H690.69V376ZM682.618 377V294.974H680.618V377H682.618ZM681.618 293.974H651V295.974H681.618V293.974ZM652 294.974V286.91H650V294.974H652ZM651 287.91H721.434V285.91H651V287.91ZM720.434 286.91V294.974H722.434V286.91H720.434ZM721.434 293.974H690.69V295.974H721.434V293.974ZM689.69 294.974V377H691.69V294.974H689.69ZM765.17 377.638C752.395 377.638 741.832 372.831 734.456 364.75C727.072 356.66 722.826 345.226 722.826 331.892H720.826C720.826 345.648 725.211 357.587 732.979 366.098C740.754 374.617 751.864 379.638 765.17 379.638V377.638ZM722.826 331.892C722.826 318.559 727.072 307.157 734.455 299.099C741.83 291.049 752.393 286.272 765.17 286.272V284.272C751.866 284.272 740.756 289.26 732.98 297.748C725.211 306.227 720.826 318.135 720.826 331.892H722.826ZM765.17 286.272C777.883 286.272 788.414 291.048 795.775 299.098C803.142 307.156 807.388 318.559 807.388 331.892H809.388C809.388 318.135 805.003 306.228 797.251 297.748C789.491 289.261 778.413 284.272 765.17 284.272V286.272ZM807.388 331.892C807.388 345.226 803.142 356.66 795.773 364.75C788.412 372.832 777.881 377.638 765.17 377.638V379.638C778.415 379.638 789.493 374.616 797.252 366.097C805.003 357.587 809.388 345.648 809.388 331.892H807.388ZM765.17 371.574C776.548 371.574 785.25 367.1 791.086 359.845C796.902 352.617 799.812 342.706 799.812 331.892H797.812C797.812 342.372 794.99 351.802 789.528 358.591C784.087 365.354 775.969 369.574 765.17 369.574V371.574ZM799.812 331.892C799.812 321.077 796.901 311.198 791.085 304C785.247 296.777 776.545 292.336 765.17 292.336V294.336C775.971 294.336 784.09 298.526 789.529 305.257C794.99 312.014 797.812 321.413 797.812 331.892H799.812ZM765.17 292.336C753.734 292.336 745 296.775 739.146 303.999C733.313 311.197 730.402 321.077 730.402 331.892H732.402C732.402 321.413 735.224 312.015 740.7 305.258C746.154 298.528 754.304 294.336 765.17 294.336V292.336ZM730.402 331.892C730.402 342.706 733.313 352.617 739.145 359.846C744.998 367.101 753.731 371.574 765.17 371.574V369.574C754.307 369.574 746.157 365.353 740.701 358.59C735.225 351.802 732.402 342.372 732.402 331.892H730.402ZM822.324 286.91V285.91H821.324V286.91H822.324ZM831.522 286.91H832.522V285.91H831.522V286.91ZM880.914 286.91V285.91H879.914V286.91H880.914ZM890.112 286.91H891.112V285.91H890.112V286.91ZM856.218 377.638C844.614 377.638 836.432 374.476 831.147 369.116C825.859 363.752 823.324 356.038 823.324 346.634H821.324C821.324 356.382 823.955 364.67 829.723 370.52C835.494 376.374 844.26 379.638 856.218 379.638V377.638ZM823.324 346.634V286.91H821.324V346.634H823.324ZM822.324 287.91H831.522V285.91H822.324V287.91ZM830.522 286.91V346.634H832.522V286.91H830.522ZM830.522 346.634C830.522 354.852 832.577 361.145 836.937 365.37C841.29 369.59 847.763 371.574 856.218 371.574V369.574C848.041 369.574 842.165 367.652 838.329 363.934C834.498 360.221 832.522 354.544 832.522 346.634H830.522ZM856.218 371.574C864.673 371.574 871.146 369.59 875.499 365.37C879.858 361.145 881.914 354.852 881.914 346.634H879.914C879.914 354.544 877.937 360.221 874.107 363.934C870.27 367.652 864.395 369.574 856.218 369.574V371.574ZM881.914 346.634V286.91H879.914V346.634H881.914ZM880.914 287.91H890.112V285.91H880.914V287.91ZM889.112 286.91V346.634H891.112V286.91H889.112ZM889.112 346.634C889.112 356.038 886.577 363.752 881.289 369.116C876.003 374.476 867.822 377.638 856.218 377.638V379.638C868.176 379.638 876.941 376.374 882.713 370.52C888.481 364.67 891.112 356.382 891.112 346.634H889.112ZM982.557 315.638V316.638H983.7L983.548 315.505L982.557 315.638ZM972.981 315.638L971.996 315.81L972.14 316.638H972.981V315.638ZM973.359 344.996V343.996H972.436L972.362 344.915L973.359 344.996ZM982.935 344.996L983.929 345.104L984.049 343.996H982.935V344.996ZM945.387 377.638C933.444 377.638 923.388 372.936 916.306 364.919C909.215 356.893 905.059 345.485 905.059 332.018H903.059C903.059 345.893 907.344 357.795 914.807 366.243C922.278 374.701 932.885 379.638 945.387 379.638V377.638ZM905.059 332.018C905.059 318.612 909.184 307.173 916.276 299.099C923.358 291.035 933.446 286.272 945.513 286.272V284.272C932.883 284.272 922.244 289.274 914.773 297.779C907.312 306.274 903.059 318.208 903.059 332.018H905.059ZM945.513 286.272C966.065 286.272 979.366 299.395 981.565 315.771L983.548 315.505C981.211 298.113 967.044 284.272 945.513 284.272V286.272ZM982.557 314.638H972.981V316.638H982.557V314.638ZM973.966 315.466C973.057 310.271 970.682 304.489 966.122 299.995C961.543 295.481 954.827 292.336 945.387 292.336V294.336C954.343 294.336 960.541 297.302 964.719 301.419C968.916 305.556 971.141 310.925 971.996 315.81L973.966 315.466ZM945.387 292.336C934.163 292.336 925.927 297.124 920.528 304.528C915.157 311.895 912.635 321.791 912.635 332.018H914.635C914.635 322.085 917.089 312.64 922.144 305.706C927.173 298.809 934.812 294.336 945.387 294.336V292.336ZM912.635 332.018C912.635 342.248 915.19 352.113 920.578 359.448C925.992 366.819 934.227 371.574 945.387 371.574V369.574C934.874 369.574 927.233 365.131 922.19 358.264C917.119 351.361 914.635 341.948 914.635 332.018H912.635ZM945.387 371.574C955.15 371.574 962.166 368.201 966.862 363.143C971.537 358.107 973.838 351.483 974.355 345.077L972.362 344.915C971.872 350.983 969.699 357.148 965.396 361.782C961.115 366.395 954.649 369.574 945.387 369.574V371.574ZM973.359 345.996H982.935V343.996H973.359V345.996ZM981.94 344.888C980.892 354.506 976.954 362.684 970.711 368.454C964.472 374.22 955.87 377.638 945.387 377.638V379.638C956.323 379.638 965.424 376.063 972.069 369.922C978.709 363.785 982.835 355.142 983.929 345.104L981.94 344.888ZM1005.65 377V378H1006.65V377H1005.65ZM996.45 377H995.45V378H996.45V377ZM996.45 286.91V285.91H995.45V286.91H996.45ZM1005.65 286.91H1006.65V285.91H1005.65V286.91ZM1005.65 325.844H1004.65V326.844H1005.65V325.844ZM1056.68 325.844V326.844H1057.68V325.844H1056.68ZM1056.68 286.91V285.91H1055.68V286.91H1056.68ZM1065.75 286.91H1066.75V285.91H1065.75V286.91ZM1065.75 377V378H1066.75V377H1065.75ZM1056.68 377H1055.68V378H1056.68V377ZM1056.68 333.908H1057.68V332.908H1056.68V333.908ZM1005.65 333.908V332.908H1004.65V333.908H1005.65ZM1005.65 376H996.45V378H1005.65V376ZM997.45 377V286.91H995.45V377H997.45ZM996.45 287.91H1005.65V285.91H996.45V287.91ZM1004.65 286.91V325.844H1006.65V286.91H1004.65ZM1005.65 326.844H1056.68V324.844H1005.65V326.844ZM1057.68 325.844V286.91H1055.68V325.844H1057.68ZM1056.68 287.91H1065.75V285.91H1056.68V287.91ZM1064.75 286.91V377H1066.75V286.91H1064.75ZM1065.75 376H1056.68V378H1065.75V376ZM1057.68 377V333.908H1055.68V377H1057.68ZM1056.68 332.908H1005.65V334.908H1056.68V332.908ZM1004.65 333.908V377H1006.65V333.908H1004.65Z" fill="#E9E9E9" mask="url(#path-5-outside-3_42_1717)"/>
<path d="M352.928 506.638C326.468 506.638 312.23 486.856 312.23 460.018C312.23 433.306 328.484 413.272 354.062 413.272C375.608 413.272 387.956 424.612 391.106 441.622H381.656C379.01 428.518 368.552 421.336 354.062 421.336C331.508 421.336 321.806 441.244 321.806 460.018C321.806 478.918 329.618 498.574 352.928 498.574C370.442 498.574 383.42 485.848 383.42 466.948H353.558V458.758H392.618V505H386.318L383.546 488.998H383.294C377.624 499.582 368.3 506.638 352.928 506.638ZM470.929 505H408.433V414.91H469.543V422.974H417.631V453.97H463.999V462.034H417.631V496.936H470.929V505ZM514.512 505H505.44V422.974H474.822V414.91H545.256V422.974H514.512V505ZM589.651 505H580.453V414.91H589.651V505ZM617.952 505H608.754V414.91H619.968L668.73 492.022H668.982V414.91H678.18V505H666.966L618.204 427.888H617.952V505ZM753.223 505H744.151V422.974H713.533V414.91H783.967V422.974H753.223V505ZM827.702 506.638C801.62 506.638 784.358 486.982 784.358 459.892C784.358 432.802 801.62 413.272 827.702 413.272C853.658 413.272 870.92 432.802 870.92 459.892C870.92 486.982 853.658 506.638 827.702 506.638ZM827.702 498.574C849.878 498.574 861.344 481.186 861.344 459.892C861.344 438.598 849.878 421.336 827.702 421.336C805.4 421.336 793.934 438.598 793.934 459.892C793.934 481.186 805.4 498.574 827.702 498.574ZM918.75 506.638C895.188 506.638 884.856 493.786 884.856 474.634V414.91H894.054V474.634C894.054 490.762 902.118 498.574 918.75 498.574C935.382 498.574 943.446 490.762 943.446 474.634V414.91H952.644V474.634C952.644 493.786 942.312 506.638 918.75 506.638ZM1007.92 506.638C983.475 506.638 966.591 487.36 966.591 460.018C966.591 432.802 983.349 413.272 1008.04 413.272C1029.09 413.272 1042.82 426.754 1045.09 443.638H1035.51C1033.75 433.558 1026.31 421.336 1007.92 421.336C986.121 421.336 976.167 439.858 976.167 460.018C976.167 480.178 986.247 498.574 1007.92 498.574C1026.94 498.574 1034.88 485.47 1035.89 472.996H1045.47C1043.32 492.652 1029.34 506.638 1007.92 506.638ZM1068.18 505H1058.98V414.91H1068.18V453.844H1119.21V414.91H1128.28V505H1119.21V461.908H1068.18V505Z" fill="#E9E9E9"/>
<mask id="path-8-outside-4_42_1717" maskUnits="userSpaceOnUse" x="248" y="540" width="819" height="96" fill="black">
<rect fill="white" x="248" y="540" width="819" height="96"/>
<path d="M290.396 634.638C263.936 634.638 249.698 614.856 249.698 588.018C249.698 561.306 265.952 541.272 291.53 541.272C313.076 541.272 325.424 552.612 328.574 569.622H319.124C316.478 556.518 306.02 549.336 291.53 549.336C268.976 549.336 259.274 569.244 259.274 588.018C259.274 606.918 267.086 626.574 290.396 626.574C307.91 626.574 320.888 613.848 320.888 594.948H291.026V586.758H330.086V633H323.786L321.014 616.998H320.762C315.092 627.582 305.768 634.638 290.396 634.638ZM408.397 633H345.901V542.91H407.011V550.974H355.099V581.97H401.467V590.034H355.099V624.936H408.397V633ZM451.979 633H442.907V550.974H412.289V542.91H482.723V550.974H451.979V633ZM527.119 633H517.921V542.91H527.119V633ZM555.42 633H546.222V542.91H557.436L606.198 620.022H606.45V542.91H615.648V633H604.434L555.672 555.888H555.42V633ZM690.69 633H681.618V550.974H651V542.91H721.434V550.974H690.69V633ZM765.17 634.638C739.088 634.638 721.826 614.982 721.826 587.892C721.826 560.802 739.088 541.272 765.17 541.272C791.126 541.272 808.388 560.802 808.388 587.892C808.388 614.982 791.126 634.638 765.17 634.638ZM765.17 626.574C787.346 626.574 798.812 609.186 798.812 587.892C798.812 566.598 787.346 549.336 765.17 549.336C742.868 549.336 731.402 566.598 731.402 587.892C731.402 609.186 742.868 626.574 765.17 626.574ZM856.218 634.638C832.656 634.638 822.324 621.786 822.324 602.634V542.91H831.522V602.634C831.522 618.762 839.586 626.574 856.218 626.574C872.85 626.574 880.914 618.762 880.914 602.634V542.91H890.112V602.634C890.112 621.786 879.78 634.638 856.218 634.638ZM945.387 634.638C920.943 634.638 904.059 615.36 904.059 588.018C904.059 560.802 920.817 541.272 945.513 541.272C966.555 541.272 980.289 554.754 982.557 571.638H972.981C971.217 561.558 963.783 549.336 945.387 549.336C923.589 549.336 913.635 567.858 913.635 588.018C913.635 608.178 923.715 626.574 945.387 626.574C964.413 626.574 972.351 613.47 973.359 600.996H982.935C980.793 620.652 966.807 634.638 945.387 634.638ZM1005.65 633H996.45V542.91H1005.65V581.844H1056.68V542.91H1065.75V633H1056.68V589.908H1005.65V633Z"/>
</mask>
<path d="M328.574 569.622V570.622H329.776L329.558 569.44L328.574 569.622ZM319.124 569.622L318.144 569.82L318.306 570.622H319.124V569.622ZM320.888 594.948H321.888V593.948H320.888V594.948ZM291.026 594.948H290.026V595.948H291.026V594.948ZM291.026 586.758V585.758H290.026V586.758H291.026ZM330.086 586.758H331.086V585.758H330.086V586.758ZM330.086 633V634H331.086V633H330.086ZM323.786 633L322.801 633.171L322.945 634H323.786V633ZM321.014 616.998L322 616.827L321.856 615.998H321.014V616.998ZM320.762 616.998V615.998H320.163L319.881 616.526L320.762 616.998ZM290.396 633.638C277.439 633.638 267.556 628.806 260.895 620.755C254.214 612.679 250.698 601.271 250.698 588.018H248.698C248.698 601.603 252.301 613.505 259.354 622.03C266.427 630.579 276.894 635.638 290.396 635.638V633.638ZM250.698 588.018C250.698 574.86 254.701 563.42 261.777 555.284C268.842 547.162 279.022 542.272 291.53 542.272V540.272C278.461 540.272 267.724 545.399 260.268 553.972C252.823 562.531 248.698 574.464 248.698 588.018H250.698ZM291.53 542.272C302.127 542.272 310.364 545.058 316.324 549.848C322.282 554.635 326.052 561.495 327.591 569.804L329.558 569.44C327.946 560.739 323.967 553.424 317.577 548.289C311.189 543.156 302.48 540.272 291.53 540.272V542.272ZM328.574 568.622H319.124V570.622H328.574V568.622ZM320.104 569.424C318.735 562.642 315.328 557.345 310.354 553.754C305.391 550.172 298.937 548.336 291.53 548.336V550.336C298.614 550.336 304.633 552.091 309.183 555.376C313.722 558.652 316.867 563.498 318.144 569.82L320.104 569.424ZM291.53 548.336C279.913 548.336 271.553 553.483 266.131 561.055C260.736 568.588 258.274 578.478 258.274 588.018H260.274C260.274 578.784 262.663 569.333 267.758 562.219C272.825 555.143 280.594 550.336 291.53 550.336V548.336ZM258.274 588.018C258.274 597.581 260.247 607.44 265.263 614.939C270.316 622.494 278.409 627.574 290.396 627.574V625.574C279.074 625.574 271.606 620.826 266.925 613.828C262.208 606.774 260.274 597.355 260.274 588.018H258.274ZM290.396 627.574C299.402 627.574 307.289 624.298 312.924 618.548C318.559 612.799 321.888 604.633 321.888 594.948H319.888C319.888 604.163 316.728 611.81 311.496 617.149C306.263 622.487 298.904 625.574 290.396 625.574V627.574ZM320.888 593.948H291.026V595.948H320.888V593.948ZM292.026 594.948V586.758H290.026V594.948H292.026ZM291.026 587.758H330.086V585.758H291.026V587.758ZM329.086 586.758V633H331.086V586.758H329.086ZM330.086 632H323.786V634H330.086V632ZM324.772 632.829L322 616.827L320.029 617.169L322.801 633.171L324.772 632.829ZM321.014 615.998H320.762V617.998H321.014V615.998ZM319.881 616.526C317.111 621.697 313.473 625.962 308.689 628.938C303.909 631.912 297.924 633.638 290.396 633.638V635.638C298.241 635.638 304.604 633.836 309.746 630.636C314.885 627.438 318.744 622.883 321.644 617.47L319.881 616.526ZM408.397 633V634H409.397V633H408.397ZM345.901 633H344.901V634H345.901V633ZM345.901 542.91V541.91H344.901V542.91H345.901ZM407.011 542.91H408.011V541.91H407.011V542.91ZM407.011 550.974V551.974H408.011V550.974H407.011ZM355.099 550.974V549.974H354.099V550.974H355.099ZM355.099 581.97H354.099V582.97H355.099V581.97ZM401.467 581.97H402.467V580.97H401.467V581.97ZM401.467 590.034V591.034H402.467V590.034H401.467ZM355.099 590.034V589.034H354.099V590.034H355.099ZM355.099 624.936H354.099V625.936H355.099V624.936ZM408.397 624.936H409.397V623.936H408.397V624.936ZM408.397 632H345.901V634H408.397V632ZM346.901 633V542.91H344.901V633H346.901ZM345.901 543.91H407.011V541.91H345.901V543.91ZM406.011 542.91V550.974H408.011V542.91H406.011ZM407.011 549.974H355.099V551.974H407.011V549.974ZM354.099 550.974V581.97H356.099V550.974H354.099ZM355.099 582.97H401.467V580.97H355.099V582.97ZM400.467 581.97V590.034H402.467V581.97H400.467ZM401.467 589.034H355.099V591.034H401.467V589.034ZM354.099 590.034V624.936H356.099V590.034H354.099ZM355.099 625.936H408.397V623.936H355.099V625.936ZM407.397 624.936V633H409.397V624.936H407.397ZM451.979 633V634H452.979V633H451.979ZM442.907 633H441.907V634H442.907V633ZM442.907 550.974H443.907V549.974H442.907V550.974ZM412.289 550.974H411.289V551.974H412.289V550.974ZM412.289 542.91V541.91H411.289V542.91H412.289ZM482.723 542.91H483.723V541.91H482.723V542.91ZM482.723 550.974V551.974H483.723V550.974H482.723ZM451.979 550.974V549.974H450.979V550.974H451.979ZM451.979 632H442.907V634H451.979V632ZM443.907 633V550.974H441.907V633H443.907ZM442.907 549.974H412.289V551.974H442.907V549.974ZM413.289 550.974V542.91H411.289V550.974H413.289ZM412.289 543.91H482.723V541.91H412.289V543.91ZM481.723 542.91V550.974H483.723V542.91H481.723ZM482.723 549.974H451.979V551.974H482.723V549.974ZM450.979 550.974V633H452.979V550.974H450.979ZM527.119 633V634H528.119V633H527.119ZM517.921 633H516.921V634H517.921V633ZM517.921 542.91V541.91H516.921V542.91H517.921ZM527.119 542.91H528.119V541.91H527.119V542.91ZM527.119 632H517.921V634H527.119V632ZM518.921 633V542.91H516.921V633H518.921ZM517.921 543.91H527.119V541.91H517.921V543.91ZM526.119 542.91V633H528.119V542.91H526.119ZM555.419 633V634H556.419V633H555.419ZM546.221 633H545.221V634H546.221V633ZM546.221 542.91V541.91H545.221V542.91H546.221ZM557.435 542.91L558.281 542.376L557.986 541.91H557.435V542.91ZM606.198 620.022L605.352 620.556L605.647 621.022H606.198V620.022ZM606.45 620.022V621.022H607.45V620.022H606.45ZM606.45 542.91V541.91H605.45V542.91H606.45ZM615.648 542.91H616.648V541.91H615.648V542.91ZM615.648 633V634H616.648V633H615.648ZM604.434 633L603.588 633.534L603.883 634H604.434V633ZM555.672 555.888L556.517 555.354L556.222 554.888H555.672V555.888ZM555.419 555.888V554.888H554.419V555.888H555.419ZM555.419 632H546.221V634H555.419V632ZM547.221 633V542.91H545.221V633H547.221ZM546.221 543.91H557.435V541.91H546.221V543.91ZM556.59 543.444L605.352 620.556L607.043 619.488L558.281 542.376L556.59 543.444ZM606.198 621.022H606.45V619.022H606.198V621.022ZM607.45 620.022V542.91H605.45V620.022H607.45ZM606.45 543.91H615.648V541.91H606.45V543.91ZM614.648 542.91V633H616.648V542.91H614.648ZM615.648 632H604.434V634H615.648V632ZM605.279 632.466L556.517 555.354L554.826 556.422L603.588 633.534L605.279 632.466ZM555.672 554.888H555.419V556.888H555.672V554.888ZM554.419 555.888V633H556.419V555.888H554.419ZM690.69 633V634H691.69V633H690.69ZM681.618 633H680.618V634H681.618V633ZM681.618 550.974H682.618V549.974H681.618V550.974ZM651 550.974H650V551.974H651V550.974ZM651 542.91V541.91H650V542.91H651ZM721.434 542.91H722.434V541.91H721.434V542.91ZM721.434 550.974V551.974H722.434V550.974H721.434ZM690.69 550.974V549.974H689.69V550.974H690.69ZM690.69 632H681.618V634H690.69V632ZM682.618 633V550.974H680.618V633H682.618ZM681.618 549.974H651V551.974H681.618V549.974ZM652 550.974V542.91H650V550.974H652ZM651 543.91H721.434V541.91H651V543.91ZM720.434 542.91V550.974H722.434V542.91H720.434ZM721.434 549.974H690.69V551.974H721.434V549.974ZM689.69 550.974V633H691.69V550.974H689.69ZM765.17 633.638C752.395 633.638 741.832 628.831 734.456 620.75C727.072 612.66 722.826 601.226 722.826 587.892H720.826C720.826 601.648 725.211 613.587 732.979 622.098C740.754 630.617 751.864 635.638 765.17 635.638V633.638ZM722.826 587.892C722.826 574.559 727.072 563.157 734.455 555.099C741.83 547.049 752.393 542.272 765.17 542.272V540.272C751.866 540.272 740.756 545.26 732.98 553.748C725.211 562.227 720.826 574.135 720.826 587.892H722.826ZM765.17 542.272C777.883 542.272 788.414 547.048 795.775 555.098C803.142 563.156 807.388 574.559 807.388 587.892H809.388C809.388 574.135 805.003 562.228 797.251 553.748C789.491 545.261 778.413 540.272 765.17 540.272V542.272ZM807.388 587.892C807.388 601.226 803.142 612.66 795.773 620.75C788.412 628.832 777.881 633.638 765.17 633.638V635.638C778.415 635.638 789.493 630.616 797.252 622.097C805.003 613.587 809.388 601.648 809.388 587.892H807.388ZM765.17 627.574C776.548 627.574 785.25 623.1 791.086 615.845C796.902 608.617 799.812 598.706 799.812 587.892H797.812C797.812 598.372 794.99 607.802 789.528 614.591C784.087 621.354 775.969 625.574 765.17 625.574V627.574ZM799.812 587.892C799.812 577.077 796.901 567.198 791.085 560C785.247 552.777 776.545 548.336 765.17 548.336V550.336C775.971 550.336 784.09 554.526 789.529 561.257C794.99 568.014 797.812 577.413 797.812 587.892H799.812ZM765.17 548.336C753.734 548.336 745 552.775 739.146 559.999C733.313 567.197 730.402 577.077 730.402 587.892H732.402C732.402 577.413 735.224 568.015 740.7 561.258C746.154 554.528 754.304 550.336 765.17 550.336V548.336ZM730.402 587.892C730.402 598.706 733.313 608.617 739.145 615.846C744.998 623.101 753.731 627.574 765.17 627.574V625.574C754.307 625.574 746.157 621.353 740.701 614.59C735.225 607.802 732.402 598.372 732.402 587.892H730.402ZM822.324 542.91V541.91H821.324V542.91H822.324ZM831.522 542.91H832.522V541.91H831.522V542.91ZM880.914 542.91V541.91H879.914V542.91H880.914ZM890.112 542.91H891.112V541.91H890.112V542.91ZM856.218 633.638C844.614 633.638 836.432 630.476 831.147 625.116C825.859 619.752 823.324 612.038 823.324 602.634H821.324C821.324 612.382 823.955 620.67 829.723 626.52C835.494 632.374 844.26 635.638 856.218 635.638V633.638ZM823.324 602.634V542.91H821.324V602.634H823.324ZM822.324 543.91H831.522V541.91H822.324V543.91ZM830.522 542.91V602.634H832.522V542.91H830.522ZM830.522 602.634C830.522 610.852 832.577 617.145 836.937 621.37C841.29 625.59 847.763 627.574 856.218 627.574V625.574C848.041 625.574 842.165 623.652 838.329 619.934C834.498 616.221 832.522 610.544 832.522 602.634H830.522ZM856.218 627.574C864.673 627.574 871.146 625.59 875.499 621.37C879.858 617.145 881.914 610.852 881.914 602.634H879.914C879.914 610.544 877.937 616.221 874.107 619.934C870.27 623.652 864.395 625.574 856.218 625.574V627.574ZM881.914 602.634V542.91H879.914V602.634H881.914ZM880.914 543.91H890.112V541.91H880.914V543.91ZM889.112 542.91V602.634H891.112V542.91H889.112ZM889.112 602.634C889.112 612.038 886.577 619.752 881.289 625.116C876.003 630.476 867.822 633.638 856.218 633.638V635.638C868.176 635.638 876.941 632.374 882.713 626.52C888.481 620.67 891.112 612.382 891.112 602.634H889.112ZM982.557 571.638V572.638H983.7L983.548 571.505L982.557 571.638ZM972.981 571.638L971.996 571.81L972.14 572.638H972.981V571.638ZM973.359 600.996V599.996H972.436L972.362 600.915L973.359 600.996ZM982.935 600.996L983.929 601.104L984.049 599.996H982.935V600.996ZM945.387 633.638C933.444 633.638 923.388 628.936 916.306 620.919C909.215 612.893 905.059 601.485 905.059 588.018H903.059C903.059 601.893 907.344 613.795 914.807 622.243C922.278 630.701 932.885 635.638 945.387 635.638V633.638ZM905.059 588.018C905.059 574.612 909.184 563.173 916.276 555.099C923.358 547.035 933.446 542.272 945.513 542.272V540.272C932.883 540.272 922.244 545.274 914.773 553.779C907.312 562.274 903.059 574.208 903.059 588.018H905.059ZM945.513 542.272C966.065 542.272 979.366 555.395 981.565 571.771L983.548 571.505C981.211 554.113 967.044 540.272 945.513 540.272V542.272ZM982.557 570.638H972.981V572.638H982.557V570.638ZM973.966 571.466C973.057 566.271 970.682 560.489 966.122 555.995C961.543 551.481 954.827 548.336 945.387 548.336V550.336C954.343 550.336 960.541 553.302 964.719 557.419C968.916 561.556 971.141 566.925 971.996 571.81L973.966 571.466ZM945.387 548.336C934.163 548.336 925.927 553.124 920.528 560.528C915.157 567.895 912.635 577.791 912.635 588.018H914.635C914.635 578.085 917.089 568.64 922.144 561.706C927.173 554.809 934.812 550.336 945.387 550.336V548.336ZM912.635 588.018C912.635 598.248 915.19 608.113 920.578 615.448C925.992 622.819 934.227 627.574 945.387 627.574V625.574C934.874 625.574 927.233 621.131 922.19 614.264C917.119 607.361 914.635 597.948 914.635 588.018H912.635ZM945.387 627.574C955.15 627.574 962.166 624.201 966.862 619.143C971.537 614.107 973.838 607.483 974.355 601.077L972.362 600.915C971.872 606.983 969.699 613.148 965.396 617.782C961.115 622.395 954.649 625.574 945.387 625.574V627.574ZM973.359 601.996H982.935V599.996H973.359V601.996ZM981.94 600.888C980.892 610.506 976.954 618.684 970.711 624.454C964.472 630.22 955.87 633.638 945.387 633.638V635.638C956.323 635.638 965.424 632.063 972.069 625.922C978.709 619.785 982.835 611.142 983.929 601.104L981.94 600.888ZM1005.65 633V634H1006.65V633H1005.65ZM996.45 633H995.45V634H996.45V633ZM996.45 542.91V541.91H995.45V542.91H996.45ZM1005.65 542.91H1006.65V541.91H1005.65V542.91ZM1005.65 581.844H1004.65V582.844H1005.65V581.844ZM1056.68 581.844V582.844H1057.68V581.844H1056.68ZM1056.68 542.91V541.91H1055.68V542.91H1056.68ZM1065.75 542.91H1066.75V541.91H1065.75V542.91ZM1065.75 633V634H1066.75V633H1065.75ZM1056.68 633H1055.68V634H1056.68V633ZM1056.68 589.908H1057.68V588.908H1056.68V589.908ZM1005.65 589.908V588.908H1004.65V589.908H1005.65ZM1005.65 632H996.45V634H1005.65V632ZM997.45 633V542.91H995.45V633H997.45ZM996.45 543.91H1005.65V541.91H996.45V543.91ZM1004.65 542.91V581.844H1006.65V542.91H1004.65ZM1005.65 582.844H1056.68V580.844H1005.65V582.844ZM1057.68 581.844V542.91H1055.68V581.844H1057.68ZM1056.68 543.91H1065.75V541.91H1056.68V543.91ZM1064.75 542.91V633H1066.75V542.91H1064.75ZM1065.75 632H1056.68V634H1065.75V632ZM1057.68 633V589.908H1055.68V633H1057.68ZM1056.68 588.908H1005.65V590.908H1056.68V588.908ZM1004.65 589.908V633H1006.65V589.908H1004.65Z" fill="#E9E9E9" mask="url(#path-8-outside-4_42_1717)"/>
<mask id="path-10-outside-5_42_1717" maskUnits="userSpaceOnUse" x="248" y="668" width="819" height="96" fill="black">
<rect fill="white" x="248" y="668" width="819" height="96"/>
<path d="M290.396 762.638C263.936 762.638 249.698 742.856 249.698 716.018C249.698 689.306 265.952 669.272 291.53 669.272C313.076 669.272 325.424 680.612 328.574 697.622H319.124C316.478 684.518 306.02 677.336 291.53 677.336C268.976 677.336 259.274 697.244 259.274 716.018C259.274 734.918 267.086 754.574 290.396 754.574C307.91 754.574 320.888 741.848 320.888 722.948H291.026V714.758H330.086V761H323.786L321.014 744.998H320.762C315.092 755.582 305.768 762.638 290.396 762.638ZM408.397 761H345.901V670.91H407.011V678.974H355.099V709.97H401.467V718.034H355.099V752.936H408.397V761ZM451.979 761H442.907V678.974H412.289V670.91H482.723V678.974H451.979V761ZM527.119 761H517.921V670.91H527.119V761ZM555.42 761H546.222V670.91H557.436L606.198 748.022H606.45V670.91H615.648V761H604.434L555.672 683.888H555.42V761ZM690.69 761H681.618V678.974H651V670.91H721.434V678.974H690.69V761ZM765.17 762.638C739.088 762.638 721.826 742.982 721.826 715.892C721.826 688.802 739.088 669.272 765.17 669.272C791.126 669.272 808.388 688.802 808.388 715.892C808.388 742.982 791.126 762.638 765.17 762.638ZM765.17 754.574C787.346 754.574 798.812 737.186 798.812 715.892C798.812 694.598 787.346 677.336 765.17 677.336C742.868 677.336 731.402 694.598 731.402 715.892C731.402 737.186 742.868 754.574 765.17 754.574ZM856.218 762.638C832.656 762.638 822.324 749.786 822.324 730.634V670.91H831.522V730.634C831.522 746.762 839.586 754.574 856.218 754.574C872.85 754.574 880.914 746.762 880.914 730.634V670.91H890.112V730.634C890.112 749.786 879.78 762.638 856.218 762.638ZM945.387 762.638C920.943 762.638 904.059 743.36 904.059 716.018C904.059 688.802 920.817 669.272 945.513 669.272C966.555 669.272 980.289 682.754 982.557 699.638H972.981C971.217 689.558 963.783 677.336 945.387 677.336C923.589 677.336 913.635 695.858 913.635 716.018C913.635 736.178 923.715 754.574 945.387 754.574C964.413 754.574 972.351 741.47 973.359 728.996H982.935C980.793 748.652 966.807 762.638 945.387 762.638ZM1005.65 761H996.45V670.91H1005.65V709.844H1056.68V670.91H1065.75V761H1056.68V717.908H1005.65V761Z"/>
</mask>
<path d="M328.574 697.622V698.622H329.776L329.558 697.44L328.574 697.622ZM319.124 697.622L318.144 697.82L318.306 698.622H319.124V697.622ZM320.888 722.948H321.888V721.948H320.888V722.948ZM291.026 722.948H290.026V723.948H291.026V722.948ZM291.026 714.758V713.758H290.026V714.758H291.026ZM330.086 714.758H331.086V713.758H330.086V714.758ZM330.086 761V762H331.086V761H330.086ZM323.786 761L322.801 761.171L322.945 762H323.786V761ZM321.014 744.998L322 744.827L321.856 743.998H321.014V744.998ZM320.762 744.998V743.998H320.163L319.881 744.526L320.762 744.998ZM290.396 761.638C277.439 761.638 267.556 756.806 260.895 748.755C254.214 740.679 250.698 729.271 250.698 716.018H248.698C248.698 729.603 252.301 741.505 259.354 750.03C266.427 758.579 276.894 763.638 290.396 763.638V761.638ZM250.698 716.018C250.698 702.86 254.701 691.42 261.777 683.284C268.842 675.162 279.022 670.272 291.53 670.272V668.272C278.461 668.272 267.724 673.399 260.268 681.972C252.823 690.531 248.698 702.464 248.698 716.018H250.698ZM291.53 670.272C302.127 670.272 310.364 673.058 316.324 677.848C322.282 682.635 326.052 689.495 327.591 697.804L329.558 697.44C327.946 688.739 323.967 681.424 317.577 676.289C311.189 671.156 302.48 668.272 291.53 668.272V670.272ZM328.574 696.622H319.124V698.622H328.574V696.622ZM320.104 697.424C318.735 690.642 315.328 685.345 310.354 681.754C305.391 678.172 298.937 676.336 291.53 676.336V678.336C298.614 678.336 304.633 680.091 309.183 683.376C313.722 686.652 316.867 691.498 318.144 697.82L320.104 697.424ZM291.53 676.336C279.913 676.336 271.553 681.483 266.131 689.055C260.736 696.588 258.274 706.478 258.274 716.018H260.274C260.274 706.784 262.663 697.333 267.758 690.219C272.825 683.143 280.594 678.336 291.53 678.336V676.336ZM258.274 716.018C258.274 725.581 260.247 735.44 265.263 742.939C270.316 750.494 278.409 755.574 290.396 755.574V753.574C279.074 753.574 271.606 748.826 266.925 741.828C262.208 734.774 260.274 725.355 260.274 716.018H258.274ZM290.396 755.574C299.402 755.574 307.289 752.298 312.924 746.548C318.559 740.799 321.888 732.633 321.888 722.948H319.888C319.888 732.163 316.728 739.81 311.496 745.149C306.263 750.487 298.904 753.574 290.396 753.574V755.574ZM320.888 721.948H291.026V723.948H320.888V721.948ZM292.026 722.948V714.758H290.026V722.948H292.026ZM291.026 715.758H330.086V713.758H291.026V715.758ZM329.086 714.758V761H331.086V714.758H329.086ZM330.086 760H323.786V762H330.086V760ZM324.772 760.829L322 744.827L320.029 745.169L322.801 761.171L324.772 760.829ZM321.014 743.998H320.762V745.998H321.014V743.998ZM319.881 744.526C317.111 749.697 313.473 753.962 308.689 756.938C303.909 759.912 297.924 761.638 290.396 761.638V763.638C298.241 763.638 304.604 761.836 309.746 758.636C314.885 755.438 318.744 750.883 321.644 745.47L319.881 744.526ZM408.397 761V762H409.397V761H408.397ZM345.901 761H344.901V762H345.901V761ZM345.901 670.91V669.91H344.901V670.91H345.901ZM407.011 670.91H408.011V669.91H407.011V670.91ZM407.011 678.974V679.974H408.011V678.974H407.011ZM355.099 678.974V677.974H354.099V678.974H355.099ZM355.099 709.97H354.099V710.97H355.099V709.97ZM401.467 709.97H402.467V708.97H401.467V709.97ZM401.467 718.034V719.034H402.467V718.034H401.467ZM355.099 718.034V717.034H354.099V718.034H355.099ZM355.099 752.936H354.099V753.936H355.099V752.936ZM408.397 752.936H409.397V751.936H408.397V752.936ZM408.397 760H345.901V762H408.397V760ZM346.901 761V670.91H344.901V761H346.901ZM345.901 671.91H407.011V669.91H345.901V671.91ZM406.011 670.91V678.974H408.011V670.91H406.011ZM407.011 677.974H355.099V679.974H407.011V677.974ZM354.099 678.974V709.97H356.099V678.974H354.099ZM355.099 710.97H401.467V708.97H355.099V710.97ZM400.467 709.97V718.034H402.467V709.97H400.467ZM401.467 717.034H355.099V719.034H401.467V717.034ZM354.099 718.034V752.936H356.099V718.034H354.099ZM355.099 753.936H408.397V751.936H355.099V753.936ZM407.397 752.936V761H409.397V752.936H407.397ZM451.979 761V762H452.979V761H451.979ZM442.907 761H441.907V762H442.907V761ZM442.907 678.974H443.907V677.974H442.907V678.974ZM412.289 678.974H411.289V679.974H412.289V678.974ZM412.289 670.91V669.91H411.289V670.91H412.289ZM482.723 670.91H483.723V669.91H482.723V670.91ZM482.723 678.974V679.974H483.723V678.974H482.723ZM451.979 678.974V677.974H450.979V678.974H451.979ZM451.979 760H442.907V762H451.979V760ZM443.907 761V678.974H441.907V761H443.907ZM442.907 677.974H412.289V679.974H442.907V677.974ZM413.289 678.974V670.91H411.289V678.974H413.289ZM412.289 671.91H482.723V669.91H412.289V671.91ZM481.723 670.91V678.974H483.723V670.91H481.723ZM482.723 677.974H451.979V679.974H482.723V677.974ZM450.979 678.974V761H452.979V678.974H450.979ZM527.119 761V762H528.119V761H527.119ZM517.921 761H516.921V762H517.921V761ZM517.921 670.91V669.91H516.921V670.91H517.921ZM527.119 670.91H528.119V669.91H527.119V670.91ZM527.119 760H517.921V762H527.119V760ZM518.921 761V670.91H516.921V761H518.921ZM517.921 671.91H527.119V669.91H517.921V671.91ZM526.119 670.91V761H528.119V670.91H526.119ZM555.419 761V762H556.419V761H555.419ZM546.221 761H545.221V762H546.221V761ZM546.221 670.91V669.91H545.221V670.91H546.221ZM557.435 670.91L558.281 670.376L557.986 669.91H557.435V670.91ZM606.198 748.022L605.352 748.556L605.647 749.022H606.198V748.022ZM606.45 748.022V749.022H607.45V748.022H606.45ZM606.45 670.91V669.91H605.45V670.91H606.45ZM615.648 670.91H616.648V669.91H615.648V670.91ZM615.648 761V762H616.648V761H615.648ZM604.434 761L603.588 761.534L603.883 762H604.434V761ZM555.672 683.888L556.517 683.354L556.222 682.888H555.672V683.888ZM555.419 683.888V682.888H554.419V683.888H555.419ZM555.419 760H546.221V762H555.419V760ZM547.221 761V670.91H545.221V761H547.221ZM546.221 671.91H557.435V669.91H546.221V671.91ZM556.59 671.444L605.352 748.556L607.043 747.488L558.281 670.376L556.59 671.444ZM606.198 749.022H606.45V747.022H606.198V749.022ZM607.45 748.022V670.91H605.45V748.022H607.45ZM606.45 671.91H615.648V669.91H606.45V671.91ZM614.648 670.91V761H616.648V670.91H614.648ZM615.648 760H604.434V762H615.648V760ZM605.279 760.466L556.517 683.354L554.826 684.422L603.588 761.534L605.279 760.466ZM555.672 682.888H555.419V684.888H555.672V682.888ZM554.419 683.888V761H556.419V683.888H554.419ZM690.69 761V762H691.69V761H690.69ZM681.618 761H680.618V762H681.618V761ZM681.618 678.974H682.618V677.974H681.618V678.974ZM651 678.974H650V679.974H651V678.974ZM651 670.91V669.91H650V670.91H651ZM721.434 670.91H722.434V669.91H721.434V670.91ZM721.434 678.974V679.974H722.434V678.974H721.434ZM690.69 678.974V677.974H689.69V678.974H690.69ZM690.69 760H681.618V762H690.69V760ZM682.618 761V678.974H680.618V761H682.618ZM681.618 677.974H651V679.974H681.618V677.974ZM652 678.974V670.91H650V678.974H652ZM651 671.91H721.434V669.91H651V671.91ZM720.434 670.91V678.974H722.434V670.91H720.434ZM721.434 677.974H690.69V679.974H721.434V677.974ZM689.69 678.974V761H691.69V678.974H689.69ZM765.17 761.638C752.395 761.638 741.832 756.831 734.456 748.75C727.072 740.66 722.826 729.226 722.826 715.892H720.826C720.826 729.648 725.211 741.587 732.979 750.098C740.754 758.617 751.864 763.638 765.17 763.638V761.638ZM722.826 715.892C722.826 702.559 727.072 691.157 734.455 683.099C741.83 675.049 752.393 670.272 765.17 670.272V668.272C751.866 668.272 740.756 673.26 732.98 681.748C725.211 690.227 720.826 702.135 720.826 715.892H722.826ZM765.17 670.272C777.883 670.272 788.414 675.048 795.775 683.098C803.142 691.156 807.388 702.559 807.388 715.892H809.388C809.388 702.135 805.003 690.228 797.251 681.748C789.491 673.261 778.413 668.272 765.17 668.272V670.272ZM807.388 715.892C807.388 729.226 803.142 740.66 795.773 748.75C788.412 756.832 777.881 761.638 765.17 761.638V763.638C778.415 763.638 789.493 758.616 797.252 750.097C805.003 741.587 809.388 729.648 809.388 715.892H807.388ZM765.17 755.574C776.548 755.574 785.25 751.1 791.086 743.845C796.902 736.617 799.812 726.706 799.812 715.892H797.812C797.812 726.372 794.99 735.802 789.528 742.591C784.087 749.354 775.969 753.574 765.17 753.574V755.574ZM799.812 715.892C799.812 705.077 796.901 695.198 791.085 688C785.247 680.777 776.545 676.336 765.17 676.336V678.336C775.971 678.336 784.09 682.526 789.529 689.257C794.99 696.014 797.812 705.413 797.812 715.892H799.812ZM765.17 676.336C753.734 676.336 745 680.775 739.146 687.999C733.313 695.197 730.402 705.077 730.402 715.892H732.402C732.402 705.413 735.224 696.015 740.7 689.258C746.154 682.528 754.304 678.336 765.17 678.336V676.336ZM730.402 715.892C730.402 726.706 733.313 736.617 739.145 743.846C744.998 751.101 753.731 755.574 765.17 755.574V753.574C754.307 753.574 746.157 749.353 740.701 742.59C735.225 735.802 732.402 726.372 732.402 715.892H730.402ZM822.324 670.91V669.91H821.324V670.91H822.324ZM831.522 670.91H832.522V669.91H831.522V670.91ZM880.914 670.91V669.91H879.914V670.91H880.914ZM890.112 670.91H891.112V669.91H890.112V670.91ZM856.218 761.638C844.614 761.638 836.432 758.476 831.147 753.116C825.859 747.752 823.324 740.038 823.324 730.634H821.324C821.324 740.382 823.955 748.67 829.723 754.52C835.494 760.374 844.26 763.638 856.218 763.638V761.638ZM823.324 730.634V670.91H821.324V730.634H823.324ZM822.324 671.91H831.522V669.91H822.324V671.91ZM830.522 670.91V730.634H832.522V670.91H830.522ZM830.522 730.634C830.522 738.852 832.577 745.145 836.937 749.37C841.29 753.59 847.763 755.574 856.218 755.574V753.574C848.041 753.574 842.165 751.652 838.329 747.934C834.498 744.221 832.522 738.544 832.522 730.634H830.522ZM856.218 755.574C864.673 755.574 871.146 753.59 875.499 749.37C879.858 745.145 881.914 738.852 881.914 730.634H879.914C879.914 738.544 877.937 744.221 874.107 747.934C870.27 751.652 864.395 753.574 856.218 753.574V755.574ZM881.914 730.634V670.91H879.914V730.634H881.914ZM880.914 671.91H890.112V669.91H880.914V671.91ZM889.112 670.91V730.634H891.112V670.91H889.112ZM889.112 730.634C889.112 740.038 886.577 747.752 881.289 753.116C876.003 758.476 867.822 761.638 856.218 761.638V763.638C868.176 763.638 876.941 760.374 882.713 754.52C888.481 748.67 891.112 740.382 891.112 730.634H889.112ZM982.557 699.638V700.638H983.7L983.548 699.505L982.557 699.638ZM972.981 699.638L971.996 699.81L972.14 700.638H972.981V699.638ZM973.359 728.996V727.996H972.436L972.362 728.915L973.359 728.996ZM982.935 728.996L983.929 729.104L984.049 727.996H982.935V728.996ZM945.387 761.638C933.444 761.638 923.388 756.936 916.306 748.919C909.215 740.893 905.059 729.485 905.059 716.018H903.059C903.059 729.893 907.344 741.795 914.807 750.243C922.278 758.701 932.885 763.638 945.387 763.638V761.638ZM905.059 716.018C905.059 702.612 909.184 691.173 916.276 683.099C923.358 675.035 933.446 670.272 945.513 670.272V668.272C932.883 668.272 922.244 673.274 914.773 681.779C907.312 690.274 903.059 702.208 903.059 716.018H905.059ZM945.513 670.272C966.065 670.272 979.366 683.395 981.565 699.771L983.548 699.505C981.211 682.113 967.044 668.272 945.513 668.272V670.272ZM982.557 698.638H972.981V700.638H982.557V698.638ZM973.966 699.466C973.057 694.271 970.682 688.489 966.122 683.995C961.543 679.481 954.827 676.336 945.387 676.336V678.336C954.343 678.336 960.541 681.302 964.719 685.419C968.916 689.556 971.141 694.925 971.996 699.81L973.966 699.466ZM945.387 676.336C934.163 676.336 925.927 681.124 920.528 688.528C915.157 695.895 912.635 705.791 912.635 716.018H914.635C914.635 706.085 917.089 696.64 922.144 689.706C927.173 682.809 934.812 678.336 945.387 678.336V676.336ZM912.635 716.018C912.635 726.248 915.19 736.113 920.578 743.448C925.992 750.819 934.227 755.574 945.387 755.574V753.574C934.874 753.574 927.233 749.131 922.19 742.264C917.119 735.361 914.635 725.948 914.635 716.018H912.635ZM945.387 755.574C955.15 755.574 962.166 752.201 966.862 747.143C971.537 742.107 973.838 735.483 974.355 729.077L972.362 728.915C971.872 734.983 969.699 741.148 965.396 745.782C961.115 750.395 954.649 753.574 945.387 753.574V755.574ZM973.359 729.996H982.935V727.996H973.359V729.996ZM981.94 728.888C980.892 738.506 976.954 746.684 970.711 752.454C964.472 758.22 955.87 761.638 945.387 761.638V763.638C956.323 763.638 965.424 760.063 972.069 753.922C978.709 747.785 982.835 739.142 983.929 729.104L981.94 728.888ZM1005.65 761V762H1006.65V761H1005.65ZM996.45 761H995.45V762H996.45V761ZM996.45 670.91V669.91H995.45V670.91H996.45ZM1005.65 670.91H1006.65V669.91H1005.65V670.91ZM1005.65 709.844H1004.65V710.844H1005.65V709.844ZM1056.68 709.844V710.844H1057.68V709.844H1056.68ZM1056.68 670.91V669.91H1055.68V670.91H1056.68ZM1065.75 670.91H1066.75V669.91H1065.75V670.91ZM1065.75 761V762H1066.75V761H1065.75ZM1056.68 761H1055.68V762H1056.68V761ZM1056.68 717.908H1057.68V716.908H1056.68V717.908ZM1005.65 717.908V716.908H1004.65V717.908H1005.65ZM1005.65 760H996.45V762H1005.65V760ZM997.45 761V670.91H995.45V761H997.45ZM996.45 671.91H1005.65V669.91H996.45V671.91ZM1004.65 670.91V709.844H1006.65V670.91H1004.65ZM1005.65 710.844H1056.68V708.844H1005.65V710.844ZM1057.68 709.844V670.91H1055.68V709.844H1057.68ZM1056.68 671.91H1065.75V669.91H1056.68V671.91ZM1064.75 670.91V761H1066.75V670.91H1064.75ZM1065.75 760H1056.68V762H1065.75V760ZM1057.68 761V717.908H1055.68V761H1057.68ZM1056.68 716.908H1005.65V718.908H1056.68V716.908ZM1004.65 717.908V761H1006.65V717.908H1004.65Z" fill="#E9E9E9" mask="url(#path-10-outside-5_42_1717)"/>
</svg>
