<svg width="865" height="452" viewBox="0 0 865 452" fill="none" xmlns="http://www.w3.org/2000/svg">
<rect width="865" height="452" rx="12" fill="#E9E9E9"/>
<g clip-path="url(#clip0_231_377)">
<path d="M569.714 256.244L569.682 194.688H586.763L586.796 240.507H605.946V256.244H569.714Z" fill="#030E24"/>
<path d="M514.135 256.276L514.069 194.72H531.15L531.183 216.318L548.363 216.286V194.72L565.411 194.688L565.444 256.244H548.396V233.351L531.183 233.383V256.244L514.135 256.276Z" fill="#030E24"/>
<path d="M456.092 194.752L431.455 224.09L459.639 256.309H437.039L417.889 234.387H417.856V256.309H400.808L400.775 194.785L417.856 194.752V213.21H417.725L433.985 194.752H456.092Z" fill="#030E24"/>
<path d="M446.861 224.996C446.926 218.724 448.873 212.61 452.458 207.427C456.042 202.244 461.103 198.223 467.002 195.871C472.902 193.52 479.375 192.942 485.607 194.212C491.839 195.482 497.55 198.542 502.02 203.007C506.49 207.472 509.518 213.141 510.724 219.301C511.93 225.46 511.259 231.833 508.795 237.617C506.332 243.401 502.187 248.336 496.882 251.801C491.577 255.266 485.35 257.105 478.987 257.086C474.732 257.069 470.523 256.225 466.599 254.602C462.676 252.98 459.116 250.61 456.123 247.629C453.13 244.649 450.762 241.115 449.156 237.232C447.55 233.348 446.736 229.19 446.762 224.996M478.987 240.766C483.031 240.556 486.826 238.776 489.541 235.814C492.256 232.852 493.67 228.951 493.473 224.964C493.69 222.959 493.476 220.931 492.846 219.012C492.216 217.094 491.184 215.327 489.816 213.828C488.448 212.328 486.776 211.129 484.907 210.308C483.039 209.487 481.016 209.063 478.97 209.063C476.925 209.063 474.902 209.487 473.033 210.308C471.165 211.129 469.492 212.328 468.125 213.828C466.757 215.327 465.725 217.094 465.095 219.012C464.465 220.931 464.251 222.959 464.468 224.964C464.28 228.954 465.701 232.855 468.422 235.816C471.142 238.777 474.94 240.556 478.987 240.766Z" fill="#030E24"/>
<path d="M626.542 194.688L644.083 194.655V208.838L626.969 208.871L626.871 218.585H642.737V232.347L626.937 232.379V241.77H644.248V256.211H626.707L609.461 256.244L609.428 194.688H626.542Z" fill="#030E24"/>
<path d="M679.593 231.569L697.364 256.211H678.706L664.778 237.333V256.179H648.091V194.623H669.508C688.33 194.623 700.287 217.872 679.658 231.569H679.593ZM669.508 220.754C671.103 220.754 672.632 220.13 673.759 219.019C674.886 217.907 675.52 216.4 675.52 214.829C675.52 213.257 674.886 211.75 673.759 210.638C672.632 209.527 671.103 208.903 669.508 208.903H664.68V220.754H669.508Z" fill="#030E24"/>
<path d="M699.466 253.07C699.453 251.838 699.812 250.63 700.497 249.599C701.182 248.568 702.162 247.761 703.314 247.281C704.465 246.8 705.735 246.668 706.963 246.9C708.19 247.133 709.32 247.72 710.209 248.587C711.098 249.453 711.705 250.561 711.954 251.769C712.202 252.977 712.081 254.23 711.606 255.37C711.131 256.51 710.322 257.484 709.284 258.17C708.245 258.856 707.023 259.223 705.773 259.223C704.947 259.236 704.126 259.086 703.359 258.782C702.592 258.478 701.895 258.027 701.308 257.454C700.72 256.881 700.255 256.198 699.938 255.445C699.622 254.692 699.462 253.885 699.466 253.07ZM711.062 253.07C711.068 252.029 710.76 251.009 710.176 250.141C709.592 249.272 708.76 248.595 707.784 248.195C706.808 247.795 705.734 247.69 704.698 247.894C703.662 248.098 702.711 248.602 701.966 249.341C701.221 250.08 700.716 251.02 700.516 252.043C700.315 253.066 700.428 254.124 700.84 255.083C701.252 256.043 701.944 256.859 702.828 257.429C703.713 257.999 704.749 258.297 705.806 258.284C707.198 258.259 708.525 257.7 709.506 256.727C710.487 255.754 711.045 254.442 711.062 253.07ZM708.729 256.309H707.58L705.543 253.07H704.393V256.309H703.441V249.67H706.463C707.678 249.67 708.894 249.994 708.894 251.451C708.894 252.909 707.908 253.265 706.726 253.297L708.729 256.309ZM705.445 252.261C706.299 252.261 707.777 252.423 707.777 251.322C707.777 250.221 706.857 250.512 706.102 250.512H704.295V252.229L705.642 252.358L705.445 252.261Z" fill="#030E24"/>
<path d="M160.357 236.071C160.357 248.764 169.423 252.65 180.888 252.65C187.457 252.65 197.312 249.088 197.312 240.118C197.312 233.156 190.315 230.404 184.468 228.979L170.54 225.741C163.281 223.798 156.547 220.463 156.547 210.781C156.547 204.758 160.357 193.425 178.095 193.425C190.512 193.425 201.089 199.901 201.089 212.594H195.242C194.815 203.269 187.096 198.476 178.161 198.476C170.015 198.476 162.492 201.714 162.492 210.684C162.492 216.48 166.763 218.973 171.953 220.107L187.162 223.798C196.031 226.13 203.389 230.015 203.389 239.989C203.389 244.231 201.648 257.604 179.475 257.604C164.693 257.604 153.82 251.128 154.51 236.006H160.357V236.071Z" fill="#030E24"/>
<path d="M220.371 211.817H229.569V216.383H220.371V246.432C220.371 249.962 220.897 252.034 224.838 252.293C226.419 252.288 227.997 252.201 229.569 252.034V256.762C227.893 256.762 226.284 256.924 224.641 256.924C217.283 256.924 214.787 254.527 214.787 246.918V216.383H206.903V211.817H214.787V198.476H220.305V211.817H220.371Z" fill="#030E24"/>
<path d="M272.041 256.373H267.081V248.343H266.917C265.502 251.212 263.278 253.619 260.51 255.273C257.742 256.927 254.549 257.759 251.314 257.669C239.85 257.669 235.481 251.192 235.481 240.733V211.817H241V240.96C241.262 248.958 244.284 253.2 253.088 253.2C262.548 253.2 266.654 244.392 266.654 235.326V211.817H272.041V256.373Z" fill="#030E24"/>
<path d="M318.653 256.373H313.562V247.922C312.076 250.875 309.773 253.354 306.919 255.073C304.065 256.792 300.777 257.68 297.433 257.636C283.702 257.636 277.133 246.756 277.133 234.063C277.133 221.369 283.702 210.522 297.433 210.522C300.746 210.353 304.031 211.195 306.841 212.933C309.651 214.671 311.849 217.222 313.135 220.236V194.752H318.653V256.373ZM297.302 253.135C308.93 253.135 313.135 243.421 313.135 234.16C313.135 224.899 308.93 215.185 297.302 215.185C286.79 215.185 282.52 224.899 282.52 234.16C282.52 243.421 286.79 253.07 297.302 253.07V253.135Z" fill="#030E24"/>
<path d="M327.325 194.752H332.844V203.463H327.325V194.752ZM327.325 211.817H332.844V256.373H327.325V211.817Z" fill="#030E24"/>
<path d="M381.953 234.095C381.953 246.853 374.332 257.636 360.568 257.636C346.805 257.636 339.217 247.048 339.217 234.095C339.217 221.143 346.838 210.522 360.733 210.522C374.628 210.522 381.953 221.305 381.953 234.095ZM344.735 234.095C344.735 243.486 350.09 253.071 360.568 253.071C371.047 253.071 376.434 243.356 376.434 234.095C376.434 224.834 371.08 215.12 360.733 215.12C350.385 215.12 344.735 224.672 344.735 234.095Z" fill="#030E24"/>
</g>
<defs>
<clipPath id="clip0_231_377">
<rect width="558.424" height="68" fill="white" transform="translate(153.788 192)"/>
</clipPath>
</defs>
</svg>
