<svg width="272" height="73" viewBox="0 0 272 73" fill="none" xmlns="http://www.w3.org/2000/svg">
<g clip-path="url(#clip0_192_163)">
<path d="M79.664 20.3331C65.2776 20.3331 53.5152 32.0471 53.5152 46.3742C53.5152 60.7012 65.2776 72.4152 79.664 72.4152C94.0503 72.4152 105.813 60.7012 105.813 46.3742C105.813 32.0471 94.0503 20.3331 79.664 20.3331ZM92.4217 46.0588C92.4217 53.2223 86.8572 59.0793 79.9807 59.0793C73.1042 59.0793 67.5396 53.2223 67.5396 46.0588C67.5396 38.8953 73.1042 33.0383 79.9807 33.0383C86.8572 33.0383 92.4217 38.8953 92.4217 46.0588ZM171.23 21.2793C170.913 20.9639 170.597 20.9639 170.235 20.9639H159.784C159.151 20.9639 158.472 21.5947 158.472 22.2705V69.4867C158.472 69.8021 158.472 70.1175 158.789 70.4779C159.106 70.7933 159.422 70.7933 159.784 70.7933H170.235C170.868 70.7933 171.547 70.1625 171.547 69.4867V22.2705C171.592 21.9551 171.592 21.6397 171.23 21.2793ZM165.032 14.7915C168.968 14.7915 172.225 11.5477 172.225 7.62802C172.542 3.70835 168.968 0.464478 165.032 0.464478C161.096 0.464478 157.839 3.70835 157.839 7.62802C157.839 11.8631 161.096 14.7915 165.032 14.7915ZM150.962 1.4106H112.735C112.101 1.4106 111.423 2.04136 111.423 2.71716V69.4867C111.423 69.8021 111.423 70.1175 111.739 70.4779C112.056 70.7933 112.373 70.7933 112.735 70.7933H123.185C123.818 70.7933 124.497 70.1625 124.497 69.4867V42.4545H148.022C148.338 42.4545 148.655 42.4545 149.017 42.1391C149.334 41.8237 149.334 41.5084 149.334 41.1479V31.4163C149.334 30.7856 148.7 30.1098 148.022 30.1098H124.497V13.8454H151.008C151.324 13.8454 151.641 13.8454 152.003 13.53C152.365 13.2147 152.32 12.8993 152.32 12.5389V2.76221C152.274 2.08641 151.641 1.4106 150.962 1.4106ZM28.9951 30.4252C18.5446 25.8747 15.2421 23.8924 15.2421 20.0178C15.2421 14.7915 20.128 13.1696 24.7425 13.1696C29.6284 13.1696 34.8763 15.7827 34.8763 22.9463C34.8763 23.577 35.193 23.9374 35.8716 23.9374H47.3173C47.634 23.6221 47.9507 23.3067 47.9507 22.9463C47.9507 9.92575 38.4503 0.464478 24.7425 0.464478C10.9895 0.464478 2.16769 8.25877 2.16769 20.0178C2.16769 34.0295 12.6182 38.2645 22.7519 42.1842L23.3853 42.4996C32.8857 46.1039 36.143 47.7258 36.143 52.2762C36.143 58.4485 29.5832 59.4397 26.0092 59.4397C19.1327 59.4397 13.9301 54.5739 13.9301 48.0412V47.4104C13.9301 46.7797 13.6134 46.4192 12.9348 46.4192H1.53433C1.21765 46.4192 0.539045 46.7346 0.539045 47.4104V48.4016C0.539045 62.7287 10.9895 72.5053 25.7378 72.5053C39.8075 72.5053 49.2626 64.3506 49.2626 52.6366C49.5793 40.5172 43.3814 36.2821 28.9951 30.4252ZM271.98 68.856C271.98 70.7933 270.668 72.0998 268.722 72.0998C266.777 72.0998 265.465 70.7933 265.465 68.856C265.465 66.9186 266.777 65.6121 268.722 65.6121C270.668 65.6121 271.98 66.8736 271.98 68.856ZM266.098 68.856C266.098 70.4779 267.094 71.4691 268.722 71.4691C270.351 71.4691 271.346 70.4779 271.346 68.856C271.346 67.234 270.351 66.2428 268.722 66.2428C267.094 66.2428 266.098 67.234 266.098 68.856ZM270.034 68.1802C270.034 68.4955 269.718 68.8109 269.401 69.1713L270.034 70.4779H269.039L268.406 69.1713H268.089V70.4779H267.456V67.234H268.768C269.356 67.234 270.034 67.5494 270.034 68.1802ZM268.36 67.8648V68.856H268.677C268.994 68.856 269.31 68.5406 269.31 68.5406C269.31 68.2252 268.994 68.2252 268.677 68.2252H268.36V67.8648ZM254.969 3.39297C259.539 3.39297 263.158 6.99726 263.158 11.5477C263.158 16.0981 259.539 19.7024 254.969 19.7024C250.4 19.7024 246.781 16.0981 246.781 11.5477C246.781 6.9522 250.4 3.39297 254.969 3.39297ZM254.969 0.464478C248.772 0.464478 243.524 5.6907 243.524 11.8631C243.524 18.0354 248.772 23.2616 254.969 23.2616C261.167 23.2616 266.415 18.0354 266.415 11.8631C266.415 5.64565 261.167 0.464478 254.969 0.464478Z" fill="#E9E9E9"/>
<path d="M230.449 28.1275C232.757 28.1275 234.702 29.1187 236.33 30.4253C237.959 32.0472 238.638 34.0296 238.638 36.2822C238.638 40.8327 235.019 44.437 230.449 44.437C228.142 44.437 226.197 43.4458 224.568 42.1392C222.939 40.5173 222.261 38.5349 222.261 36.2822C221.944 31.7318 225.88 28.1275 230.449 28.1275ZM230.449 24.8837C224.251 24.8837 219.004 30.1099 219.004 36.2822C219.004 42.4546 224.251 47.6808 230.449 47.6808C236.647 47.6808 241.895 42.4546 241.895 36.2822C241.895 30.1099 236.647 24.8837 230.449 24.8837Z" fill="#E9E9E9"/>
<path d="M249.495 26.2352C255.06 23.2166 261.982 25.2891 265.013 30.7857C268.044 36.2822 265.963 43.2205 260.443 46.2391C254.879 49.2577 247.957 47.1852 244.926 41.6886C241.895 36.1921 243.931 29.2538 249.495 26.2352ZM249.45 50.6543C255.015 47.6357 261.936 49.7082 264.967 55.2047C267.999 60.7463 265.918 67.6396 260.398 70.6581C254.879 73.6768 247.912 71.6043 244.881 66.1077C241.85 60.6112 243.931 53.6729 249.45 50.6543ZM195.388 31.5516C197.967 25.7847 204.708 23.2166 210.498 25.7396C216.289 28.3077 218.868 35.0207 216.334 40.7876C213.801 46.5544 207.015 49.1225 201.224 46.5995C195.433 44.0765 192.81 37.3184 195.388 31.5516ZM219.954 7.17753C222.532 1.41066 229.273 -1.15741 235.064 1.3656C240.855 3.93366 243.433 10.6467 240.9 16.4135C238.321 22.1804 231.58 24.7485 225.79 22.2255C219.999 19.7024 217.375 12.8993 219.954 7.17753ZM195.388 7.13247C197.967 1.3656 204.708 -1.20246 210.498 1.32054C216.289 3.8886 218.868 10.6016 216.334 16.3685C213.801 22.1353 207.015 24.7034 201.224 22.1804C195.479 19.6123 192.855 12.8993 195.388 7.13247ZM219.908 56.0608C222.487 50.2939 229.228 47.7258 235.019 50.2488C240.809 52.8169 243.388 59.5299 240.855 65.2968C238.276 71.0636 231.535 73.6317 225.744 71.1087C219.954 68.5406 217.33 61.8276 219.908 56.0608Z" fill="#E9E9E9"/>
<path d="M205.929 52.5466C208.236 52.5466 210.182 53.5378 211.81 54.8443C213.439 56.4663 214.118 58.4486 214.118 60.7013C214.118 65.2517 210.498 68.856 205.929 68.856C201.36 68.856 197.741 65.2517 197.741 60.7013C197.424 56.1509 201.36 52.5466 205.929 52.5466ZM205.929 49.3027C199.731 49.3027 194.483 54.529 194.483 60.7013C194.483 66.8737 199.731 72.0999 205.929 72.0999C212.127 72.0999 217.375 66.8737 217.375 60.7013C217.375 54.529 212.127 49.3027 205.929 49.3027Z" fill="#E9E9E9"/>
</g>
<defs>
<clipPath id="clip0_192_163">
<rect width="272" height="73" fill="white"/>
</clipPath>
</defs>
</svg>
