<svg width="339" height="133" viewBox="0 0 339 133" fill="none" xmlns="http://www.w3.org/2000/svg">
<g clip-path="url(#clip0_36_407)">
<path fill-rule="evenodd" clip-rule="evenodd" d="M304.144 106.636C296.69 106.636 291.61 112.206 291.61 119.523C291.61 127.077 296.405 132.363 304.144 132.363C309.699 132.363 313.734 129.908 315.634 124.149H309.699C309.272 125.66 307.087 127.312 304.381 127.312C300.63 127.312 298.542 125.377 298.351 121.128H316.06C316.535 113.622 312.5 106.636 304.144 106.636ZM298.351 116.879C298.446 114.991 299.68 111.686 303.953 111.686C307.23 111.686 308.702 113.48 309.318 116.879H298.351ZM60.4862 106.636C57.0678 106.636 54.5036 108.571 53.0794 110.695C51.7496 107.769 48.9965 106.636 45.9098 106.636C42.7297 106.636 40.1654 108.099 38.4085 110.602H38.3132V107.297H31.9511V131.073L19.6722 97.9978H12.4966L0.0209961 131.703H7.41401L9.60402 125.05L15.8154 125.024L22.5145 125.05L24.766 131.703H38.6936V117.541C38.6936 112.772 41.9223 111.923 43.252 111.923C47.5255 111.923 47.3349 115.181 47.3349 118.012V131.704H54.0765V118.108C54.0765 115.039 54.7886 111.923 58.5873 111.923C62.4328 111.923 62.7178 114.614 62.7178 117.872V131.704H69.4594V115.369C69.4585 109.043 65.7083 106.636 60.4862 106.636ZM15.8154 119.761H11.3158L16.1385 105.374L20.8018 119.761H15.8154ZM82.9901 106.636C75.5365 106.636 70.4565 112.206 70.4565 119.523C70.4565 127.077 75.2515 132.363 82.9901 132.363C88.5449 132.363 92.581 129.908 94.4799 124.149H88.544C88.1169 125.66 85.933 127.312 83.2275 127.312C79.4764 127.312 77.3878 125.377 77.1972 121.128H94.9061C95.3817 113.622 91.3465 106.636 82.9901 106.636ZM77.1972 116.879C77.2925 114.991 78.527 111.686 82.7996 111.686C86.0759 111.686 87.5469 113.48 88.1646 116.879H77.1972ZM104.033 110.47C103.655 110.861 103.121 110.66 103.118 110.121V107.297H96.708V131.704H103.45V120.704C103.45 116.407 105.074 112.712 111.268 112.712L111.28 106.636C108.005 106.636 105.854 107.593 104.033 110.47ZM112.552 131.703H119.294V107.296H112.552V131.703ZM112.552 103.519H119.294V97.9961H112.552V103.519ZM133.065 127.312C128.839 127.312 127.463 123.111 127.463 119.618C127.463 116.03 128.887 111.686 133.207 111.686C136.008 111.686 137.765 113.15 138.192 115.888H144.791C144.364 109.657 139.046 106.636 133.255 106.636C125.278 106.636 120.72 112.253 120.72 119.854C120.72 127.171 125.705 132.363 133.112 132.363C139.569 132.363 144.079 128.823 144.933 122.356H138.429C138.002 125.329 136.198 127.312 133.065 127.312ZM169.511 113.574C169.511 107.72 163.624 106.635 158.734 106.635C153.227 106.635 147.577 108.522 147.197 114.801H153.939C154.177 112.158 155.838 111.119 158.403 111.119C160.776 111.119 162.77 111.544 162.77 114.424C162.77 117.162 158.925 117.021 154.794 117.635C150.616 118.201 146.438 119.522 146.438 125.046C146.438 130.051 150.141 132.363 154.794 132.363C157.785 132.363 160.918 131.56 163.055 129.343C163.103 130.145 163.293 130.946 163.53 131.703H170.367C169.75 130.711 169.512 128.492 169.512 126.273V113.574H169.511ZM162.77 122.26C162.77 123.724 162.58 127.878 157.31 127.878C155.126 127.878 153.18 127.292 153.18 124.791C153.18 122.336 155.079 121.599 157.168 121.175C159.257 120.798 161.63 120.75 162.77 119.758V122.26ZM185.039 106.636C182.19 106.636 179.247 107.957 177.537 110.695H177.395V107.297H170.986V131.704H177.728V118.91C177.728 113.953 179.295 111.923 182.949 111.923C186.083 111.923 187.27 113.906 187.27 117.918V131.704H194.011V116.69C194.012 110.648 192.208 106.636 185.039 106.636ZM226.212 130.151L214.276 97.9961H207.1L194.625 131.703H202.018L204.207 125.05L210.42 125.024L217.118 125.05L219.369 131.703H232.954V107.296H226.212V130.151ZM210.419 119.761H205.919L210.742 105.374L215.405 119.761H210.419ZM226.212 103.519H232.954V97.9961H226.212V103.519ZM250.671 131.703H257.412V97.9961H250.671V131.703ZM258.851 131.703H265.593V107.296H258.851V131.703ZM258.851 103.519H265.593V97.9961H258.851V103.519ZM281.207 106.636C278.358 106.636 275.414 107.957 273.706 110.695H273.563V107.297H267.154V131.704H273.896V118.91C273.896 113.953 275.462 111.923 279.118 111.923C282.251 111.923 283.438 113.906 283.438 117.918V131.704H290.179V116.69C290.179 110.648 288.375 106.636 281.207 106.636ZM332.882 117.021C329.037 116.124 325.238 115.793 325.238 113.385C325.238 111.403 327.47 111.119 328.989 111.119C331.41 111.119 333.404 111.827 333.594 114.424H340.003C339.48 108.429 334.543 106.635 329.178 106.635C323.909 106.635 318.496 108.239 318.496 114.472C318.496 118.767 322.389 120.136 326.281 120.985C331.125 122.024 333.926 122.731 333.926 124.763C333.926 127.123 331.457 127.878 329.51 127.878C326.851 127.878 324.382 126.697 324.335 123.77H317.925C318.211 130.238 323.766 132.363 329.462 132.363C335.065 132.363 340.667 130.286 340.667 123.866C340.669 119.334 336.823 117.917 332.882 117.021ZM341.171 98.5594C339.051 98.5594 337.342 100.26 337.342 102.346C337.341 102.846 337.44 103.342 337.632 103.804C337.824 104.266 338.106 104.686 338.462 105.04C338.818 105.394 339.24 105.674 339.705 105.865C340.17 106.056 340.668 106.154 341.171 106.153C343.28 106.153 344.98 104.453 344.98 102.346C344.98 101.849 344.881 101.356 344.69 100.897C344.498 100.438 344.218 100.02 343.864 99.6685C343.511 99.3169 343.091 99.038 342.629 98.8477C342.167 98.6574 341.671 98.5594 341.171 98.5594ZM341.171 105.695C340.729 105.696 340.291 105.609 339.883 105.441C339.475 105.273 339.104 105.026 338.791 104.715C338.479 104.403 338.232 104.034 338.064 103.627C337.896 103.22 337.811 102.785 337.813 102.345C337.813 101.907 337.9 101.473 338.069 101.069C338.238 100.664 338.485 100.297 338.797 99.9877C339.109 99.6784 339.48 99.4334 339.887 99.2666C340.294 99.0999 340.731 99.0147 341.171 99.016C341.611 99.016 342.046 99.1021 342.453 99.2694C342.859 99.4367 343.228 99.682 343.539 99.9911C343.849 100.3 344.096 100.667 344.264 101.071C344.432 101.475 344.519 101.908 344.519 102.345C344.521 102.784 344.436 103.219 344.269 103.625C344.102 104.031 343.855 104.4 343.544 104.711C343.233 105.022 342.864 105.269 342.457 105.438C342.049 105.607 341.613 105.694 341.171 105.695Z" fill="#E9E9E9"/>
<path fill-rule="evenodd" clip-rule="evenodd" d="M343.13 101.352C343.13 100.995 342.97 100.617 342.65 100.437C342.33 100.249 341.97 100.229 341.611 100.229H339.751V104.473H340.272V102.516H341.231L342.451 104.473H343.07L341.781 102.516C342.54 102.495 343.13 102.187 343.13 101.352ZM341.071 102.108H340.271V100.607H341.49C342.019 100.607 342.6 100.686 342.6 101.343C342.6 102.207 341.67 102.108 341.071 102.108ZM242.254 110.47C241.876 110.861 241.342 110.66 241.338 110.121V107.297H234.929V131.704H241.671V120.704C241.671 116.407 243.294 112.712 249.489 112.712L249.502 106.636C246.225 106.636 244.075 107.593 242.254 110.47ZM143.807 23.9253L127.565 71.756H136.935L140.371 61.1964H158.176L155.99 54.363H142.245L149.117 32.6218L161.611 71.756H170.983L155.053 23.9253H143.807ZM180.665 71.756L184.101 61.1964H201.906L199.72 54.363H185.976L192.848 32.6218L205.343 71.756H214.713L198.783 23.9253H187.537L171.295 71.756H180.665ZM181.818 16.701C182.253 15.462 182.271 14.1162 181.87 12.8661L177.701 0.63623L175.564 6.90621L176.45 7.7874C176.866 8.25427 176.397 9.03037 175.929 8.56436L175.198 7.83822L174.468 10.1192L175.146 10.9478C175.511 11.3104 175.094 12.1399 174.625 11.6214L174.103 11.1028L173.372 13.227L174.155 13.9532C174.624 14.4717 174.051 15.1453 173.581 14.6784L173.06 14.1607L172.643 15.4046L177.491 29.5002L181.818 16.701ZM161.752 16.079C161.357 15.5441 161.022 15.7164 161.388 16.9602C161.752 18.2041 162.951 18.9293 163.524 19.7063C163.941 20.1732 163.524 20.4833 163.055 20.0164C162.586 19.5504 162.352 19.8105 162.664 20.7417C162.974 21.6659 164.306 22.8159 164.67 23.2302C165.036 23.6445 164.827 24.1105 164.409 23.6971C163.993 23.2827 163.576 23.5412 164.098 24.8892C164.618 26.2364 165.608 26.8583 166.547 27.2727C167.485 27.6878 166.911 27.8429 165.869 27.8429L169.543 38.648C170.325 38.8048 171.915 39.2183 171.029 39.711V40.4363C171.863 40.1253 172.905 39.9702 173.792 40.2287C173.426 39.711 173.269 39.6076 172.697 39.5542C172.228 39.2958 171.81 39.0365 172.071 38.2595L172.644 36.6005C172.904 35.8752 173.478 35.7202 174.155 36.4446L177.751 39.8652C177.934 40.046 177.543 40.046 177.543 40.2278C178.324 40.7713 179.419 39.2949 178.585 37.7918C177.751 36.2887 176.97 34.8898 176.448 33.335L165.349 0.765437L163.42 6.36268L164.202 7.26971C164.618 7.68403 164.072 8.35849 163.655 7.94331L163.108 7.29555L162.065 10.3793L163.108 11.5198C163.577 11.9866 163.056 12.7636 162.482 12.1417L161.701 11.3122C161.701 11.3122 160.502 14.0591 162.013 15.6139L162.378 16.0282C162.69 16.3383 162.326 16.8569 161.752 16.079ZM163.629 36.4722C163.863 36.4722 163.994 36.6798 164.046 36.8348H165.504C165.583 36.6281 165.713 36.4722 165.948 36.4722C166.131 36.4722 166.287 36.6014 166.339 36.8348C166.339 36.8348 167.043 36.8607 167.043 36.8348C167.043 36.8098 165.427 32.1188 165.427 32.1188L160.788 36.8348H163.211C163.211 36.834 163.342 36.4722 163.629 36.4722Z" fill="#E9E9E9"/>
</g>
<defs>
<clipPath id="clip0_36_407">
<rect width="345" height="133" fill="white"/>
</clipPath>
</defs>
</svg>
