<svg width="424" height="226" viewBox="0 0 424 226" fill="none" xmlns="http://www.w3.org/2000/svg">
<rect width="424" height="226" rx="12" fill="#E9E9E9"/>
<path d="M212.5 171C209.392 169.611 184.519 158.903 176.49 152.225C172.185 148.653 168.755 144.143 166.462 139.041C164.169 133.938 163.074 128.379 163.259 122.789V64.9194C176.917 57.6617 193.445 54 212.5 54C231.555 54 247.997 57.6818 261.741 64.9194V122.725C262.124 134.059 257.249 144.933 248.531 152.183C240.633 158.605 215.474 169.697 212.584 170.958L212.5 171Z" fill="#030E24"/>
<path d="M231.447 102.727C231.499 99.7292 232.735 96.8741 234.885 94.7845C237.035 92.695 239.924 91.5406 242.922 91.5734C246.274 91.3973 249.585 92.3798 252.298 94.3558V101.785C250.275 99.6866 247.527 98.4399 244.613 98.2936C242.194 98.2936 239.668 99.3429 239.582 102.383C239.496 105.423 242.022 106.665 245.212 108.591C252.36 112.873 253.775 116.555 253.585 121.544C253.558 124.737 252.211 127.759 249.863 129.944C247.516 132.129 244.375 133.207 241.191 132.979C237.873 132.951 234.622 132.043 231.77 130.346V122.511C234.03 124.555 236.91 125.784 239.949 126.001C241.291 126.176 242.642 125.745 243.631 124.818C244.62 123.891 245.148 122.577 245.064 121.226C245.064 118.549 243.479 117.072 239.734 114.803C232.69 110.672 231.405 107.268 231.405 102.707L231.447 102.727ZM210.723 99.0888C211.674 98.6723 212.703 98.4605 213.741 98.4673C218.708 98.4673 220.761 102.429 220.761 112.019C220.761 121.61 218.407 125.895 213.482 125.895C212.531 125.887 211.59 125.712 210.699 125.383V99.0943L210.723 99.0888ZM210.723 150.364H202.16V94.6757C205.619 92.5551 209.624 91.4948 213.677 91.6356C223.889 91.6356 229.498 99.3868 229.498 111.845C229.498 124.304 224.039 132.893 214.511 132.893C213.209 132.916 211.911 132.75 210.657 132.399V150.342L210.723 150.364ZM172.186 119.341V92.5368H180.749V119.727C180.749 122.145 181.327 125.741 185.265 125.741C186.67 125.777 188.055 125.397 189.246 124.65V92.5368H197.809V129.553C193.965 131.948 189.491 133.143 184.963 132.979C176.4 132.979 172.117 128.397 172.117 119.319L172.186 119.341ZM167.905 122.787C167.524 132.768 171.795 142.359 179.466 148.755C186.146 154.214 206.741 163.527 212.542 166.075C218.259 163.549 238.812 154.342 245.598 148.755C253.276 142.375 257.549 132.783 257.159 122.807V66.1351C228.533 63.4843 194.687 65.1113 167.883 89.6886V122.787H167.905Z" fill="#E9E9E9"/>
</svg>
