<svg width="865" height="452" viewBox="0 0 865 452" fill="none" xmlns="http://www.w3.org/2000/svg">
<rect width="865" height="452" rx="12" fill="#E9E9E9"/>
<g clip-path="url(#clip0_231_312)">
<path d="M362.965 175.61C362.818 176.594 362.583 177.194 362.288 177.738C361.834 178.56 360.748 180.375 358.556 179.201L354.223 176.876C352.103 175.742 352.939 173.791 353.387 172.969C353.703 172.394 354.156 171.865 354.763 171.215C354.789 171.21 354.809 171.175 354.825 171.139C354.896 171.019 354.825 170.932 354.763 170.877C354.595 170.721 354.544 170.695 354.422 170.625C354.33 170.58 354.213 170.585 354.06 170.66C353.422 171.154 352.597 172.364 352.418 172.697C351.7 174.013 351.047 176.332 353.821 177.819L358.031 180.073C360.825 181.57 362.328 179.705 363.047 178.393C363.256 178.011 363.812 176.745 363.939 175.973C363.914 175.803 363.868 175.686 363.776 175.641C363.612 175.546 363.435 175.474 363.251 175.424C363.175 175.404 363.067 175.394 362.997 175.515C362.98 175.55 362.96 175.584 362.965 175.61Z" fill="#030E24"/>
<path d="M360.327 160.73C358.921 162.545 359.395 164.385 360.756 165.413L365.446 168.973C366.771 169.976 368.514 169.82 369.921 168.005C371.328 166.19 371.033 164.481 369.708 163.477L365.012 159.918C363.656 158.89 361.735 158.915 360.327 160.73ZM369.141 167.41C368.397 168.373 367.219 169.038 365.945 168.07L361.556 164.743C360.119 163.653 360.364 162.288 361.113 161.325C361.857 160.362 363.126 159.772 364.564 160.861L368.953 164.188C370.232 165.156 369.886 166.447 369.141 167.41Z" fill="#030E24"/>
<path d="M368.575 152.144L376.166 160.024C376.319 160.18 376.533 160.226 376.722 160.049L376.91 159.873C377.099 159.691 377.064 159.48 376.91 159.323L373.413 155.693L376.442 152.84C376.569 152.714 376.589 152.588 376.462 152.457L376.13 152.114C376.018 151.998 375.891 152.008 375.758 152.134L372.73 154.987L369.718 151.862L373.591 148.212C373.724 148.086 373.74 147.959 373.618 147.833L373.311 147.516C373.259 147.464 373.189 147.433 373.115 147.431C373.04 147.429 372.968 147.456 372.914 147.506L368.575 151.594C368.382 151.776 368.422 151.988 368.575 152.144Z" fill="#030E24"/>
<path d="M379.469 142.762L385.775 151.68C385.902 151.856 386.101 151.937 386.316 151.786L386.529 151.64C386.748 151.493 386.743 151.277 386.616 151.095L383.71 146.986L387.136 144.616C387.289 144.516 387.325 144.395 387.217 144.244L386.942 143.856C386.85 143.724 386.723 143.714 386.575 143.82L383.145 146.19L380.641 142.65L385.03 139.62C385.178 139.515 385.214 139.394 385.107 139.248L384.857 138.89C384.814 138.83 384.749 138.79 384.676 138.777C384.602 138.764 384.527 138.779 384.465 138.82L379.551 142.217C379.337 142.368 379.342 142.58 379.469 142.762Z" fill="#030E24"/>
<path d="M397.214 131.956L391.84 134.577C391.606 134.688 391.576 134.905 391.672 135.102L396.535 144.862C396.637 145.054 396.825 145.164 397.06 145.049L402.433 142.427C402.597 142.351 402.653 142.235 402.571 142.074L402.367 141.666C402.286 141.504 402.163 141.474 402 141.555L397.198 143.894L395.215 139.916L398.972 138.086C399.13 138.006 399.186 137.89 399.104 137.728L398.895 137.3C398.824 137.158 398.697 137.133 398.533 137.209L394.782 139.039L392.85 135.167L397.651 132.827C397.815 132.752 397.866 132.637 397.789 132.475L397.591 132.082C397.557 132.016 397.499 131.967 397.428 131.943C397.358 131.92 397.281 131.924 397.214 131.956Z" fill="#030E24"/>
<path d="M411.07 127.009L405.35 128.789C405.101 128.864 405.04 129.07 405.106 129.282L408.404 139.662C408.47 139.869 408.639 140.006 408.888 139.93L414.608 138.15C414.781 138.095 414.852 137.989 414.801 137.823L414.659 137.384C414.608 137.213 414.486 137.167 414.312 137.223L409.21 138.806L407.864 134.576L411.855 133.336C412.028 133.28 412.1 133.174 412.044 133.003L411.9 132.549C411.855 132.398 411.733 132.352 411.56 132.403L407.568 133.643L406.262 129.524L411.366 127.941C411.539 127.886 411.61 127.78 411.555 127.608L411.422 127.195C411.399 127.125 411.35 127.067 411.284 127.032C411.219 126.997 411.142 126.989 411.07 127.009Z" fill="#030E24"/>
<path d="M436.656 134.785L435.82 132.869C435.525 132.189 434.429 130.349 433.69 130.046L433.603 129.93C435.657 129.511 436.218 128.15 436.147 126.683C436.065 125.014 435.173 123.603 432.339 123.733L429.168 123.885C428.903 123.895 428.791 124.082 428.801 124.298L429.327 135.168C429.337 135.385 429.464 135.561 429.724 135.546L429.989 135.536C430.249 135.521 430.361 135.339 430.351 135.117L430.111 130.152L432.201 130.056C433.282 130.762 434.551 132.416 435.051 133.585L435.662 135.012C435.729 135.188 435.872 135.259 436.076 135.249L436.254 135.239C436.539 135.229 436.671 135.082 436.656 134.785ZM430.066 129.178L429.856 124.828L432.104 124.722C433.333 124.662 435.02 124.586 435.122 126.728C435.225 128.896 433.542 129.018 432.313 129.073L430.066 129.178Z" fill="#030E24"/>
<path d="M447.444 124.078C445.146 123.821 443.795 125.172 443.606 126.856L442.938 132.664C442.754 134.308 443.79 135.704 446.088 135.961C448.388 136.218 449.708 135.084 449.896 133.441L450.559 127.633C450.753 125.949 449.743 124.335 447.444 124.078ZM446.195 134.993C444.977 134.857 443.8 134.202 443.978 132.623L444.6 127.183C444.804 125.404 446.114 124.91 447.332 125.046C448.55 125.182 449.718 125.954 449.514 127.733L448.897 133.168C448.714 134.751 447.419 135.129 446.195 134.993Z" fill="#030E24"/>
<path d="M464.066 139.356L464.081 128.274C464.088 127.881 463.878 127.534 463.47 127.417L462.481 127.14C462.078 127.024 461.711 127.21 461.507 127.548L455.609 136.971C455.543 137.203 455.666 137.359 455.803 137.399L456.15 137.495C456.288 137.535 456.45 137.541 456.629 137.279L458.383 134.465L463.047 135.781L463.032 139.083C463.047 139.401 463.19 139.482 463.327 139.522L463.674 139.618C463.811 139.658 464.001 139.588 464.066 139.356ZM463.047 134.768L458.923 133.603L462.348 128.113L463.047 128.31V134.768Z" fill="#030E24"/>
<path d="M470.959 141.04C470.797 140.965 470.684 140.975 470.603 141.05C470.484 141.188 470.385 141.342 470.312 141.509C470.262 141.615 470.267 141.751 470.348 141.902C470.791 142.462 472.077 143.172 472.637 143.44C475.782 144.917 476.863 143.309 477.418 142.16C478.937 138.998 473.6 136.115 474.524 134.194C475.231 132.717 476.205 132.959 477.806 133.71C478.492 134.031 479.12 134.46 479.666 134.98C479.81 135.046 479.947 135.091 480.023 134.975C480.105 134.855 480.177 134.758 480.233 134.632C480.261 134.569 480.273 134.5 480.268 134.432C480.262 134.363 480.24 134.297 480.202 134.239C479.628 133.663 478.962 133.186 478.229 132.827C475.048 131.335 474.105 132.697 473.56 133.826C472.25 136.558 477.72 139.175 476.475 141.761C475.548 143.681 474.427 143.198 472.897 142.482C472.01 142.064 471.393 141.489 470.959 141.04Z" fill="#030E24"/>
<path d="M493.602 142.08L488.244 138.45C488.096 138.349 487.954 138.374 487.851 138.52L487.612 138.863C487.51 139.014 487.535 139.151 487.689 139.251L489.941 140.784L484.054 149.284C483.926 149.461 483.926 149.677 484.141 149.824L484.354 149.97C484.573 150.116 484.773 150.035 484.9 149.854L490.788 141.354L493.046 142.886C493.193 142.987 493.337 142.962 493.438 142.811L493.678 142.468C493.78 142.322 493.749 142.18 493.602 142.08Z" fill="#030E24"/>
<path d="M504.83 151.66L500.461 147.602C500.272 147.421 500.058 147.471 499.91 147.632L492.376 155.562C492.223 155.719 492.187 155.931 492.376 156.107L496.744 160.171C496.877 160.291 497.004 160.301 497.127 160.171L497.448 159.838C497.571 159.707 497.55 159.581 497.418 159.46L493.523 155.835L496.592 152.603L499.64 155.437C499.773 155.557 499.9 155.567 500.028 155.437L500.354 155.089C500.466 154.973 500.451 154.847 500.318 154.726L497.27 151.892L500.257 148.746L504.157 152.371C504.29 152.492 504.417 152.502 504.539 152.371L504.845 152.054C504.894 151.999 504.92 151.927 504.918 151.854C504.915 151.781 504.883 151.711 504.83 151.66Z" fill="#030E24"/>
<path d="M505.993 170.424L507.094 168.649C507.492 168.014 508.384 166.073 508.211 165.297L508.256 165.16C509.781 166.587 511.229 166.26 512.406 165.357C513.742 164.329 514.394 162.796 512.656 160.577L510.708 158.097C510.55 157.891 510.331 157.906 510.158 158.042L501.461 164.712C501.288 164.842 501.222 165.049 501.379 165.252L501.538 165.458C501.701 165.66 501.915 165.644 502.093 165.513L506.064 162.463L507.349 164.097C507.385 165.377 506.748 167.353 506.064 168.432L505.234 169.748C505.132 169.905 505.152 170.061 505.274 170.222L505.387 170.363C505.559 170.58 505.759 170.606 505.993 170.424ZM506.845 161.868L510.326 159.196L511.707 160.956C512.458 161.919 513.492 163.235 511.779 164.556C510.046 165.881 508.975 164.586 508.226 163.628L506.845 161.868Z" fill="#030E24"/>
<path d="M510.478 175.77C510.391 175.613 510.289 175.552 510.183 175.568C509.938 175.628 509.871 175.668 509.677 175.769C509.571 175.829 509.494 175.936 509.474 176.107C509.499 176.817 510.111 178.144 510.411 178.683C512.073 181.703 513.904 181.033 515.035 180.428C518.144 178.748 515.534 173.314 517.426 172.296C518.873 171.514 519.521 172.276 520.373 173.808C520.765 174.529 521 175.24 521.122 175.92C521.198 176.062 521.285 176.172 521.417 176.122C521.545 176.082 521.67 176.031 521.789 175.971C521.848 175.935 521.898 175.885 521.933 175.827C521.969 175.768 521.989 175.701 521.994 175.633C521.875 174.833 521.618 174.058 521.234 173.344C519.552 170.289 517.976 170.844 516.865 171.444C514.179 172.891 517.054 178.184 514.51 179.555C512.618 180.574 511.996 179.525 511.187 178.058C510.717 177.201 510.56 176.38 510.478 175.77Z" fill="#030E24"/>
<path d="M252.505 203.216V204.769L252.75 207.703V252.532L252.505 255.466V257.014H256.705V255.466L256.461 252.532V232.315H265.773C279.206 232.315 288.107 226.447 288.107 217.725C288.107 209.003 280.032 203.215 267.834 203.215H252.504L252.505 203.216ZM256.461 205.419C259.84 205.419 266.845 205.419 266.926 205.499C277.23 205.499 284.151 210.556 284.151 218.053C284.151 225.308 277.147 230.117 266.599 230.117C266.599 230.117 262.476 230.037 256.461 230.037V205.419Z" fill="#030E24"/>
<path d="M303.621 203.136V204.684L303.866 207.623V252.452L303.621 255.386V256.934H307.822V255.386L307.577 252.452V231.177H314.913L336.915 256.934H341.778L319.363 230.93C326.943 229.71 335.518 224.411 335.518 216.995C335.518 208.682 328.264 203.135 317.467 203.135L303.621 203.136ZM307.496 205.339C310.544 205.339 316.396 205.339 316.478 205.419C325.46 205.419 331.475 210.149 331.475 217.318C331.475 224.25 321.835 228.893 314.826 228.893H307.495L307.496 205.339Z" fill="#030E24"/>
<path d="M379.216 257.831C395.366 257.831 406.163 246.826 406.163 230.279C406.163 213.572 395.366 202.405 379.216 202.405C362.98 202.405 352.183 213.405 352.183 229.871C352.183 246.664 362.98 257.831 379.216 257.831ZM356.139 228.485C356.139 213.98 365.04 204.361 378.472 204.361C392.731 204.361 402.208 215.281 402.208 231.666C402.208 246.175 393.307 255.79 380.037 255.79C365.697 255.79 356.139 244.87 356.139 228.485Z" fill="#030E24"/>
<path d="M422.002 231.257C422.002 247.072 432.799 257.664 449.036 257.664C456.452 257.664 463.788 255.955 467.499 253.429L467.662 250.737L466.51 250.899C466.098 251.146 461.566 253.51 461.566 253.51C457.855 254.897 453.323 255.708 449.117 255.708C435.19 255.708 425.876 245.439 425.876 230.117C425.876 214.63 435.603 204.36 450.274 204.36C453.898 204.36 457.61 205.01 460.658 206.15L461.152 206.397C462.555 207.214 464.283 208.192 465.684 209.003C466.098 209.003 466.51 208.923 467.005 208.923L466.923 206.236C464.038 203.871 457.359 202.238 450.192 202.238C433.293 202.238 422.002 213.813 422.002 231.257Z" fill="#030E24"/>
<path d="M484.905 257.014H521.002V254.322H519.599L514.823 254.73H488.861V230.44C492.404 230.44 496.028 230.359 499.576 230.359C503.119 230.359 506.662 230.44 509.96 230.687H511.856V227.914C509.96 227.914 508.308 227.995 506.58 228.161H488.861V205.419C493.642 205.419 498.505 205.339 503.363 205.339C508.227 205.339 513.09 205.419 517.541 205.747H518.942V203.216H484.905V204.769L485.15 207.703V252.532L484.905 255.466V257.014Z" fill="#030E24"/>
<path d="M536.841 248.374L537.091 253.919C541.954 256.279 548.301 257.912 552.832 257.912C562.146 257.912 568.324 251.716 568.324 242.425C568.324 235.089 563.548 230.607 554.234 227.592C546.154 224.981 541.954 221.316 541.954 215.447C541.954 208.843 546.236 204.442 552.751 204.442C554.56 204.442 559.674 205.42 560.907 207.134C561.814 208.112 562.885 209.493 563.792 210.471C564.369 210.471 564.95 210.391 565.525 210.391L565.276 206.236C562.309 203.953 557.446 202.486 553.164 202.486C544.345 202.486 538.411 208.193 538.411 216.829C538.411 223.514 542.862 227.592 551.43 230.36C560.249 233.214 564.781 237.126 564.781 243.403C564.781 250.899 559.999 255.956 552.914 255.956C550.691 255.956 546.567 254.812 542.117 252.941C541.943 252.847 541.799 252.706 541.704 252.533C540.715 251.227 539.563 249.599 538.574 248.293H537.666C537.422 248.293 537.091 248.374 536.841 248.374Z" fill="#030E24"/>
<path d="M583.012 248.374L583.262 253.919C588.125 256.279 594.472 257.912 599.004 257.912C608.318 257.912 614.496 251.716 614.496 242.425C614.496 235.089 609.719 230.607 600.406 227.592C592.326 224.981 588.125 221.316 588.125 215.447C588.125 208.843 592.408 204.442 598.922 204.442C600.732 204.442 605.845 205.42 607.078 207.134C607.986 208.112 609.057 209.493 609.964 210.471C610.54 210.471 611.121 210.391 611.697 210.391L611.447 206.236C608.481 203.953 603.617 202.486 599.335 202.486C590.516 202.486 584.582 208.193 584.582 216.829C584.582 223.514 589.032 227.592 597.602 230.36C606.421 233.214 610.953 237.126 610.953 243.403C610.953 250.899 606.171 255.956 599.085 255.956C596.863 255.956 592.739 254.812 588.288 252.941C588.114 252.847 587.971 252.705 587.876 252.533C586.887 251.227 585.734 249.599 584.745 248.293H583.838C583.593 248.293 583.262 248.374 583.012 248.374Z" fill="#030E24"/>
<path d="M400.864 302.325L395.73 299.27C395.507 299.134 395.308 299.225 395.195 299.411L389.522 308.738C389.405 308.925 389.415 309.136 389.639 309.272L394.773 312.328C394.93 312.423 395.058 312.403 395.15 312.252L395.39 311.859C395.481 311.707 395.44 311.586 395.282 311.496L390.699 308.763L393.013 304.962L396.597 307.099C396.751 307.19 396.878 307.175 396.975 307.019L397.225 306.61C397.306 306.474 397.26 306.358 397.107 306.263L393.523 304.13L395.772 300.43L400.354 303.162C400.512 303.253 400.639 303.238 400.731 303.081L400.961 302.708C400.998 302.644 401.008 302.569 400.99 302.497C400.972 302.426 400.927 302.364 400.864 302.325Z" fill="#030E24"/>
<path d="M402.741 314.674C402.573 314.608 402.455 314.623 402.384 314.704C402.271 314.847 402.184 315.01 402.129 315.183C402.083 315.294 402.093 315.425 402.19 315.571C402.67 316.095 403.999 316.721 404.581 316.947C407.818 318.203 408.786 316.529 409.26 315.344C410.551 312.087 405.025 309.572 405.809 307.59C406.411 306.073 407.405 306.244 409.052 306.885C409.759 307.158 410.417 307.543 411 308.024C411.147 308.084 411.285 308.115 411.355 307.994C411.427 307.873 411.488 307.767 411.54 307.641C411.562 307.576 411.569 307.507 411.558 307.439C411.547 307.372 411.52 307.308 411.478 307.253C410.868 306.715 410.17 306.284 409.414 305.977C406.136 304.707 405.29 306.128 404.826 307.298C403.709 310.111 409.347 312.345 408.287 315.011C407.502 316.993 406.345 316.584 404.775 315.974C403.857 315.616 403.205 315.087 402.741 314.674Z" fill="#030E24"/>
<path d="M424.031 310.155L417.669 308.839C417.491 308.799 417.374 308.879 417.337 309.051L417.251 309.459C417.21 309.635 417.292 309.756 417.465 309.792L420.146 310.346L418.011 320.429C417.965 320.646 418.046 320.848 418.301 320.898L418.556 320.954C418.811 321.004 418.969 320.853 419.015 320.641L421.15 310.553L423.827 311.108C424.006 311.143 424.123 311.067 424.159 310.891L424.246 310.482C424.286 310.311 424.204 310.19 424.031 310.155Z" fill="#030E24"/>
<path d="M429.313 321.828L429.292 322.065C429.277 322.282 429.384 322.469 429.649 322.489L429.91 322.509C430.17 322.524 430.302 322.358 430.317 322.136L430.338 321.899C430.353 321.682 430.246 321.496 429.986 321.475L429.721 321.455C429.461 321.44 429.329 321.607 429.313 321.828Z" fill="#030E24"/>
<path d="M437.922 311.302C437.785 311.373 437.693 311.514 437.703 311.655C437.703 311.676 437.688 311.696 437.851 312.064C437.882 312.2 437.964 312.255 438.106 312.25C439.07 311.928 439.687 311.766 440.389 311.726C442.092 311.615 443.081 311.61 443.208 313.536C443.362 315.9 437.662 317.221 437.907 320.932L438.009 322.5C438.019 322.661 438.162 322.752 438.326 322.737L444.325 322.359C444.529 322.343 444.621 322.258 444.611 322.081L444.58 321.622C444.569 321.446 444.463 321.37 444.264 321.386L438.983 321.718L438.942 321.103C438.713 317.589 444.437 316.606 444.229 313.41C444.147 312.139 443.979 310.516 440.507 310.738C439.783 310.783 438.687 310.955 437.922 311.302Z" fill="#030E24"/>
<path d="M452.908 308.907C450.66 309.436 449.855 311.16 450.252 312.809L451.618 318.496C452.005 320.104 453.458 321.067 455.706 320.538C457.96 320.008 458.816 318.501 458.429 316.893L457.057 311.206C456.665 309.557 455.161 308.377 452.908 308.907ZM455.483 319.59C454.285 319.872 452.954 319.655 452.582 318.108L451.297 312.784C450.879 311.044 451.945 310.137 453.137 309.855C454.33 309.577 455.696 309.91 456.115 311.649L457.394 316.973C457.766 318.521 456.675 319.313 455.483 319.59Z" fill="#030E24"/>
<path d="M462.309 306.507C462.208 306.618 462.166 306.784 462.223 306.91C462.233 306.931 462.218 306.956 462.498 307.248C462.575 307.369 462.671 307.394 462.798 307.339C463.604 306.719 464.129 306.366 464.777 306.094C466.352 305.433 467.28 305.105 468.044 306.88C468.988 309.058 464.053 312.174 465.526 315.597L466.148 317.039C466.214 317.19 466.383 317.225 466.531 317.16L472.061 314.831C472.251 314.755 472.311 314.639 472.239 314.478L472.056 314.054C471.985 313.888 471.862 313.858 471.679 313.933L466.811 315.985L466.566 315.415C465.17 312.179 470.236 309.371 468.967 306.426C468.463 305.257 467.759 303.78 464.558 305.126C463.894 305.408 462.916 305.927 462.309 306.507Z" fill="#030E24"/>
<path d="M475.008 300.156L473.84 302.934C473.728 303.211 473.57 303.448 473.728 303.7L473.952 304.058C474.059 304.224 474.177 304.27 474.299 304.194C474.461 304.086 474.577 303.922 474.626 303.735L475.798 300.887L476.124 300.69L481.476 309.226C481.593 309.412 481.793 309.498 482.017 309.362L482.237 309.226C482.46 309.089 482.465 308.878 482.348 308.691L476.547 299.445C476.43 299.258 476.236 299.168 476.012 299.304L475.313 299.732C475.176 299.818 475.089 299.984 475.008 300.156Z" fill="#030E24"/>
<path fill-rule="evenodd" clip-rule="evenodd" d="M542.466 272C524.504 312.786 483.384 341.3 435.53 341.3C387.676 341.3 346.555 312.786 328.594 272H326.72C344.789 313.749 386.705 343 435.53 343C484.354 343 526.271 313.749 544.34 272H542.466ZM329.967 177C348.592 137.823 388.858 110.7 435.53 110.7C482.202 110.7 522.468 137.823 541.093 177H542.99C524.243 136.856 483.176 109 435.53 109C387.884 109 346.815 136.857 328.07 177H329.967Z" fill="#030E24"/>
</g>
<defs>
<clipPath id="clip0_231_312">
<rect width="363" height="234" fill="white" transform="translate(252 109)"/>
</clipPath>
</defs>
</svg>
