<svg width="424" height="226" viewBox="0 0 424 226" fill="none" xmlns="http://www.w3.org/2000/svg">
<rect width="424" height="226" rx="12" fill="#E9E9E9"/>
<g clip-path="url(#clip0_231_148)">
<path d="M164.511 98.957C152.478 98.957 142.639 108.796 142.639 120.83C142.639 132.864 152.478 142.703 164.511 142.703C176.545 142.703 186.384 132.864 186.384 120.83C186.384 108.796 176.545 98.957 164.511 98.957ZM175.183 120.565C175.183 126.582 170.528 131.501 164.776 131.501C159.024 131.501 154.37 126.582 154.37 120.565C154.37 114.548 159.024 109.628 164.776 109.628C170.528 109.628 175.183 114.548 175.183 120.565ZM241.104 99.7517C240.839 99.4868 240.574 99.4868 240.272 99.4868H231.53C231 99.4868 230.433 100.017 230.433 100.584V140.243C230.433 140.508 230.433 140.773 230.697 141.075C230.962 141.34 231.227 141.34 231.53 141.34H240.272C240.801 141.34 241.369 140.81 241.369 140.243V100.584C241.407 100.319 241.407 100.054 241.104 99.7517ZM235.92 94.3024C239.212 94.3024 241.937 91.5777 241.937 88.2855C242.201 84.9932 239.212 82.2686 235.92 82.2686C232.627 82.2686 229.903 84.9932 229.903 88.2855C229.903 91.8426 232.627 94.3024 235.92 94.3024ZM224.151 83.0632H192.174C191.644 83.0632 191.077 83.593 191.077 84.1607V140.243C191.077 140.508 191.077 140.773 191.342 141.075C191.606 141.34 191.871 141.34 192.174 141.34H200.916C201.445 141.34 202.013 140.81 202.013 140.243V117.537H221.691C221.956 117.537 222.221 117.537 222.524 117.273C222.788 117.008 222.788 116.743 222.788 116.44V108.266C222.788 107.736 222.259 107.169 221.691 107.169H202.013V93.5077H224.189C224.453 93.5077 224.718 93.5077 225.021 93.2428C225.324 92.9779 225.286 92.713 225.286 92.4103V84.1985C225.248 83.6309 224.718 83.0632 224.151 83.0632ZM122.128 107.434C113.387 103.612 110.624 101.947 110.624 98.6921C110.624 94.3024 114.711 92.9401 118.571 92.9401C122.658 92.9401 127.048 95.1349 127.048 101.152C127.048 101.682 127.312 101.984 127.88 101.984H137.454C137.719 101.719 137.984 101.455 137.984 101.152C137.984 90.2154 130.037 82.2686 118.571 82.2686C107.067 82.2686 99.6876 88.8153 99.6876 98.6921C99.6876 110.461 108.429 114.018 116.906 117.31L117.436 117.575C125.383 120.603 128.107 121.965 128.107 125.787C128.107 130.971 122.62 131.804 119.63 131.804C113.878 131.804 109.527 127.717 109.527 122.23V121.7C109.527 121.17 109.262 120.868 108.694 120.868H99.1578C98.893 120.868 98.3253 121.133 98.3253 121.7V122.533C98.3253 134.567 107.067 142.778 119.403 142.778C131.172 142.778 139.081 135.929 139.081 126.09C139.346 115.91 134.162 112.353 122.128 107.434ZM325.379 139.713C325.379 141.34 324.281 142.438 322.654 142.438C321.027 142.438 319.929 141.34 319.929 139.713C319.929 138.086 321.027 136.988 322.654 136.988C324.281 136.988 325.379 138.048 325.379 139.713ZM320.459 139.713C320.459 141.075 321.292 141.908 322.654 141.908C324.016 141.908 324.849 141.075 324.849 139.713C324.849 138.351 324.016 137.518 322.654 137.518C321.292 137.518 320.459 138.351 320.459 139.713ZM323.751 139.145C323.751 139.41 323.487 139.675 323.222 139.978L323.751 141.075H322.919L322.389 139.978H322.124V141.075H321.594V138.351H322.692C323.184 138.351 323.751 138.616 323.751 139.145ZM322.351 138.881V139.713H322.616C322.881 139.713 323.146 139.448 323.146 139.448C323.146 139.183 322.881 139.183 322.616 139.183H322.351V138.881ZM311.15 84.7283C314.972 84.7283 317.999 87.7557 317.999 91.5777C317.999 95.3998 314.972 98.4272 311.15 98.4272C307.328 98.4272 304.301 95.3998 304.301 91.5777C304.301 87.7178 307.328 84.7283 311.15 84.7283ZM311.15 82.2686C305.966 82.2686 301.576 86.6583 301.576 91.8426C301.576 97.027 305.966 101.417 311.15 101.417C316.334 101.417 320.724 97.027 320.724 91.8426C320.724 86.6204 316.334 82.2686 311.15 82.2686Z" fill="#030E24"/>
<path d="M290.639 105.504C292.569 105.504 294.197 106.336 295.559 107.434C296.921 108.796 297.489 110.461 297.489 112.353C297.489 116.175 294.461 119.203 290.639 119.203C288.709 119.203 287.082 118.37 285.72 117.273C284.358 115.91 283.79 114.245 283.79 112.353C283.525 108.531 286.817 105.504 290.639 105.504ZM290.639 102.779C285.455 102.779 281.065 107.169 281.065 112.353C281.065 117.538 285.455 121.927 290.639 121.927C295.824 121.927 300.213 117.538 300.213 112.353C300.213 107.169 295.824 102.779 290.639 102.779Z" fill="#030E24"/>
<path d="M306.571 103.914C311.226 101.379 317.016 103.12 319.551 107.736C322.086 112.353 320.346 118.181 315.729 120.716C311.074 123.252 305.284 121.511 302.749 116.894C300.214 112.277 301.916 106.45 306.571 103.914ZM306.533 124.425C311.188 121.889 316.978 123.63 319.513 128.247C322.049 132.901 320.308 138.691 315.691 141.227C311.074 143.762 305.247 142.021 302.711 137.405C300.176 132.788 301.916 126.96 306.533 124.425ZM261.312 108.38C263.469 103.536 269.107 101.379 273.951 103.498C278.795 105.655 280.952 111.293 278.833 116.137C276.714 120.981 271.037 123.138 266.193 121.019C261.35 118.9 259.155 113.223 261.312 108.38ZM281.86 87.907C284.017 83.0632 289.656 80.9062 294.499 83.0253C299.343 85.1824 301.5 90.8209 299.381 95.6647C297.224 100.508 291.586 102.665 286.742 100.546C281.898 98.4271 279.703 92.713 281.86 87.907ZM261.312 87.8692C263.469 83.0254 269.107 80.8683 273.951 82.9875C278.795 85.1445 280.952 90.783 278.833 95.6268C276.714 100.471 271.037 102.628 266.193 100.508C261.387 98.3515 259.193 92.713 261.312 87.8692ZM281.822 128.966C283.979 124.122 289.618 121.965 294.462 124.084C299.305 126.241 301.462 131.88 299.343 136.723C297.186 141.567 291.548 143.724 286.704 141.605C281.86 139.448 279.665 133.81 281.822 128.966Z" fill="#030E24"/>
<path d="M270.129 126.014C272.059 126.014 273.686 126.847 275.048 127.944C276.411 129.306 276.978 130.972 276.978 132.864C276.978 136.686 273.951 139.713 270.129 139.713C266.307 139.713 263.279 136.686 263.279 132.864C263.015 129.042 266.307 126.014 270.129 126.014ZM270.129 123.29C264.945 123.29 260.555 127.679 260.555 132.864C260.555 138.048 264.945 142.438 270.129 142.438C275.313 142.438 279.703 138.048 279.703 132.864C279.703 127.679 275.313 123.29 270.129 123.29Z" fill="#030E24"/>
</g>
<defs>
<clipPath id="clip0_231_148">
<rect width="227.612" height="61" fill="white" transform="translate(98.194 82)"/>
</clipPath>
</defs>
</svg>
