<svg width="560" height="68" viewBox="0 0 560 68" fill="none" xmlns="http://www.w3.org/2000/svg">
<g clip-path="url(#clip0_159_463)">
<path d="M416.714 64.244L416.682 2.68774H433.763L433.796 48.5068H452.946V64.244H416.714Z" fill="#030E24"/>
<path d="M361.135 64.2763L361.069 2.72013H378.15L378.183 24.3182L395.363 24.2858V2.72013L412.411 2.68774L412.444 64.2439H395.396V41.3506L378.183 41.383V64.2439L361.135 64.2763Z" fill="#030E24"/>
<path d="M303.092 2.75244L278.455 32.0896L306.639 64.3087H284.04L264.889 42.3868H264.856V64.3087H247.808L247.775 2.78482L264.856 2.75244V21.2096H264.725L280.985 2.75244H303.092Z" fill="#030E24"/>
<path d="M293.861 32.9962C293.926 26.7236 295.873 20.6103 299.458 15.4272C303.042 10.2441 308.103 6.22318 314.002 3.8714C319.902 1.51962 326.375 0.942283 332.607 2.21219C338.839 3.48209 344.55 6.54238 349.02 11.0072C353.49 15.472 356.518 21.1415 357.724 27.3008C358.93 33.46 358.259 39.8334 355.796 45.6172C353.332 51.4011 349.187 56.3364 343.882 59.8011C338.577 63.2658 332.35 65.1046 325.987 65.0857C321.732 65.0688 317.523 64.2248 313.6 62.6022C309.676 60.9795 306.116 58.6101 303.123 55.6294C300.13 52.6488 297.762 49.1155 296.156 45.2318C294.55 41.348 293.736 37.1902 293.762 32.9962M325.987 48.7657C330.031 48.5563 333.826 46.7758 336.541 43.8141C339.256 40.8525 340.67 36.9509 340.473 32.9638C340.69 30.9586 340.476 28.9309 339.846 27.0124C339.216 25.0938 338.184 23.3274 336.816 21.8278C335.448 20.3283 333.776 19.1291 331.907 18.3082C330.039 17.4874 328.016 17.0631 325.97 17.0631C323.925 17.0631 321.902 17.4874 320.033 18.3082C318.165 19.1291 316.492 20.3283 315.125 21.8278C313.757 23.3274 312.725 25.0938 312.095 27.0124C311.465 28.9309 311.251 30.9586 311.468 32.9638C311.28 36.9541 312.701 40.8555 315.422 43.8161C318.142 46.7768 321.94 48.5562 325.987 48.7657Z" fill="#030E24"/>
<path d="M473.543 2.68765L491.084 2.65527V16.8381L473.97 16.8705L473.871 26.5848H489.737V40.3467L473.937 40.3791V49.7695H491.248V64.2114H473.707L456.461 64.2438L456.428 2.68765H473.543Z" fill="#030E24"/>
<path d="M526.593 39.5695L544.364 64.2114H525.706L511.778 45.3333V64.179H495.091V2.6228H516.508C535.33 2.6228 547.287 25.8723 526.658 39.5695H526.593ZM516.508 28.7542C518.103 28.7542 519.632 28.1299 520.759 27.0186C521.886 25.9073 522.52 24.4001 522.52 22.8285C522.52 21.2569 521.886 19.7497 520.759 18.6384C519.632 17.5271 518.103 16.9028 516.508 16.9028H511.68V28.7542H516.508Z" fill="#030E24"/>
<path d="M546.466 61.0705C546.453 59.8382 546.812 58.6298 547.497 57.599C548.182 56.5681 549.162 55.7611 550.314 55.2806C551.465 54.8001 552.735 54.6677 553.963 54.9002C555.19 55.1328 556.32 55.7197 557.209 56.5866C558.098 57.4534 558.705 58.5611 558.954 59.7688C559.202 60.9765 559.081 62.2299 558.606 63.3697C558.131 64.5095 557.322 65.4844 556.284 66.1704C555.245 66.8565 554.023 67.2228 552.773 67.2229C551.947 67.2358 551.126 67.086 550.359 66.7822C549.592 66.4784 548.895 66.0268 548.308 65.4537C547.72 64.8807 547.255 64.1978 546.938 63.4451C546.622 62.6925 546.462 61.8851 546.466 61.0705ZM558.062 61.0705C558.068 60.0289 557.76 59.009 557.176 58.1407C556.592 57.2724 555.76 56.5951 554.784 56.1951C553.808 55.795 552.734 55.6904 551.698 55.8944C550.662 56.0985 549.711 56.602 548.966 57.3408C548.221 58.0796 547.716 59.0203 547.516 60.043C547.315 61.0657 547.428 62.1241 547.84 63.0833C548.252 64.0425 548.944 64.8592 549.828 65.4291C550.713 65.9991 551.749 66.2966 552.806 66.2838C554.198 66.2587 555.525 65.7003 556.506 64.7271C557.487 63.7539 558.045 62.4424 558.062 61.0705ZM555.729 64.3086H554.58L552.543 61.0705H551.393V64.3086H550.441V57.6705H553.463C554.678 57.6705 555.894 57.9943 555.894 59.4514C555.894 60.9086 554.908 61.2648 553.726 61.2971L555.729 64.3086ZM552.445 60.261C553.299 60.261 554.777 60.4229 554.777 59.3219C554.777 58.221 553.857 58.5124 553.102 58.5124H551.295V60.2286L552.642 60.3581L552.445 60.261Z" fill="#030E24"/>
<path d="M7.35723 44.0705C7.35723 56.7639 16.4234 60.6496 27.8875 60.6496C34.4572 60.6496 44.3118 57.0877 44.3118 48.1181C44.3118 41.1562 37.3151 38.4039 31.468 36.9791L17.5403 33.741C10.2807 31.7981 3.5468 28.4629 3.5468 18.781C3.5468 12.7581 7.35723 1.4248 25.0954 1.4248C37.5121 1.4248 48.0894 7.901 48.0894 20.5943H42.2423C41.8153 11.2686 34.0959 6.47623 25.1611 6.47623C17.0147 6.47623 9.49238 9.71433 9.49238 18.6839C9.49238 24.48 13.7627 26.9734 18.9527 28.1067L34.1616 31.7981C43.0307 34.1296 50.3888 38.0153 50.3888 47.9886C50.3888 52.2305 48.6478 65.6039 26.475 65.6039C11.6932 65.6039 0.820379 59.1277 1.5102 44.0058H7.35723V44.0705Z" fill="#030E24"/>
<path d="M67.371 19.817H76.5685V24.3827H67.371V54.4323C67.371 57.9618 67.8965 60.0342 71.8384 60.2932C73.4186 60.2876 74.9974 60.2011 76.5685 60.0342V64.7618C74.8933 64.7618 73.2837 64.9237 71.6413 64.9237C64.2832 64.9237 61.7867 62.5275 61.7867 54.918V24.3827H53.9031V19.817H61.7867V6.47607H67.3053V19.817H67.371Z" fill="#030E24"/>
<path d="M119.041 64.3733H114.081V56.3428H113.917C112.502 59.2125 110.278 61.6187 107.51 63.2729C104.742 64.9271 101.549 65.7589 98.3141 65.6685C86.8499 65.6685 82.4811 59.1924 82.4811 48.7333V19.8171H87.9996V48.96C88.2624 56.9581 91.2845 61.2 100.088 61.2C109.548 61.2 113.654 52.3924 113.654 43.3257V19.8171H119.041V64.3733Z" fill="#030E24"/>
<path d="M165.653 64.3732H160.562V55.9218C159.076 58.8751 156.773 61.3541 153.919 63.0729C151.065 64.7917 147.777 65.6802 144.433 65.636C130.702 65.636 124.133 54.756 124.133 42.0627C124.133 29.3694 130.702 18.5217 144.433 18.5217C147.746 18.3526 151.031 19.1946 153.841 20.933C156.651 22.6714 158.849 25.2216 160.135 28.236V2.7522H165.653V64.3732ZM144.302 61.1351C155.93 61.1351 160.135 51.4208 160.135 42.1598C160.135 32.8989 155.93 23.1846 144.302 23.1846C133.79 23.1846 129.52 32.8989 129.52 42.1598C129.52 51.4208 133.79 61.0703 144.302 61.0703V61.1351Z" fill="#030E24"/>
<path d="M174.325 2.7522H179.844V11.4627H174.325V2.7522ZM174.325 19.817H179.844V64.3732H174.325V19.817Z" fill="#030E24"/>
<path d="M228.953 42.0953C228.953 54.8534 221.332 65.6363 207.568 65.6363C193.805 65.6363 186.217 55.0477 186.217 42.0953C186.217 29.1429 193.838 18.522 207.733 18.522C221.628 18.522 228.953 29.3048 228.953 42.0953ZM191.735 42.0953C191.735 51.4858 197.09 61.0706 207.568 61.0706C218.047 61.0706 223.434 51.3563 223.434 42.0953C223.434 32.8344 218.08 23.1201 207.733 23.1201C197.385 23.1201 191.735 32.6725 191.735 42.0953Z" fill="#030E24"/>
</g>
<defs>
<clipPath id="clip0_159_463">
<rect width="558.424" height="68" fill="white" transform="translate(0.787842)"/>
</clipPath>
</defs>
</svg>
