<svg width="226" height="61" viewBox="0 0 226 61" fill="none" xmlns="http://www.w3.org/2000/svg">
<g clip-path="url(#clip0_159_609)">
<path d="M65.8477 16.957C53.8991 16.957 44.1298 26.796 44.1298 38.8298C44.1298 50.8636 53.8991 60.7026 65.8477 60.7026C77.7963 60.7026 87.5656 50.8636 87.5656 38.8298C87.5656 26.796 77.7963 16.957 65.8477 16.957ZM76.4436 38.5649C76.4436 44.5818 71.822 49.5013 66.1107 49.5013C60.3994 49.5013 55.7778 44.5818 55.7778 38.5649C55.7778 32.548 60.3994 27.6285 66.1107 27.6285C71.822 27.6285 76.4436 32.548 76.4436 38.5649ZM141.898 17.7517C141.635 17.4868 141.372 17.4868 141.071 17.4868H132.392C131.866 17.4868 131.302 18.0166 131.302 18.5842V58.2428C131.302 58.5077 131.302 58.7726 131.565 59.0754C131.828 59.3403 132.091 59.3403 132.392 59.3403H141.071C141.597 59.3403 142.161 58.8105 142.161 58.2428V18.5842C142.199 18.3193 142.199 18.0544 141.898 17.7517ZM136.75 12.3024C140.019 12.3024 142.725 9.57774 142.725 6.28547C142.988 2.9932 140.019 0.268555 136.75 0.268555C133.481 0.268555 130.776 2.9932 130.776 6.28547C130.776 9.84264 133.481 12.3024 136.75 12.3024ZM125.065 1.06324H93.3145C92.7884 1.06324 92.2248 1.59303 92.2248 2.16067V58.2428C92.2248 58.5077 92.2248 58.7726 92.4878 59.0754C92.7508 59.3403 93.0139 59.3403 93.3145 59.3403H101.994C102.52 59.3403 103.084 58.8105 103.084 58.2428V35.5375H122.622C122.885 35.5375 123.148 35.5375 123.449 35.2726C123.712 35.0077 123.712 34.7428 123.712 34.4401V26.2662C123.712 25.7364 123.186 25.1687 122.622 25.1687H103.084V11.5077H125.102C125.365 11.5077 125.628 11.5077 125.929 11.2428C126.229 10.9779 126.192 10.713 126.192 10.4103V2.1985C126.154 1.63087 125.628 1.06324 125.065 1.06324ZM23.7646 25.4336C15.0849 21.6116 12.342 19.9465 12.342 16.6921C12.342 12.3024 16.4 10.9401 20.2326 10.9401C24.2906 10.9401 28.6492 13.1349 28.6492 19.1518C28.6492 19.6816 28.9122 19.9843 29.4758 19.9843H38.9821C39.2451 19.7194 39.5082 19.4546 39.5082 19.1518C39.5082 8.21542 31.6176 0.268555 20.2326 0.268555C8.81002 0.268555 1.48304 6.81526 1.48304 16.6921C1.48304 28.461 10.1627 32.0182 18.5793 35.3104L19.1054 35.5753C26.9959 38.6027 29.7013 39.965 29.7013 43.7871C29.7013 48.9715 24.253 49.804 21.2847 49.804C15.5734 49.804 11.2523 45.7171 11.2523 40.2299V39.7001C11.2523 39.1704 10.9893 38.8676 10.4257 38.8676H0.957004C0.693985 38.8676 0.130371 39.1325 0.130371 39.7001V40.5327C0.130371 52.5665 8.81002 60.7783 21.0592 60.7783C32.7448 60.7783 40.5978 53.9288 40.5978 44.0898C40.8608 33.9103 35.7132 30.3531 23.7646 25.4336ZM225.576 57.713C225.576 59.3403 224.486 60.4377 222.87 60.4377C221.255 60.4377 220.165 59.3403 220.165 57.713C220.165 56.0858 221.255 54.9884 222.87 54.9884C224.486 54.9884 225.576 56.048 225.576 57.713ZM220.691 57.713C220.691 59.0754 221.518 59.9079 222.87 59.9079C224.223 59.9079 225.05 59.0754 225.05 57.713C225.05 56.3507 224.223 55.5182 222.87 55.5182C221.518 55.5182 220.691 56.3507 220.691 57.713ZM223.96 57.1454C223.96 57.4103 223.697 57.6752 223.434 57.9779L223.96 59.0754H223.133L222.607 57.9779H222.344V59.0754H221.818V56.3507H222.908C223.396 56.3507 223.96 56.6156 223.96 57.1454ZM222.57 56.8805V57.713H222.833C223.096 57.713 223.359 57.4481 223.359 57.4481C223.359 57.1832 223.096 57.1833 222.833 57.1833H222.57V56.8805ZM211.448 2.7283C215.243 2.7283 218.249 5.75567 218.249 9.57774C218.249 13.3998 215.243 16.4272 211.448 16.4272C207.653 16.4272 204.647 13.3998 204.647 9.57774C204.647 5.71783 207.653 2.7283 211.448 2.7283ZM211.448 0.268555C206.3 0.268555 201.942 4.65825 201.942 9.84264C201.942 15.027 206.3 19.4167 211.448 19.4167C216.595 19.4167 220.954 15.027 220.954 9.84264C220.954 4.62041 216.595 0.268555 211.448 0.268555Z" fill="#030E24"/>
<path d="M191.083 23.5037C192.999 23.5037 194.615 24.3362 195.967 25.4336C197.32 26.796 197.884 28.461 197.884 30.3531C197.884 34.1752 194.878 37.2026 191.083 37.2026C189.166 37.2026 187.551 36.37 186.198 35.2726C184.845 33.9103 184.282 32.2452 184.282 30.3531C184.019 26.5311 187.288 23.5037 191.083 23.5037ZM191.083 20.7791C185.935 20.7791 181.576 25.1687 181.576 30.3531C181.576 35.5375 185.935 39.9272 191.083 39.9272C196.23 39.9272 200.589 35.5375 200.589 30.3531C200.589 25.1687 196.23 20.7791 191.083 20.7791Z" fill="#030E24"/>
<path d="M206.901 21.9143C211.523 19.3788 217.272 21.1196 219.789 25.7363C222.307 30.3531 220.578 36.1808 215.994 38.7162C211.373 41.2516 205.624 39.5109 203.106 34.8941C200.589 30.2774 202.28 24.4497 206.901 21.9143ZM206.864 42.4248C211.485 39.8893 217.234 41.6301 219.752 46.2468C222.269 50.9014 220.541 56.6913 215.957 59.2267C211.373 61.7621 205.586 60.0214 203.069 55.4046C200.551 50.7879 202.28 44.9602 206.864 42.4248ZM161.963 26.3796C164.104 21.5358 169.703 19.3788 174.512 21.498C179.322 23.655 181.464 29.2935 179.359 34.1373C177.255 38.9811 171.619 41.1381 166.81 39.019C162 36.8998 159.821 31.2234 161.963 26.3796ZM182.365 5.907C184.507 1.0632 190.106 -1.09382 194.915 1.02535C199.725 3.18236 201.866 8.82085 199.762 13.6647C197.62 18.5085 192.022 20.6655 187.212 18.5463C182.403 16.4271 180.224 10.713 182.365 5.907ZM161.963 5.86916C164.104 1.02535 169.703 -1.13166 174.512 0.987505C179.322 3.14451 181.464 8.78301 179.359 13.6268C177.255 18.4706 171.619 20.6276 166.81 18.5085C162.038 16.3515 159.858 10.713 161.963 5.86916ZM182.328 46.9658C184.469 42.122 190.068 39.965 194.878 42.0842C199.687 44.2412 201.829 49.8797 199.725 54.7235C197.583 59.5673 191.984 61.7243 187.175 59.6051C182.365 57.4481 180.186 51.8096 182.328 46.9658Z" fill="#030E24"/>
<path d="M170.717 44.0142C172.634 44.0142 174.249 44.8467 175.602 45.9441C176.955 47.3065 177.518 48.9715 177.518 50.8636C177.518 54.6857 174.512 57.7131 170.717 57.7131C166.922 57.7131 163.916 54.6857 163.916 50.8636C163.653 47.0416 166.922 44.0142 170.717 44.0142ZM170.717 41.2896C165.57 41.2896 161.211 45.6792 161.211 50.8636C161.211 56.048 165.57 60.4377 170.717 60.4377C175.865 60.4377 180.223 56.048 180.223 50.8636C180.223 45.6792 175.865 41.2896 170.717 41.2896Z" fill="#030E24"/>
</g>
<defs>
<clipPath id="clip0_159_609">
<rect width="226" height="61" fill="white"/>
</clipPath>
</defs>
</svg>
