<svg width="363" height="234" viewBox="0 0 363 234" fill="none" xmlns="http://www.w3.org/2000/svg">
<g clip-path="url(#clip0_159_359)">
<path d="M110.965 66.61C110.818 67.594 110.583 68.194 110.288 68.738C109.834 69.56 108.748 71.3749 106.556 70.2009L102.223 67.876C100.103 66.742 100.939 64.791 101.387 63.969C101.703 63.394 102.156 62.865 102.763 62.215C102.789 62.21 102.809 62.175 102.825 62.139C102.896 62.019 102.825 61.932 102.763 61.877C102.595 61.721 102.544 61.695 102.422 61.625C102.33 61.58 102.213 61.585 102.06 61.66C101.422 62.154 100.597 63.364 100.418 63.697C99.7001 65.013 99.0469 67.332 101.82 68.819L106.031 71.073C108.825 72.57 110.328 70.705 111.047 69.393C111.256 69.011 111.812 67.745 111.939 66.973C111.914 66.803 111.868 66.686 111.776 66.641C111.611 66.5465 111.435 66.4736 111.251 66.424C111.175 66.404 111.067 66.394 110.997 66.515C110.98 66.55 110.96 66.584 110.965 66.61Z" fill="#030E24"/>
<path d="M108.327 51.7299C106.921 53.5449 107.395 55.3849 108.756 56.4129L113.446 59.9729C114.771 60.9759 116.514 60.8199 117.921 59.0049C119.328 57.1899 119.033 55.4809 117.707 54.4769L113.012 50.9179C111.656 49.8899 109.735 49.9149 108.327 51.7299ZM117.141 58.4099C116.397 59.3729 115.219 60.0379 113.945 59.0699L109.556 55.7429C108.119 54.6529 108.364 53.2879 109.113 52.3249C109.857 51.3619 111.126 50.7719 112.564 51.8609L116.953 55.1879C118.232 56.1559 117.885 57.4469 117.141 58.4099Z" fill="#030E24"/>
<path d="M116.575 43.144L124.166 51.024C124.319 51.18 124.533 51.226 124.722 51.049L124.91 50.873C125.099 50.691 125.064 50.48 124.91 50.323L121.413 46.693L124.442 43.84C124.569 43.714 124.589 43.588 124.462 43.457L124.13 43.114C124.018 42.998 123.891 43.008 123.758 43.134L120.73 45.987L117.718 42.862L121.591 39.212C121.724 39.086 121.74 38.959 121.618 38.833L121.311 38.516C121.259 38.4635 121.189 38.4331 121.115 38.4312C121.04 38.4294 120.968 38.4562 120.914 38.506L116.575 42.594C116.382 42.776 116.422 42.988 116.575 43.144Z" fill="#030E24"/>
<path d="M127.469 33.762L133.775 42.68C133.902 42.856 134.101 42.937 134.316 42.786L134.529 42.64C134.748 42.493 134.743 42.277 134.616 42.095L131.71 37.986L135.136 35.616C135.289 35.516 135.325 35.395 135.217 35.244L134.942 34.856C134.85 34.724 134.723 34.714 134.575 34.82L131.145 37.19L128.641 33.65L133.03 30.62C133.178 30.515 133.214 30.394 133.107 30.248L132.857 29.89C132.814 29.8304 132.749 29.7898 132.676 29.7767C132.602 29.7637 132.527 29.7792 132.465 29.82L127.551 33.217C127.337 33.368 127.342 33.58 127.469 33.762Z" fill="#030E24"/>
<path d="M145.214 22.9559L139.84 25.5769C139.606 25.6879 139.576 25.9049 139.672 26.1019L144.535 35.8619C144.637 36.0539 144.825 36.1639 145.06 36.0489L150.433 33.4269C150.597 33.3509 150.653 33.2349 150.571 33.0739L150.367 32.6659C150.286 32.5039 150.163 32.4739 150 32.5549L145.198 34.8939L143.215 30.9159L146.972 29.0859C147.13 29.0059 147.186 28.8899 147.104 28.7279L146.895 28.2999C146.824 28.1579 146.697 28.1329 146.533 28.2089L142.782 30.0389L140.85 26.1669L145.651 23.8269C145.815 23.7519 145.866 23.6369 145.789 23.4749L145.591 23.0819C145.557 23.0164 145.499 22.9666 145.428 22.9431C145.358 22.9195 145.281 22.9241 145.214 22.9559Z" fill="#030E24"/>
<path d="M159.07 18.0089L153.35 19.7889C153.101 19.8639 153.04 20.0699 153.106 20.2819L156.404 30.6619C156.47 30.8689 156.638 31.0059 156.888 30.9299L162.608 29.1499C162.781 29.0949 162.852 28.9889 162.801 28.8229L162.659 28.3839C162.608 28.2129 162.486 28.1669 162.312 28.2229L157.21 29.8059L155.864 25.5759L159.855 24.3359C160.028 24.2799 160.1 24.1739 160.044 24.0029L159.9 23.5489C159.855 23.3979 159.733 23.3519 159.56 23.4029L155.568 24.6429L154.262 20.5239L159.366 18.9409C159.538 18.8859 159.61 18.7799 159.555 18.6079L159.422 18.1949C159.399 18.125 159.35 18.0666 159.284 18.0319C159.218 17.9973 159.142 17.989 159.07 18.0089Z" fill="#030E24"/>
<path d="M184.656 25.7849L183.82 23.8689C183.525 23.1889 182.429 21.3489 181.69 21.0459L181.603 20.9299C183.657 20.5109 184.218 19.1499 184.147 17.6829C184.065 16.0139 183.173 14.6029 180.339 14.7329L177.168 14.8849C176.903 14.8949 176.791 15.0819 176.801 15.2979L177.326 26.1679C177.337 26.3849 177.464 26.5609 177.724 26.5459L177.989 26.5359C178.249 26.5209 178.361 26.3389 178.351 26.1169L178.111 21.1519L180.201 21.0559C181.282 21.7619 182.551 23.4159 183.051 24.5849L183.662 26.0119C183.729 26.1879 183.872 26.2589 184.076 26.2489L184.254 26.2389C184.539 26.2289 184.671 26.0819 184.656 25.7849ZM178.066 20.1779L177.856 15.8279L180.104 15.7219C181.333 15.6619 183.02 15.5859 183.122 17.7279C183.224 19.8959 181.542 20.0179 180.313 20.0729L178.066 20.1779Z" fill="#030E24"/>
<path d="M195.444 15.0781C193.146 14.8211 191.795 16.1721 191.606 17.8561L190.938 23.6641C190.754 25.3081 191.79 26.7041 194.088 26.9611C196.387 27.2181 197.708 26.0841 197.896 24.4411L198.559 18.6331C198.753 16.9491 197.743 15.3351 195.444 15.0781ZM194.195 25.9931C192.977 25.8571 191.8 25.2021 191.978 23.6231L192.6 18.1831C192.804 16.4041 194.114 15.9101 195.332 16.0461C196.55 16.1821 197.718 16.9541 197.514 18.7331L196.897 24.1681C196.714 25.7511 195.419 26.1291 194.195 25.9931Z" fill="#030E24"/>
<path d="M212.066 30.356L212.081 19.274C212.088 18.881 211.878 18.534 211.47 18.417L210.481 18.14C210.078 18.024 209.711 18.21 209.507 18.548L203.609 27.971C203.543 28.203 203.666 28.359 203.803 28.399L204.15 28.495C204.288 28.535 204.45 28.541 204.629 28.279L206.383 25.465L211.047 26.781L211.032 30.083C211.047 30.401 211.19 30.482 211.327 30.522L211.674 30.618C211.811 30.658 212.001 30.588 212.066 30.356ZM211.047 25.768L206.923 24.603L210.348 19.113L211.047 19.31V25.768Z" fill="#030E24"/>
<path d="M218.959 32.04C218.797 31.965 218.684 31.975 218.603 32.05C218.484 32.1877 218.385 32.3424 218.312 32.509C218.262 32.615 218.267 32.751 218.348 32.902C218.791 33.462 220.077 34.172 220.637 34.44C223.782 35.917 224.863 34.309 225.418 33.16C226.937 29.998 221.6 27.115 222.524 25.194C223.231 23.717 224.205 23.959 225.806 24.71C226.492 25.0306 227.12 25.4596 227.666 25.98C227.81 26.046 227.947 26.091 228.023 25.975C228.105 25.855 228.177 25.758 228.233 25.632C228.261 25.5692 228.273 25.5004 228.268 25.4317C228.262 25.3631 228.24 25.2968 228.202 25.239C227.628 24.6635 226.962 24.1863 226.229 23.827C223.048 22.335 222.105 23.697 221.56 24.826C220.25 27.558 225.72 30.175 224.475 32.761C223.548 34.681 222.427 34.198 220.897 33.482C220.01 33.064 219.393 32.489 218.959 32.04Z" fill="#030E24"/>
<path d="M241.602 33.08L236.244 29.45C236.096 29.349 235.954 29.374 235.851 29.52L235.612 29.863C235.51 30.014 235.535 30.151 235.689 30.251L237.941 31.784L232.054 40.284C231.926 40.461 231.926 40.677 232.141 40.824L232.354 40.97C232.573 41.116 232.773 41.035 232.9 40.854L238.788 32.354L241.046 33.886C241.193 33.987 241.337 33.962 241.438 33.811L241.678 33.468C241.78 33.322 241.749 33.18 241.602 33.08Z" fill="#030E24"/>
<path d="M252.829 42.66L248.461 38.602C248.272 38.421 248.058 38.471 247.91 38.632L240.376 46.562C240.223 46.719 240.187 46.931 240.376 47.107L244.744 51.171C244.877 51.291 245.004 51.301 245.127 51.171L245.448 50.838C245.57 50.707 245.55 50.581 245.418 50.46L241.523 46.835L244.592 43.603L247.64 46.437C247.773 46.557 247.9 46.567 248.028 46.437L248.354 46.089C248.466 45.973 248.451 45.847 248.318 45.726L245.27 42.892L248.257 39.746L252.157 43.371C252.289 43.492 252.417 43.502 252.539 43.371L252.845 43.054C252.894 42.9992 252.92 42.9275 252.917 42.854C252.915 42.7805 252.883 42.711 252.829 42.66Z" fill="#030E24"/>
<path d="M253.993 61.4241L255.094 59.6491C255.492 59.0141 256.384 57.0731 256.211 56.2971L256.256 56.1601C257.781 57.5871 259.229 57.2601 260.406 56.3571C261.742 55.3291 262.394 53.7961 260.656 51.5771L258.708 49.0971C258.55 48.8911 258.331 48.9061 258.158 49.0421L249.461 55.7121C249.288 55.8421 249.222 56.0491 249.379 56.2521L249.538 56.4581C249.701 56.6601 249.915 56.6441 250.093 56.5131L254.064 53.4631L255.349 55.0971C255.385 56.3771 254.748 58.3531 254.064 59.4321L253.234 60.7481C253.132 60.9051 253.152 61.0611 253.274 61.2221L253.387 61.3631C253.559 61.5801 253.759 61.6061 253.993 61.4241ZM254.845 52.8681L258.326 50.1961L259.707 51.9561C260.458 52.9191 261.492 54.2351 259.779 55.5561C258.046 56.8811 256.975 55.5861 256.226 54.6281L254.845 52.8681Z" fill="#030E24"/>
<path d="M258.478 66.7699C258.391 66.6129 258.289 66.5519 258.182 66.5679C257.938 66.6279 257.871 66.6679 257.677 66.7689C257.571 66.8289 257.494 66.9359 257.474 67.1069C257.499 67.8169 258.111 69.1439 258.411 69.6829C260.073 72.7029 261.903 72.0329 263.035 71.4279C266.144 69.7479 263.534 64.3139 265.426 63.2959C266.873 62.5139 267.521 63.2759 268.373 64.8079C268.765 65.5289 269 66.2399 269.122 66.9199C269.198 67.0619 269.285 67.1719 269.417 67.1219C269.545 67.082 269.67 67.0315 269.789 66.9709C269.848 66.9348 269.898 66.8853 269.933 66.8265C269.969 66.7677 269.989 66.7013 269.994 66.6329C269.874 65.8326 269.618 65.0584 269.234 64.3439C267.552 61.2889 265.976 61.8439 264.865 62.4439C262.178 63.8909 265.054 69.1839 262.51 70.5549C260.618 71.5739 259.996 70.5249 259.187 69.0579C258.717 68.2009 258.56 67.3799 258.478 66.7699Z" fill="#030E24"/>
<path d="M0.505039 94.2161V95.7691L0.749736 98.7031V143.532L0.505039 146.466V148.014H4.70532V146.466L4.46063 143.532V123.315H13.7732C27.2063 123.315 36.1073 117.447 36.1073 108.725C36.1073 100.003 28.0324 94.2151 15.834 94.2151H0.504028L0.505039 94.2161ZM4.46063 96.4191C7.83986 96.4191 14.8451 96.4191 14.9259 96.4991C25.2295 96.4991 32.1508 101.556 32.1508 109.053C32.1508 116.308 25.1466 121.117 14.5993 121.117C14.5993 121.117 10.4759 121.037 4.46063 121.037V96.4191Z" fill="#030E24"/>
<path d="M51.6213 94.136V95.684L51.866 98.623V143.452L51.6213 146.386V147.934H55.8216V146.386L55.5769 143.452V122.177H62.9128L84.9152 147.934H89.7778L67.3628 121.93C74.9433 120.71 83.5178 115.411 83.5178 107.995C83.5178 99.682 76.2639 94.135 65.4669 94.135L51.6213 94.136ZM55.496 96.339C58.5436 96.339 64.3961 96.339 64.478 96.419C73.46 96.419 79.4753 101.149 79.4753 108.318C79.4753 115.25 69.835 119.893 62.8258 119.893H55.495L55.496 96.339Z" fill="#030E24"/>
<path d="M127.216 148.831C143.366 148.831 154.163 137.826 154.163 121.279C154.163 104.572 143.366 93.405 127.216 93.405C110.98 93.405 100.183 104.405 100.183 120.871C100.183 137.664 110.98 148.831 127.216 148.831ZM104.139 119.485C104.139 104.98 113.04 95.361 126.472 95.361C140.731 95.361 150.208 106.281 150.208 122.666C150.208 137.175 141.307 146.79 128.037 146.79C113.697 146.79 104.139 135.87 104.139 119.485Z" fill="#030E24"/>
<path d="M170.002 122.257C170.002 138.072 180.799 148.664 197.036 148.664C204.452 148.664 211.788 146.955 215.499 144.429L215.662 141.737L214.51 141.899C214.098 142.146 209.566 144.51 209.566 144.51C205.855 145.897 201.323 146.708 197.116 146.708C183.19 146.708 173.876 136.439 173.876 121.117C173.876 105.63 183.603 95.36 198.274 95.36C201.898 95.36 205.61 96.01 208.658 97.15L209.152 97.397C210.555 98.214 212.283 99.192 213.684 100.003C214.098 100.003 214.51 99.923 215.005 99.923L214.923 97.236C212.038 94.871 205.359 93.238 198.192 93.238C181.293 93.238 170.002 104.813 170.002 122.257Z" fill="#030E24"/>
<path d="M232.905 148.014H269.002V145.322H267.599L262.823 145.73H236.861V121.44C240.404 121.44 244.028 121.359 247.576 121.359C251.119 121.359 254.662 121.44 257.96 121.687H259.856V118.914C257.96 118.914 256.308 118.995 254.58 119.161H236.861V96.4191C241.642 96.4191 246.505 96.3391 251.363 96.3391C256.227 96.3391 261.09 96.4191 265.541 96.7471H266.942V94.2161H232.905V95.7691L233.15 98.7031V143.532L232.905 146.466V148.014Z" fill="#030E24"/>
<path d="M284.841 139.374L285.091 144.919C289.954 147.279 296.301 148.912 300.833 148.912C310.146 148.912 316.324 142.716 316.324 133.425C316.324 126.089 311.548 121.607 302.234 118.592C294.154 115.981 289.954 112.316 289.954 106.447C289.954 99.8431 294.236 95.4421 300.751 95.4421C302.561 95.4421 307.674 96.4201 308.907 98.1341C309.814 99.1121 310.885 100.493 311.792 101.471C312.369 101.471 312.95 101.391 313.525 101.391L313.276 97.2361C310.309 94.9531 305.446 93.4861 301.164 93.4861C292.345 93.4861 286.411 99.1931 286.411 107.829C286.411 114.514 290.862 118.592 299.43 121.36C308.249 124.214 312.781 128.126 312.781 134.403C312.781 141.899 307.999 146.956 300.914 146.956C298.691 146.956 294.567 145.812 290.117 143.941C289.943 143.847 289.799 143.706 289.704 143.533C288.715 142.227 287.563 140.599 286.574 139.293H285.666C285.422 139.293 285.091 139.374 284.841 139.374Z" fill="#030E24"/>
<path d="M331.012 139.374L331.262 144.919C336.125 147.279 342.472 148.912 347.004 148.912C356.318 148.912 362.496 142.716 362.496 133.425C362.496 126.089 357.719 121.607 348.406 118.592C340.326 115.981 336.125 112.316 336.125 106.447C336.125 99.8431 340.408 95.4421 346.922 95.4421C348.732 95.4421 353.845 96.4201 355.078 98.1341C355.986 99.1121 357.057 100.493 357.964 101.471C358.54 101.471 359.121 101.391 359.697 101.391L359.447 97.2361C356.481 94.9531 351.617 93.4861 347.335 93.4861C338.516 93.4861 332.582 99.1931 332.582 107.829C332.582 114.514 337.032 118.592 345.602 121.36C354.421 124.214 358.953 128.126 358.953 134.403C358.953 141.899 354.171 146.956 347.085 146.956C344.863 146.956 340.739 145.812 336.288 143.941C336.114 143.847 335.971 143.705 335.876 143.533C334.887 142.227 333.734 140.599 332.745 139.293H331.838C331.593 139.293 331.262 139.374 331.012 139.374Z" fill="#030E24"/>
<path d="M148.864 193.325L143.73 190.27C143.507 190.134 143.308 190.225 143.195 190.411L137.522 199.738C137.404 199.925 137.415 200.136 137.639 200.272L142.773 203.328C142.93 203.423 143.058 203.403 143.15 203.252L143.389 202.859C143.48 202.707 143.44 202.586 143.282 202.496L138.699 199.763L141.013 195.962L144.597 198.099C144.75 198.19 144.878 198.175 144.975 198.019L145.225 197.61C145.306 197.474 145.26 197.358 145.107 197.263L141.523 195.13L143.772 191.43L148.354 194.162C148.512 194.253 148.639 194.238 148.731 194.081L148.961 193.708C148.998 193.644 149.008 193.569 148.99 193.497C148.972 193.426 148.927 193.364 148.864 193.325Z" fill="#030E24"/>
<path d="M150.74 205.674C150.573 205.608 150.455 205.623 150.384 205.704C150.27 205.847 150.184 206.01 150.129 206.183C150.083 206.294 150.093 206.425 150.19 206.571C150.67 207.095 151.999 207.721 152.581 207.947C155.818 209.203 156.786 207.529 157.26 206.344C158.551 203.087 153.025 200.572 153.809 198.59C154.411 197.073 155.405 197.244 157.052 197.885C157.759 198.158 158.417 198.543 158.999 199.024C159.147 199.084 159.285 199.115 159.355 198.994C159.427 198.873 159.488 198.767 159.539 198.641C159.562 198.576 159.569 198.507 159.558 198.439C159.547 198.372 159.52 198.308 159.478 198.253C158.868 197.715 158.17 197.284 157.414 196.977C154.136 195.707 153.29 197.128 152.825 198.298C151.709 201.111 157.347 203.345 156.287 206.011C155.502 207.993 154.345 207.584 152.775 206.974C151.857 206.616 151.205 206.087 150.74 205.674Z" fill="#030E24"/>
<path d="M172.031 201.155L165.669 199.839C165.491 199.799 165.374 199.879 165.337 200.051L165.251 200.459C165.21 200.635 165.292 200.756 165.465 200.792L168.146 201.346L166.011 211.429C165.965 211.646 166.046 211.848 166.301 211.898L166.556 211.954C166.811 212.004 166.969 211.853 167.015 211.641L169.15 201.553L171.827 202.108C172.006 202.143 172.123 202.067 172.159 201.891L172.246 201.482C172.286 201.311 172.204 201.19 172.031 201.155Z" fill="#030E24"/>
<path d="M177.313 212.828L177.292 213.065C177.277 213.282 177.384 213.469 177.649 213.489L177.91 213.509C178.17 213.524 178.302 213.358 178.317 213.136L178.338 212.899C178.353 212.682 178.246 212.496 177.986 212.475L177.721 212.455C177.461 212.44 177.329 212.607 177.313 212.828Z" fill="#030E24"/>
<path d="M185.922 202.302C185.785 202.373 185.693 202.514 185.703 202.655C185.703 202.676 185.688 202.696 185.851 203.064C185.882 203.2 185.964 203.255 186.106 203.25C187.07 202.928 187.687 202.766 188.389 202.726C190.092 202.615 191.081 202.61 191.208 204.536C191.362 206.9 185.662 208.221 185.907 211.932L186.009 213.5C186.019 213.661 186.162 213.752 186.326 213.737L192.325 213.359C192.529 213.343 192.621 213.258 192.611 213.081L192.58 212.622C192.569 212.446 192.463 212.37 192.264 212.386L186.983 212.718L186.942 212.103C186.713 208.589 192.437 207.606 192.229 204.41C192.147 203.139 191.979 201.516 188.507 201.738C187.783 201.783 186.687 201.955 185.922 202.302Z" fill="#030E24"/>
<path d="M200.908 199.907C198.66 200.436 197.855 202.16 198.252 203.809L199.618 209.496C200.005 211.104 201.458 212.067 203.706 211.538C205.96 211.008 206.816 209.501 206.429 207.893L205.057 202.206C204.665 200.557 203.161 199.377 200.908 199.907ZM203.483 210.59C202.285 210.872 200.954 210.655 200.582 209.108L199.297 203.784C198.879 202.044 199.945 201.137 201.137 200.855C202.33 200.577 203.696 200.91 204.115 202.649L205.394 207.973C205.766 209.521 204.675 210.313 203.483 210.59Z" fill="#030E24"/>
<path d="M210.309 197.507C210.208 197.618 210.166 197.784 210.223 197.91C210.233 197.931 210.218 197.956 210.498 198.248C210.575 198.369 210.671 198.394 210.798 198.339C211.604 197.719 212.129 197.366 212.777 197.094C214.352 196.433 215.28 196.105 216.044 197.88C216.988 200.058 212.053 203.174 213.526 206.597L214.148 208.039C214.214 208.19 214.383 208.225 214.531 208.16L220.061 205.831C220.251 205.755 220.311 205.639 220.239 205.478L220.056 205.054C219.985 204.888 219.862 204.858 219.679 204.933L214.811 206.985L214.566 206.415C213.17 203.179 218.236 200.371 216.967 197.426C216.463 196.257 215.759 194.78 212.558 196.126C211.894 196.408 210.916 196.927 210.309 197.507Z" fill="#030E24"/>
<path d="M223.008 191.156L221.84 193.934C221.728 194.211 221.57 194.448 221.728 194.7L221.952 195.058C222.059 195.224 222.177 195.27 222.299 195.194C222.461 195.086 222.577 194.922 222.626 194.735L223.798 191.887L224.124 191.69L229.476 200.226C229.593 200.412 229.793 200.498 230.017 200.362L230.237 200.226C230.46 200.089 230.465 199.878 230.348 199.691L224.547 190.445C224.43 190.258 224.236 190.168 224.012 190.304L223.313 190.732C223.176 190.818 223.089 190.984 223.008 191.156Z" fill="#030E24"/>
<path fill-rule="evenodd" clip-rule="evenodd" d="M290.466 163C272.504 203.786 231.384 232.3 183.53 232.3C135.676 232.3 94.5554 203.786 76.5935 163H74.7198C92.789 204.749 134.705 234 183.53 234C232.354 234 274.271 204.749 292.34 163H290.466ZM77.9666 68C96.5919 28.823 136.858 1.7 183.53 1.7C230.202 1.7 270.468 28.823 289.093 68H290.99C272.243 27.856 231.176 0 183.53 0C135.884 0 94.8153 27.857 76.0697 68H77.9666Z" fill="#030E24"/>
</g>
<defs>
<clipPath id="clip0_159_359">
<rect width="363" height="234" fill="white"/>
</clipPath>
</defs>
</svg>
