<svg width="117" height="117" viewBox="0 0 117 117" fill="none" xmlns="http://www.w3.org/2000/svg">
<path d="M58.5 117C55.3922 115.611 30.5188 104.903 22.4896 98.2252C18.1854 94.6525 14.7555 90.1426 12.4624 85.0405C10.1692 79.9384 9.07368 74.3793 9.2595 68.7887V10.9194C22.9174 3.66173 39.4455 0 58.5 0C77.5546 0 93.9967 3.68184 107.741 10.9194V68.7247C108.125 80.0591 103.249 90.9328 94.5306 98.1831C86.6331 104.605 61.4744 115.697 58.5841 116.958L58.5 117Z" fill="#030E24"/>
<path d="M77.4467 48.7268C77.4992 45.7292 78.7352 42.8741 80.885 40.7845C83.0349 38.695 85.924 37.5406 88.9219 37.5734C92.274 37.3973 95.5848 38.3798 98.2983 40.3558V47.7853C96.2746 45.6866 93.5269 44.4399 90.6129 44.2936C88.1943 44.2936 85.6678 45.3429 85.5819 48.3831C85.496 51.4233 88.0224 52.6646 91.2125 54.5914C98.3605 58.8729 99.7754 62.5547 99.5853 67.5437C99.5579 70.7374 98.2106 73.7593 95.8633 75.9439C93.5159 78.1285 90.3752 79.2071 87.1906 78.9786C83.8726 78.9512 80.6222 78.0426 77.7703 76.3461V68.5108C80.0302 70.5552 82.9097 71.7839 85.9493 72.0007C87.2912 72.1762 88.6422 71.7447 89.6312 70.8179C90.6202 69.891 91.1485 68.5766 91.0644 67.2256C91.0644 64.5492 89.4794 63.0721 85.7336 60.8034C78.6898 56.6718 77.4047 53.2679 77.4047 48.7067L77.4467 48.7268ZM56.7231 45.0888C57.6744 44.6723 58.7028 44.4605 59.7413 44.4673C64.7083 44.4673 66.7613 48.4288 66.7613 58.0192C66.7613 67.6095 64.4067 71.8946 59.4817 71.8946C58.5311 71.8873 57.5896 71.7118 56.6993 71.3828V45.0943L56.7231 45.0888ZM56.7231 96.3641H48.1602V40.6757C51.619 38.5551 55.6244 37.4948 59.6773 37.6356C69.8893 37.6356 75.4979 45.3868 75.4979 57.8455C75.4979 70.3042 70.0392 78.8927 60.511 78.8927C59.2093 78.9165 57.9114 78.7501 56.6573 78.3991V96.3422L56.7231 96.3641ZM18.1862 65.3408V38.5368H26.7492V65.7265C26.7492 68.1451 27.3268 71.7411 31.2646 71.7411C32.6703 71.7768 34.0553 71.3972 35.2463 70.6497V38.5368H43.8092V75.5527C39.9647 77.9476 35.4913 79.1432 30.963 78.9786C22.4 78.9786 18.1168 74.3973 18.1168 65.3189L18.1862 65.3408ZM13.9048 68.7868C13.5245 78.7684 17.795 88.3587 25.4658 94.7553C32.1458 100.214 52.7414 109.527 58.5421 112.075C64.2586 109.549 84.8122 100.342 91.5982 94.7553C99.2764 88.3752 103.549 78.783 103.159 68.8069V12.1351C74.5327 9.48427 40.6868 11.1113 13.8828 35.6886V68.7868H13.9048Z" fill="#E9E9E9"/>
</svg>
