<svg width="232" height="207" viewBox="0 0 232 207" fill="none" xmlns="http://www.w3.org/2000/svg">
<g clip-path="url(#clip0_36_25)">
<path d="M0.875427 124.741H4.06211L14.8129 151.712L25.5637 124.741H28.7504L14.7429 159.653L0.875427 124.741Z" fill="#E9E9E9"/>
<path d="M56.3452 158.061H53.176L50.1994 150.464H34.6861L31.6744 158.061H28.4877L42.4953 123.149L56.3452 158.061ZM35.8767 147.479H48.9563L42.4252 131.09L35.8767 147.479Z" fill="#E9E9E9"/>
<path d="M86.1464 131.235C83.5117 128.512 79.9448 126.972 76.2185 126.948C72.5064 126.953 68.948 128.479 66.3248 131.193C63.7016 133.906 62.2282 137.584 62.2282 141.419C62.2282 145.254 63.7016 148.932 66.3248 151.645C68.948 154.358 72.5064 155.885 76.2185 155.89C79.9286 155.853 83.4829 154.344 86.1464 151.675L88.1599 153.756C85.8006 156.206 82.7901 157.878 79.5099 158.559C76.2298 159.241 72.8278 158.901 69.735 157.582C66.6421 156.264 63.9979 154.026 62.1372 151.154C60.2765 148.281 59.2832 144.902 59.2832 141.446C59.2832 137.989 60.2765 134.611 62.1372 131.738C63.9979 128.866 66.6421 126.628 69.735 125.31C72.8278 123.992 76.2298 123.651 79.5099 124.333C82.7901 125.014 85.8006 126.686 88.1599 129.137L86.1464 131.235Z" fill="#E9E9E9"/>
<path d="M121.078 158.061H117.891L114.844 150.464H99.401L96.3894 158.061H93.2027L107.21 123.149L121.078 158.061ZM100.609 147.479H113.689L107.158 131.09L100.609 147.479Z" fill="#E9E9E9"/>
<path d="M135.996 127.762V158.061H133.072V127.762H122.111V124.741H146.974V127.762H135.996Z" fill="#E9E9E9"/>
<path d="M155.396 124.741H158.32V158.061H155.396V124.741Z" fill="#E9E9E9"/>
<path d="M182.693 158.82C179.358 158.82 176.097 157.798 173.324 155.883C170.55 153.969 168.389 151.247 167.113 148.063C165.838 144.879 165.505 141.375 166.157 137.996C166.809 134.616 168.417 131.512 170.777 129.077C173.136 126.642 176.142 124.984 179.414 124.314C182.686 123.644 186.077 123.991 189.158 125.312C192.239 126.634 194.871 128.869 196.722 131.736C198.572 134.603 199.558 137.973 199.555 141.419C199.55 146.036 197.772 150.462 194.61 153.725C191.448 156.988 187.162 158.82 182.693 158.82ZM182.693 126.93C179.916 126.898 177.193 127.719 174.869 129.289C172.544 130.859 170.725 133.108 169.64 135.749C168.556 138.391 168.256 141.305 168.778 144.123C169.301 146.941 170.622 149.534 172.575 151.574C174.528 153.615 177.023 155.009 179.744 155.581C182.466 156.152 185.29 155.876 187.859 154.785C190.428 153.695 192.625 151.84 194.171 149.457C195.717 147.074 196.543 144.27 196.543 141.401C196.539 137.594 195.083 133.942 192.49 131.237C189.898 128.532 186.378 126.991 182.693 126.948V126.93Z" fill="#E9E9E9"/>
<path d="M209.15 131.669V158.061H206.226V123.149L228.2 151.133V124.741H231.124V159.653L209.15 131.669Z" fill="#E9E9E9"/>
<path d="M81.7164 178.429C79.0846 175.7 75.5173 174.153 71.7885 174.124C68.0764 174.128 64.518 175.655 61.8948 178.368C59.2716 181.082 57.7981 184.76 57.7981 188.595C57.7981 192.429 59.2716 196.108 61.8948 198.821C64.518 201.534 68.0764 203.061 71.7885 203.066C75.4961 203.033 79.0501 201.531 81.7164 198.869L83.7299 200.949C81.3706 203.4 78.3601 205.072 75.0799 205.753C71.7998 206.434 68.3977 206.094 65.3049 204.776C62.2121 203.457 59.5678 201.22 57.7072 198.348C55.8465 195.475 54.8531 192.096 54.8531 188.64C54.8531 185.183 55.8465 181.805 57.7072 178.932C59.5678 176.06 62.2121 173.822 65.3049 172.504C68.3977 171.185 71.7998 170.845 75.0799 171.526C78.3601 172.208 81.3706 173.88 83.7299 176.33L81.7164 178.429Z" fill="#E9E9E9"/>
<path d="M114.406 205.254H92.4321V171.953H95.3562V202.252H114.406V205.254Z" fill="#E9E9E9"/>
<path d="M118.486 193.135V171.953H121.41V193.135C121.41 195.745 122.414 198.248 124.2 200.093C125.987 201.938 128.409 202.975 130.935 202.975C133.462 202.975 135.884 201.938 137.671 200.093C139.457 198.248 140.461 195.745 140.461 193.135V171.953H143.385V193.135C143.385 196.546 142.073 199.817 139.738 202.229C137.404 204.641 134.237 205.996 130.935 205.996C127.634 205.996 124.467 204.641 122.133 202.229C119.798 199.817 118.486 196.546 118.486 193.135Z" fill="#E9E9E9"/>
<path d="M167.04 205.254H151.982V171.953H166.305C168.537 171.958 170.676 172.876 172.255 174.506C173.833 176.137 174.722 178.347 174.727 180.654C174.719 182.056 174.355 183.431 173.669 184.641C172.984 185.85 172.002 186.852 170.822 187.545C172.403 188.229 173.755 189.376 174.71 190.845C175.666 192.315 176.183 194.042 176.197 195.812C176.197 197.053 175.96 198.283 175.5 199.43C175.04 200.576 174.365 201.618 173.514 202.495C172.664 203.372 171.654 204.067 170.543 204.541C169.432 205.014 168.242 205.257 167.04 205.254ZM166.305 186.333C167.765 186.333 169.166 185.734 170.198 184.667C171.231 183.6 171.811 182.153 171.811 180.645C171.811 179.136 171.231 177.689 170.198 176.622C169.166 175.555 167.765 174.956 166.305 174.956H154.906V186.333H166.305ZM167.04 189.354H154.906V202.233H167.04C168.691 202.23 170.274 201.551 171.44 200.343C172.607 199.136 173.262 197.5 173.262 195.794C173.262 194.088 172.607 192.452 171.44 191.245C170.274 190.037 168.691 189.358 167.04 189.354Z" fill="#E9E9E9"/>
<path d="M43.5459 96.1968H46.0673L50.0419 103.197L53.964 96.1968H56.4854L57.1682 111.012H54.5243L54.0516 100.755L50.5497 106.797H49.289L45.7871 100.918L45.3143 111.03H42.863L43.5459 96.1968Z" fill="#E9E9E9"/>
<path d="M70.4928 96.1968H73.2944L78.7398 111.012H75.7282L74.485 107.249H69.2322L67.989 111.012H65.0649L70.4928 96.1968ZM73.6971 104.952L71.8061 99.1995L69.8975 104.952H73.6971Z" fill="#E9E9E9"/>
<path d="M86.7941 96.197H91.5391C92.3231 96.174 93.1035 96.3155 93.8329 96.6132C94.4095 96.8592 94.9287 97.2292 95.3562 97.6986C95.7322 98.1105 96.024 98.5965 96.2142 99.1276C96.3831 99.6029 96.4719 100.105 96.4768 100.611C96.4921 101.477 96.2868 102.331 95.8815 103.089C95.487 103.86 94.8768 104.491 94.1305 104.898L97.4398 111.102H94.3932L91.4341 105.242H89.403V111.084H86.7941V96.197ZM91.5741 102.854C91.8666 102.872 92.1594 102.826 92.4338 102.72C92.7082 102.614 92.9581 102.45 93.1675 102.238C93.5447 101.837 93.7525 101.297 93.7453 100.737C93.7568 100.449 93.7097 100.162 93.6072 99.8939C93.5047 99.626 93.3489 99.3833 93.15 99.1814C92.9388 98.9788 92.6907 98.8217 92.4201 98.7192C92.1496 98.6168 91.862 98.5709 91.5741 98.5845H89.403V102.872L91.5741 102.854Z" fill="#E9E9E9"/>
<path d="M105.844 96.197H110.589C111.373 96.174 112.154 96.3155 112.883 96.6132C113.46 96.8592 113.979 97.2292 114.406 97.6986C114.782 98.1105 115.074 98.5965 115.264 99.1276C115.433 99.6029 115.522 100.105 115.527 100.611C115.542 101.477 115.337 102.331 114.932 103.089C114.537 103.86 113.927 104.491 113.181 104.898L116.49 111.102H113.443L110.484 105.242H108.436V111.084H105.827L105.844 96.197ZM110.624 102.854C110.917 102.872 111.21 102.826 111.484 102.72C111.758 102.614 112.008 102.45 112.218 102.238C112.595 101.837 112.803 101.297 112.796 100.737C112.807 100.449 112.76 100.162 112.657 99.8939C112.555 99.626 112.399 99.3833 112.2 99.1814C111.989 98.9788 111.741 98.8217 111.47 98.7192C111.2 98.6168 110.912 98.5709 110.624 98.5845H108.453V102.872L110.624 102.854Z" fill="#E9E9E9"/>
<path d="M124.895 96.1968H127.609V111.012H124.895V96.1968Z" fill="#E9E9E9"/>
<path d="M143.962 111.41C142.957 111.417 141.961 111.207 141.038 110.794C140.152 110.397 139.349 109.826 138.675 109.112C137.995 108.392 137.454 107.545 137.081 106.616C136.309 104.668 136.309 102.485 137.081 100.538C137.45 99.6162 137.985 98.7751 138.657 98.0597C139.342 97.3387 140.16 96.766 141.062 96.3747C141.964 95.9834 142.932 95.7816 143.91 95.7807C144.915 95.7733 145.911 95.9825 146.834 96.3952C148.657 97.2296 150.092 98.7681 150.832 100.681C151.571 102.595 151.557 104.731 150.791 106.634C150.418 107.563 149.877 108.41 149.198 109.13C148.523 109.844 147.72 110.415 146.834 110.812C145.926 111.211 144.949 111.415 143.962 111.41ZM143.962 108.769C144.603 108.779 145.238 108.643 145.822 108.371C146.406 108.099 146.925 107.698 147.342 107.195C147.752 106.7 148.067 106.129 148.27 105.513C148.701 104.211 148.701 102.798 148.27 101.497C148.065 100.892 147.75 100.333 147.342 99.8509C146.939 99.3755 146.444 98.9934 145.888 98.7294C145.283 98.4591 144.631 98.3197 143.971 98.3197C143.312 98.3197 142.659 98.4591 142.054 98.7294C141.499 98.9939 141.004 99.3759 140.601 99.8509C140.193 100.333 139.878 100.892 139.673 101.497C139.242 102.798 139.242 104.211 139.673 105.513C139.876 106.129 140.19 106.7 140.601 107.195C141.016 107.7 141.534 108.102 142.119 108.375C142.703 108.647 143.339 108.781 143.98 108.769H143.962Z" fill="#E9E9E9"/>
<path d="M162.995 98.6569H158.128V96.1968H170.559V98.6569H165.762V111.012H163.048L162.995 98.6569Z" fill="#E9E9E9"/>
<path d="M182.116 98.6569H177.248V96.1968H189.68V98.6569H184.812V111.012H182.098L182.116 98.6569Z" fill="#E9E9E9"/>
<path d="M97.475 40.266L92.1346 51.5535C88.5101 58.2283 83.3799 66.3863 75.6057 68.4304C72.5765 69.5157 69.9151 68.5391 66.991 68.3217L57.571 84.2581C58.325 85.0564 59.2395 85.674 60.2499 86.067C76.7788 92.579 83.4674 85.5966 99.7862 47.4835L115.212 81.4362H135.751L126.05 58.5177L131.548 46.6694L146.711 80.9117L166.375 81.0381L131.969 2.93044L116.21 11.0705L128.624 40.2116L123.179 51.6618L100.417 0.904541L83.6425 9.69561L97.475 40.266Z" fill="#E9E9E9"/>
<path d="M184.374 178.7C183.699 179.399 182.81 179.834 181.858 179.932C180.907 180.029 179.952 179.783 179.157 179.235C178.362 178.687 177.775 177.871 177.497 176.926C177.219 175.982 177.266 174.966 177.631 174.054C177.996 173.141 178.656 172.387 179.499 171.921C180.341 171.454 181.315 171.304 182.252 171.496C183.19 171.688 184.034 172.209 184.642 172.972C185.249 173.735 185.581 174.692 185.582 175.679C185.592 176.241 185.49 176.8 185.282 177.319C185.074 177.839 184.765 178.309 184.374 178.7ZM178.946 173.093C178.616 173.431 178.355 173.834 178.178 174.278C178 174.723 177.91 175.199 177.913 175.679C177.908 176.163 177.997 176.642 178.174 177.09C178.352 177.537 178.614 177.943 178.946 178.284C179.273 178.631 179.663 178.907 180.095 179.096C180.526 179.285 180.99 179.382 181.459 179.382C181.927 179.382 182.391 179.285 182.823 179.096C183.255 178.907 183.645 178.631 183.971 178.284C184.31 177.946 184.58 177.542 184.764 177.094C184.948 176.647 185.043 176.166 185.043 175.679C185.043 175.193 184.948 174.712 184.764 174.264C184.58 173.817 184.31 173.412 183.971 173.074C183.645 172.73 183.256 172.456 182.826 172.269C182.396 172.082 181.934 171.986 181.468 171.986C181.001 171.986 180.539 172.082 180.109 172.269C179.679 172.456 179.29 172.73 178.964 173.074L178.946 173.093ZM181.38 173.328C181.801 173.304 182.222 173.359 182.623 173.49C182.847 173.583 183.036 173.747 183.162 173.959C183.288 174.17 183.345 174.418 183.324 174.666C183.335 174.846 183.301 175.026 183.224 175.188C183.147 175.35 183.031 175.488 182.886 175.589C182.687 175.711 182.467 175.79 182.238 175.824C182.39 175.84 182.536 175.889 182.669 175.966C182.802 176.044 182.917 176.15 183.008 176.276C183.16 176.486 183.245 176.738 183.254 176.999V177.343C183.254 177.452 183.254 177.566 183.254 177.687C183.242 177.765 183.242 177.844 183.254 177.922H182.501V177.307C182.529 177.107 182.505 176.902 182.431 176.715C182.357 176.527 182.236 176.363 182.08 176.24C181.798 176.119 181.492 176.069 181.187 176.095H180.557V177.904H179.769V173.237L181.38 173.328ZM182.238 174.069C181.936 173.93 181.605 173.868 181.275 173.888H180.592V175.589H181.31C181.565 175.598 181.82 175.562 182.063 175.48C182.185 175.416 182.289 175.323 182.367 175.207C182.445 175.092 182.494 174.958 182.51 174.818C182.525 174.678 182.507 174.537 182.457 174.406C182.406 174.275 182.325 174.159 182.221 174.069L182.238 174.069Z" fill="#E9E9E9"/>
</g>
<defs>
<clipPath id="clip0_36_25">
<rect width="232" height="207" fill="white"/>
</clipPath>
</defs>
</svg>
