<svg width="365" height="145" viewBox="0 0 365 145" fill="none" xmlns="http://www.w3.org/2000/svg">
<g clip-path="url(#clip0_36_50)">
<path d="M221.253 55.1378V0.418137H143.706V65.204C143.706 65.204 150.615 58.8824 160.116 58.2624C173.698 57.3765 179.314 63.9477 192.197 66.122C207.956 68.7795 218.254 59.1884 220.66 56.4102C221.253 55.6935 221.156 55.5083 221.229 55.3472L221.253 55.1378Z" fill="#E9E9E9"/>
<path d="M151.029 53.4631C153.63 52.1102 155.938 51.4176 161.417 51.1036C174.641 50.3466 179.574 55.2105 192.091 57.1271C201.917 58.6411 207.461 56.4668 211.646 53.8093C213.865 52.4001 213.28 52.7705 214.442 51.8122C215.475 50.9586 215.727 50.3627 215.572 49.7748C215.531 49.5896 215.336 49.5896 214.963 49.8392C214.67 50.0245 214.101 50.4029 214.101 50.4029C204.258 57.2077 191.359 53.2054 180.086 49.7023C169.593 46.4409 156.719 47.8743 150.883 51.9894C150.883 51.9894 150.192 52.4323 149.704 53.1732C149.542 53.4147 149.168 54.4133 149.631 54.2039C150.16 53.9543 150.598 53.6563 151.029 53.4631ZM166.342 36.5277L155.191 22.0164V36.5277H150.184V13.7138H154.857L165.651 27.7581V13.7138H170.658V36.5277H166.342Z" fill="#030E24"/>
<path d="M185.751 36.906C178.973 36.906 173.942 31.728 173.942 25.1729V25.1004C173.942 18.6178 178.875 13.3029 185.946 13.3029C190.287 13.3029 192.887 14.7363 195.033 16.822L191.806 20.5102C190.026 18.9077 188.214 17.9333 185.914 17.9333C182.037 17.9333 179.249 21.1303 179.249 25.036V25.1004C179.249 29.0141 181.964 32.2756 185.914 32.2756C188.547 32.2756 190.156 31.2367 191.969 29.602L195.196 32.8312C192.822 35.3437 190.189 36.906 185.751 36.906ZM198.544 36.5114V13.6894H203.616V31.9454H215.101V36.5114H198.544Z" fill="#030E24"/>
<path d="M24.8857 114.665L8.04492 92.7611V114.665H0.502319V80.2146H7.54913L23.8454 101.426V80.2146H31.388V114.665H24.8857ZM72.1245 97.4399C72.1245 91.529 67.7518 86.6087 61.599 86.6087C55.4463 86.6087 51.1711 91.4404 51.1711 97.3432V97.4399C51.1711 103.351 55.5438 108.263 61.7047 108.263C67.8493 108.263 72.1245 103.439 72.1245 97.5365V97.4399ZM61.599 115.253C50.8703 115.253 43.1733 107.329 43.1733 97.5365V97.4399C43.1733 87.6475 50.976 79.6187 61.7047 79.6187C72.4253 79.6187 80.1223 87.5509 80.1223 97.3432V97.4399C80.1223 107.232 72.3277 115.253 61.599 115.253ZM112.203 91.98C112.203 88.7347 109.919 87.0596 106.196 87.0596H98.5887V96.9567H106.343C110.065 96.9567 112.203 94.9837 112.203 92.0766V91.98ZM112.056 114.673L104.603 103.641H98.5887V114.673H90.9485V80.2227H106.838C115.039 80.2227 119.957 84.4988 119.957 91.5854V91.6901C119.957 97.2466 116.925 100.742 112.503 102.368L120.997 114.673H112.056ZM169.276 114.915H162.619L154.776 92.3665L146.925 114.915H140.276L128.41 80.2146H136.602L143.804 103.544L151.59 80.118H158.149L165.944 103.544L173.145 80.2146H181.143L169.276 114.915ZM190.311 114.665V80.2146H216.539V86.955H197.91V93.9449H214.304V100.685H197.91V107.925H216.783V114.665H190.311ZM243.824 115.261C232.998 115.261 225.553 107.732 225.553 97.5446V97.4479C225.553 87.6475 233.242 79.6268 243.776 79.6268C250.034 79.6268 253.813 81.3018 257.438 84.3539L252.619 90.1117C249.936 87.8971 247.555 86.6167 243.524 86.6167C237.964 86.6167 233.543 91.4888 233.543 97.3432V97.4479C233.543 103.745 237.915 108.368 244.076 108.368C246.856 108.368 249.343 107.675 251.278 106.306V101.378H243.581V94.8388H258.682V109.801C255.106 112.797 250.188 115.261 243.824 115.261ZM270.614 114.665H278.263V80.2146H270.614V114.665ZM305.994 89.0809L301.377 100.25H310.602L305.994 89.0809ZM316.511 114.673L312.602 106.942H298.646L295.46 114.673H287.666L302.564 79.9731H309.611L324.509 114.673H316.511ZM357.988 114.665L341.147 92.7611V114.665H333.604V80.2146H340.651L356.939 101.426V80.2146H364.49V114.665H357.988ZM98.6455 144.493C93.525 144.493 89.7294 140.579 89.7294 135.635V135.587C89.7294 130.69 93.4519 126.672 98.7919 126.672C102.075 126.672 104.034 127.759 105.652 129.329L103.213 132.116C101.88 130.908 100.507 130.167 98.7675 130.167C95.8415 130.167 93.7282 132.583 93.7282 135.538V135.587C93.7282 138.534 95.7927 140.998 98.7675 140.998C100.759 140.998 101.978 140.217 103.343 138.985L105.774 141.417C103.986 143.317 102.002 144.493 98.6455 144.493Z" fill="#E9E9E9"/>
<path d="M121.964 132.897C121.964 131.27 120.826 130.433 118.957 130.433H115.161V135.385H119.038C120.9 135.385 121.964 134.403 121.964 132.945V132.897ZM121.892 144.243L118.169 138.735H115.162V144.243H111.333V127.018H119.282C123.387 127.018 125.842 129.152 125.842 132.703V132.742C125.842 135.528 124.33 137.275 122.119 138.089L126.362 144.241L121.892 144.243ZM139.033 144.515C134.36 144.515 131.507 141.93 131.507 136.856V127.016H135.327V136.76C135.327 139.57 136.749 141.02 139.082 141.02C141.415 141.02 142.829 139.619 142.829 136.881V127.016H146.657V136.736C146.657 141.955 143.698 144.515 139.033 144.515ZM153.216 144.25H157.044V127.017H153.216V144.25ZM170.049 144.492C167.415 144.492 164.757 143.581 162.669 141.737L164.928 139.055C166.497 140.336 168.139 141.149 170.122 141.149C171.691 141.149 172.633 140.53 172.633 139.523V139.477C172.633 138.519 172.04 138.02 169.13 137.287C165.627 136.401 163.368 135.435 163.368 132.013V131.967C163.368 128.843 165.904 126.781 169.455 126.781C171.983 126.781 174.153 127.562 175.917 128.964L173.926 131.822C172.381 130.759 170.87 130.123 169.407 130.123C167.935 130.123 167.163 130.792 167.163 131.621V131.679C167.163 132.806 167.911 133.177 170.918 133.942C174.446 134.852 176.437 136.108 176.437 139.112V139.157C176.437 142.579 173.796 144.492 170.049 144.492ZM182.24 144.255V127.021H195.359V130.395H186.036V133.89H194.236V137.265H186.036V140.88H195.48V144.255H182.24ZM211.305 144.255V127.021H215.134V140.808H223.806V144.255H211.305ZM229.333 144.255H233.163V127.021H229.333V144.255ZM252.181 144.255L243.768 133.302V144.255H239.989V127.021H243.524L251.66 137.635V127.021H255.431V144.255H252.181ZM262.088 144.255V127.021H275.207V130.395H265.892V133.89H274.093V137.265H265.892V140.88H275.337V144.255H262.088Z" fill="#E9E9E9"/>
</g>
<defs>
<clipPath id="clip0_36_50">
<rect width="365" height="145" fill="white"/>
</clipPath>
</defs>
</svg>
