<svg width="207" height="596" viewBox="0 0 207 596" fill="none" xmlns="http://www.w3.org/2000/svg">
<path d="M0 106.5H103.5V81.75H39.75L103.5 62.25V44.25L39 24.75H103.5V0H0L0 32.25L66 53.25L0 74.25L0 106.5Z" fill="#173C88"/>
<path d="M103.5 81.5H0V106.25H63.75L0 125.75V143.75L64.5 163.25H0V188H103.5V155.75L37.5 134.75L103.5 113.75V81.5Z" fill="#173C88"/>
<path d="M0 269.5H103.5V244.75H39.75L103.5 225.25V207.25L39 187.75H103.5V163H0L0 195.25L66 216.25L0 237.25L0 269.5Z" fill="#173C88"/>
<path d="M103.5 244.5H0V269.25H63.75L0 288.75V306.75L64.5 326.25H0V351H103.5V318.75L37.5 297.75L103.5 276.75V244.5Z" fill="#173C88"/>
<path d="M0 432.5H103.5V407.75H39.75L103.5 388.25V370.25L39 350.75H103.5V326H0L0 358.25L66 379.25L0 400.25L0 432.5Z" fill="#173C88"/>
<path d="M103.5 407.5H0V432.25H63.75L0 451.75V469.75L64.5 489.25H0V514H103.5V481.75L37.5 460.75L103.5 439.75V407.5Z" fill="#173C88"/>
<path d="M0 595.5H103.5V570.75H39.75L103.5 551.25V533.25L39 513.75H103.5V489H0L0 521.25L66 542.25L0 563.25L0 595.5Z" fill="#173C88"/>
<path d="M206.5 489H103V513.75H166.75L103 533.25V551.25L167.5 570.75H103V595.5H206.5L206.5 563.25L140.5 542.25L206.5 521.25V489Z" fill="#173C88"/>
<path d="M103 514H206.5V489.25H142.75L206.5 469.75V451.75L142 432.25H206.5V407.5H103V439.75L169 460.75L103 481.75V514Z" fill="#173C88"/>
<path d="M206.5 326H103V350.75H166.75L103 370.25V388.25L167.5 407.75H103V432.5H206.5L206.5 400.25L140.5 379.25L206.5 358.25V326Z" fill="#173C88"/>
<path d="M103 351H206.5V326.25H142.75L206.5 306.75V288.75L142 269.25H206.5V244.5H103V276.75L169 297.75L103 318.75V351Z" fill="#173C88"/>
<path d="M206.5 163L103 163V187.75L166.75 187.75L103 207.25V225.25L167.5 244.75H103V269.5H206.5L206.5 237.25L140.5 216.25L206.5 195.25V163Z" fill="#173C88"/>
<path d="M103 188H206.5V163.25H142.75L206.5 143.75V125.75L142 106.25H206.5V81.5H103V113.75L169 134.75L103 155.75V188Z" fill="#173C88"/>
<path d="M206.5 0L103 0V24.75L166.75 24.75L103 44.25V62.25L167.5 81.75H103V106.5L206.5 106.5L206.5 74.25L140.5 53.25L206.5 32.25V0Z" fill="#173C88"/>
</svg>
