<svg width="480" height="59" viewBox="0 0 480 59" fill="none" xmlns="http://www.w3.org/2000/svg">
<g clip-path="url(#clip0_36_687)">
<path d="M357.514 56.011L357.486 2.05176H372.169L372.197 42.2161H388.658V56.011H357.514Z" fill="#E9E9E9"/>
<path d="M309.741 56.0394L309.684 2.08014H324.367L324.395 21.0127L339.162 20.9843V2.08014L353.816 2.05176L353.844 56.0111H339.19V35.9431L324.395 35.9715V56.0111L309.741 56.0394Z" fill="#E9E9E9"/>
<path d="M259.849 2.1084L238.673 27.8249L262.899 56.0677H243.473L227.011 36.8513H226.983V56.0677H212.329L212.301 2.13678L226.983 2.1084V18.2877H226.87L240.847 2.1084H259.849Z" fill="#E9E9E9"/>
<path d="M251.915 28.6198C251.97 23.1213 253.644 17.7625 256.725 13.219C259.806 8.67559 264.157 5.1509 269.228 3.08936C274.298 1.02782 279.863 0.521738 285.219 1.63492C290.576 2.7481 295.485 5.43071 299.327 9.34451C303.169 13.2583 305.773 18.2281 306.809 23.6272C307.846 29.0264 307.269 34.6131 305.151 39.6832C303.034 44.7532 299.47 49.0795 294.911 52.1166C290.351 55.1536 284.999 56.7655 279.529 56.749C275.872 56.7341 272.253 55.9943 268.881 54.572C265.509 53.1496 262.449 51.0725 259.876 48.4597C257.303 45.8469 255.268 42.7497 253.887 39.3453C252.507 35.9409 251.808 32.2962 251.83 28.6198M279.529 42.4431C283.005 42.2595 286.267 40.6988 288.601 38.1026C290.934 35.5065 292.15 32.0864 291.981 28.5914C292.167 26.8337 291.983 25.0562 291.442 23.3744C290.9 21.6927 290.013 20.1442 288.837 18.8297C287.662 17.5152 286.224 16.4641 284.618 15.7445C283.012 15.0249 281.273 14.6531 279.515 14.6531C277.756 14.6531 276.018 15.0249 274.411 15.7445C272.805 16.4641 271.368 17.5152 270.192 18.8297C269.017 20.1442 268.129 21.6927 267.588 23.3744C267.046 25.0562 266.862 26.8337 267.049 28.5914C266.887 32.0892 268.109 35.5091 270.447 38.1044C272.786 40.6996 276.05 42.2594 279.529 42.4431Z" fill="#E9E9E9"/>
<path d="M406.362 2.05158L421.44 2.02319V14.4557L406.729 14.4841L406.644 22.9995H420.282V35.063L406.701 35.0914V43.3229H421.581V55.9825H406.503L391.68 56.0109L391.651 2.05158H406.362Z" fill="#E9E9E9"/>
<path d="M451.962 34.3818L467.237 55.9826H451.2L439.228 39.4343V55.9542H424.884V1.99487H443.294C459.473 1.99487 469.75 22.3751 452.019 34.3818H451.962ZM443.294 24.9013C444.664 24.9013 445.978 24.3541 446.947 23.3799C447.916 22.4058 448.461 21.0846 448.461 19.7069C448.461 18.3293 447.916 17.0081 446.947 16.0339C445.978 15.0598 444.664 14.5125 443.294 14.5125H439.143V24.9013H443.294Z" fill="#E9E9E9"/>
<path d="M469.044 53.2293C469.033 52.1491 469.342 51.0899 469.931 50.1862C470.519 49.2825 471.362 48.5752 472.352 48.154C473.341 47.7328 474.433 47.6167 475.488 47.8205C476.544 48.0244 477.515 48.5389 478.279 49.2988C479.042 50.0586 479.564 51.0296 479.778 52.0882C479.992 53.1469 479.888 54.2456 479.479 55.2448C479.071 56.2439 478.376 57.0984 477.483 57.6998C476.591 58.3012 475.54 58.6223 474.466 58.6224C473.755 58.6337 473.05 58.5024 472.391 58.2361C471.732 57.9698 471.132 57.5739 470.627 57.0716C470.122 56.5693 469.722 55.9707 469.45 55.3109C469.179 54.6511 469.041 53.9434 469.044 53.2293ZM479.012 53.2293C479.017 52.3162 478.752 51.4222 478.25 50.6611C477.749 49.9 477.033 49.3063 476.194 48.9556C475.356 48.6049 474.432 48.5132 473.542 48.692C472.651 48.8709 471.833 49.3122 471.193 49.9599C470.553 50.6075 470.119 51.4321 469.947 52.3286C469.774 53.2251 469.871 54.1529 470.225 54.9937C470.579 55.8345 471.174 56.5504 471.935 57.05C472.695 57.5497 473.586 57.8105 474.494 57.7992C475.69 57.7772 476.831 57.2877 477.674 56.4347C478.517 55.5816 478.997 54.4319 479.012 53.2293ZM477.007 56.0678H476.019L474.268 53.2293H473.28V56.0678H472.461V50.2489H475.059C476.103 50.2489 477.148 50.5327 477.148 51.8101C477.148 53.0874 476.301 53.3996 475.285 53.428L477.007 56.0678ZM474.183 52.5197C474.917 52.5197 476.188 52.6616 476.188 51.6965C476.188 50.7314 475.397 50.9869 474.748 50.9869H473.195V52.4913L474.353 52.6048L474.183 52.5197Z" fill="#E9E9E9"/>
<path d="M5.64695 38.3275C5.64695 49.4543 13.4399 52.8604 23.294 52.8604C28.9411 52.8604 37.4117 49.7381 37.4117 41.8755C37.4117 35.7728 31.3975 33.3601 26.3717 32.1112L14.3999 29.2727C8.15989 27.5697 2.37166 24.646 2.37166 16.159C2.37166 10.8795 5.64695 0.944824 20.894 0.944824C31.567 0.944824 40.6587 6.62176 40.6587 17.7486H35.6328C35.2658 9.57377 28.6305 5.37284 20.9505 5.37284C13.9481 5.37284 7.48224 8.2113 7.48224 16.0739C7.48224 21.1547 11.1528 23.3403 15.614 24.3338L28.687 27.5697C36.3105 29.6134 42.6352 33.0195 42.6352 41.762C42.6352 45.4804 41.1387 57.2033 22.0799 57.2033C9.37401 57.2033 0.0281272 51.5263 0.621068 38.2707H5.64695V38.3275Z" fill="#E9E9E9"/>
<path d="M57.2325 17.0673H65.1384V21.0695H57.2325V47.4105C57.2325 50.5045 57.6842 52.3211 61.0725 52.5482C62.4308 52.5432 63.7879 52.4674 65.1384 52.3211V56.4652C63.6984 56.4652 62.3148 56.6072 60.9031 56.6072C54.5784 56.6072 52.4325 54.5067 52.4325 47.8363V21.0695H45.656V17.0673H52.4325V5.3728H57.176V17.0673H57.2325Z" fill="#E9E9E9"/>
<path d="M101.646 56.1247H97.3829V49.0853H97.2418C96.0257 51.6008 94.1135 53.7101 91.7345 55.1601C89.3556 56.6101 86.611 57.3393 83.83 57.2601C73.9759 57.2601 70.2206 51.5832 70.2206 42.4149V17.0674H74.9641V42.6136C75.19 49.6246 77.7876 53.343 85.3547 53.343C93.4865 53.343 97.0159 45.6224 97.0159 37.6747V17.0674H101.646V56.1247Z" fill="#E9E9E9"/>
<path d="M141.712 56.1245H137.335V48.7161C136.058 51.3049 134.079 53.478 131.626 54.9846C129.173 56.4913 126.346 57.2702 123.472 57.2315C111.67 57.2315 106.022 47.6942 106.022 36.5674C106.022 25.4406 111.67 15.9317 123.472 15.9317C126.32 15.7835 129.143 16.5216 131.559 18.0454C133.974 19.5693 135.863 21.8047 136.968 24.4472V2.1084H141.712V56.1245ZM123.359 53.286C133.354 53.286 136.968 44.7706 136.968 36.6526C136.968 28.5345 133.354 20.0191 123.359 20.0191C114.324 20.0191 110.653 28.5345 110.653 36.6526C110.653 44.7706 114.324 53.2292 123.359 53.2292V53.286Z" fill="#E9E9E9"/>
<path d="M149.166 2.1084H153.91V9.74388H149.166V2.1084ZM149.166 17.0671H153.91V56.1245H149.166V17.0671Z" fill="#E9E9E9"/>
<path d="M196.122 36.5959C196.122 47.7795 189.571 57.2316 177.741 57.2316C165.91 57.2316 159.388 47.9498 159.388 36.5959C159.388 25.2421 165.938 15.9319 177.882 15.9319C189.825 15.9319 196.122 25.384 196.122 36.5959ZM164.131 36.5959C164.131 44.8275 168.734 53.2294 177.741 53.2294C186.748 53.2294 191.378 44.714 191.378 36.5959C191.378 28.4779 186.776 19.9625 177.882 19.9625C168.988 19.9625 164.131 28.336 164.131 36.5959Z" fill="#E9E9E9"/>
</g>
<defs>
<clipPath id="clip0_36_687">
<rect width="480" height="59" fill="white"/>
</clipPath>
</defs>
</svg>
