<svg width="144" height="169" viewBox="0 0 144 169" fill="none" xmlns="http://www.w3.org/2000/svg">
<g clip-path="url(#clip0_36_22)">
<path d="M72 169C67.4844 166.993 31.3434 151.527 19.6772 141.881C13.4232 136.72 8.43956 130.206 5.10766 122.836C1.77577 115.467 0.183913 107.437 0.453912 99.3614V15.7725C20.2988 5.28917 44.3139 0 72 0C99.6861 0 123.576 5.31822 143.546 15.7725V99.269C144.104 115.641 137.02 131.347 124.352 141.82C112.877 151.097 76.3217 167.117 72.1222 168.939L72 169Z" fill="#E9E9E9"/>
<path d="M99.5294 70.3832C99.6056 66.0533 101.402 61.9293 104.525 58.911C107.649 55.8927 111.847 54.2253 116.203 54.2727C121.073 54.0184 125.884 55.4375 129.827 58.2917V69.0232C126.886 65.9918 122.894 64.1909 118.66 63.9796C115.146 63.9796 111.475 65.4954 111.35 69.8867C111.225 74.2781 114.896 76.0711 119.531 78.8543C129.917 85.0386 131.973 90.3568 131.697 97.5631C131.657 102.176 129.699 106.541 126.288 109.697C122.878 112.852 118.314 114.41 113.687 114.08C108.866 114.041 104.143 112.728 99.9996 110.278V98.96C103.283 101.913 107.467 103.688 111.884 104.001C113.833 104.254 115.796 103.631 117.233 102.292C118.67 100.954 119.438 99.0551 119.316 97.1036C119.316 93.2378 117.013 91.1041 111.57 87.8271C101.336 81.8593 99.4683 76.9425 99.4683 70.3541L99.5294 70.3832ZM69.4182 65.1283C70.8005 64.5266 72.2946 64.2207 73.8036 64.2305C81.0207 64.2305 84.0036 69.9527 84.0036 83.8055C84.0036 97.6582 80.5824 103.848 73.4264 103.848C72.0452 103.837 70.6772 103.584 69.3836 103.108V65.1362L69.4182 65.1283ZM69.4182 139.193H56.9763V58.7538C62.0019 55.6907 67.8218 54.1592 73.7107 54.3625C88.5485 54.3625 96.6979 65.5587 96.6979 83.5546C96.6979 101.55 88.7663 113.956 74.9219 113.956C73.0307 113.99 71.1447 113.75 69.3225 113.243V139.161L69.4182 139.193ZM13.4244 94.3812V55.6643H25.8663V94.9383C25.8663 98.4319 26.7057 103.626 32.4272 103.626C34.4697 103.678 36.4821 103.129 38.2125 102.05V55.6643H50.6544V109.132C45.0683 112.591 38.5685 114.318 31.9889 114.08C19.5471 114.08 13.3235 107.463 13.3235 94.3495L13.4244 94.3812ZM7.20347 99.3587C6.65097 113.777 12.856 127.629 24.0016 136.869C33.7075 144.754 63.6328 158.205 72.0611 161.886C80.3672 158.237 110.231 144.939 120.091 136.869C131.248 127.653 137.455 113.798 136.89 99.3878V17.5284C95.2954 13.6995 46.1175 16.0497 7.17159 51.5502V99.3587H7.20347Z" fill="#030E24"/>
</g>
<defs>
<clipPath id="clip0_36_22">
<rect width="144" height="169" fill="white"/>
</clipPath>
</defs>
</svg>
