<svg width="60" height="90" viewBox="0 0 60 90" fill="none" xmlns="http://www.w3.org/2000/svg">
<g clip-path="url(#clip0_621_1062)">
<path d="M15.0029 90C23.2812 90 29.9999 83.28 29.9999 75V60H15.0029C6.72451 60 0.00585938 66.72 0.00585938 75C0.00585938 83.28 6.72451 90 15.0029 90Z" fill="#0ACF83"/>
<path d="M0.00585938 45C0.00585938 36.72 6.72451 30 15.0029 30H29.9999V60H15.0029C6.72451 60 0.00585938 53.28 0.00585938 45Z" fill="#A259FF"/>
<path d="M0.00585938 15C0.00585938 6.72 6.72451 0 15.0029 0H29.9999V30H15.0029C6.72451 30 0.00585938 23.28 0.00585938 15Z" fill="#F24E1E"/>
<path d="M30 0H44.997C53.2753 0 59.994 6.72 59.994 15C59.994 23.28 53.2753 30 44.997 30H30V0Z" fill="#FF7262"/>
<path d="M59.994 45C59.994 53.28 53.2753 60 44.997 60C36.7187 60 30 53.28 30 45C30 36.72 36.7187 30 44.997 30C53.2753 30 59.994 36.72 59.994 45Z" fill="#1ABCFE"/>
</g>
<defs>
<clipPath id="clip0_621_1062">
<rect width="60" height="90" fill="white"/>
</clipPath>
</defs>
</svg>
